<svg width="46" height="19" viewBox="0 0 46 19" fill="none" xmlns="http://www.w3.org/2000/svg">
<path d="M2 2C4.00342 4.42999 6.36355 6.54231 9 8.265L2 2ZM44 2C41.9966 4.42999 39.6364 6.54231 37 8.265L44 2ZM18.3333 12.0543L17.1667 17.1667L18.3333 12.0543ZM18.3333 12.0567C21.4162 12.6496 24.5838 12.6496 27.6667 12.0567H18.3333ZM18.3333 12.0567C15.007 11.4058 11.8378 10.1183 9 8.265L18.3333 12.0567ZM27.6667 12.0543L28.8333 17.1667L27.6667 12.0543ZM27.6667 12.0567C30.993 11.4058 34.1622 10.1183 37 8.265L27.6667 12.0567ZM37 8.265L40.5 12.5L37 8.265ZM9 8.265L5.5 12.5L9 8.265Z" fill="#3077FF"/>
<path d="M2 2C4.00342 4.42999 6.36355 6.54231 9 8.265M9 8.265C11.8378 10.1183 15.007 11.4058 18.3333 12.0567C21.4162 12.6496 24.5838 12.6496 27.6667 12.0567C30.993 11.4058 34.1622 10.1183 37 8.265M9 8.265L5.5 12.5M44 2C41.9966 4.42999 39.6364 6.54231 37 8.265M37 8.265L40.5 12.5M18.3333 12.0543L17.1667 17.1667M27.6667 12.0543L28.8333 17.1667" stroke="#3077FF" stroke-width="2.17241" stroke-linecap="round" stroke-linejoin="round"/>
</svg>
