<svg width="19" height="19" viewBox="0 0 19 19" fill="none" xmlns="http://www.w3.org/2000/svg">
<path d="M3.49865 1.07381C4.19066 1.0736 4.86146 1.30948 5.39741 1.7415C5.93335 2.17352 6.30148 2.7751 6.43941 3.44432C6.57734 4.11355 6.47659 4.80925 6.15424 5.41355C5.83189 6.01786 5.30776 6.49361 4.67065 6.76019L4.49865 6.82729V13.9032C4.49844 14.1451 4.58825 14.3786 4.75103 14.5595C4.91382 14.7403 5.13823 14.8558 5.38165 14.8841L5.49865 14.8901H7.70565L7.29165 14.4815C7.1104 14.3043 7.00462 14.0655 6.99597 13.8138C6.98732 13.5622 7.07645 13.3168 7.24512 13.1279C7.41379 12.939 7.64924 12.8209 7.90328 12.7977C8.15731 12.7745 8.41073 12.848 8.61165 13.0032L8.70565 13.0861L10.8267 15.1782C10.999 15.348 11.1026 15.5741 11.1181 15.8139C11.1335 16.0537 11.0598 16.2909 10.9107 16.4809L10.8267 16.5747L8.70565 18.6678C8.52569 18.8448 8.28422 18.9476 8.03027 18.9552C7.77632 18.9629 7.52894 18.8749 7.33837 18.709C7.14781 18.5432 7.02835 18.312 7.00425 18.0624C6.98016 17.8128 7.05324 17.5635 7.20865 17.3651L7.29165 17.2724L7.70565 16.8638H5.49865C4.73344 16.8639 3.99714 16.5753 3.44039 16.0573C2.88364 15.5392 2.54854 14.8307 2.50365 14.0769L2.49865 13.9032V6.82729C1.8315 6.59424 1.26928 6.13601 0.911289 5.53353C0.5533 4.93106 0.422582 4.22311 0.542226 3.53474C0.661869 2.84637 1.02418 2.22188 1.56515 1.77158C2.10612 1.32127 2.79094 1.07413 3.49865 1.07381ZM10.2917 1.24355C10.4716 1.06656 10.7131 0.963802 10.967 0.956149C11.221 0.948496 11.4684 1.03652 11.6589 1.20235C11.8495 1.36818 11.969 1.59937 11.9931 1.84898C12.0171 2.09858 11.9441 2.34788 11.7887 2.54623L11.7057 2.639L11.2917 3.04756H13.4987C14.2639 3.04752 15.0002 3.33605 15.5569 3.85412C16.1137 4.37219 16.4488 5.08063 16.4937 5.8345L16.4987 6.00819V13.0841C17.1658 13.3171 17.728 13.7754 18.086 14.3778C18.444 14.9803 18.5747 15.6883 18.4551 16.3766C18.3354 17.065 17.9731 17.6895 17.4322 18.1398C16.8912 18.5901 16.2064 18.8372 15.4987 18.8376C14.8066 18.8378 14.1358 18.6019 13.5999 18.1699C13.064 17.7379 12.6958 17.1363 12.5579 16.4671C12.42 15.7978 12.5207 15.1021 12.8431 14.4978C13.1654 13.8935 13.6895 13.4178 14.3267 13.1512L14.4987 13.0841V6.00819C14.4986 5.76647 14.4087 5.53317 14.2459 5.35254C14.0832 5.1719 13.8589 5.0565 13.6157 5.02822L13.4987 5.02131H11.2917L11.7057 5.42988C11.8869 5.60706 11.9927 5.84592 12.0013 6.09755C12.01 6.34918 11.9209 6.59456 11.7522 6.78346C11.5835 6.97236 11.3481 7.0905 11.094 7.11369C10.84 7.13688 10.5866 7.06338 10.3857 6.90822L10.2917 6.82532L8.17065 4.73314C7.99806 4.56328 7.89427 4.33706 7.87881 4.09699C7.86334 3.85693 7.93725 3.61955 8.08665 3.42948L8.17065 3.33672L10.2917 1.24355Z" fill="url(#paint0_linear_95_4437)"/>
<defs>
<linearGradient id="paint0_linear_95_4437" x1="18.4983" y1="4.33569" x2="-0.985047" y2="7.3394" gradientUnits="userSpaceOnUse">
<stop offset="0.571875" stop-color="#3076FF"/>
<stop offset="1" stop-color="#0057FF"/>
</linearGradient>
</defs>
</svg>
