<svg width="160" height="160" viewBox="0 0 160 160" fill="none" xmlns="http://www.w3.org/2000/svg">
<mask id="mask0_1_64" style="mask-type:luminance" maskUnits="userSpaceOnUse" x="0" y="0" width="160" height="160">
<path d="M160 0H0V160H160V0Z" fill="white"/>
</mask>
<g mask="url(#mask0_1_64)">
<path d="M1.78571 79.2857C1.78571 58.542 10.7404 39.3621 25.4084 24.6941C40.0764 10.0261 59.9706 1.78571 80.7143 1.78571C101.458 1.78571 121.352 10.0261 136.02 24.6941C150.688 39.3621 158.214 58.542 158.214 79.2857" stroke="#890600" stroke-width="5"/>
<path d="M158.214 80C158.214 100.744 149.974 120.638 135.306 135.306C120.638 149.974 100.744 158.214 80 158.214C59.2563 158.214 39.3621 149.974 24.6941 135.306C10.0261 120.638 1.78571 100.744 1.78571 80" stroke="#3077FF" stroke-width="5"/>
</g>
<g clip-path="url(#clip0_1_64)">
<mask id="mask1_1_64" style="mask-type:luminance" maskUnits="userSpaceOnUse" x="5" y="5" width="150" height="150">
<path d="M154.565 80.1192C154.565 38.7919 121.221 5.28946 80.0887 5.28946C38.9563 5.28946 5.61189 38.7919 5.61189 80.1192C5.61189 121.447 38.9563 154.949 80.0887 154.949C121.221 154.949 154.565 121.447 154.565 80.1192Z" fill="white"/>
</mask>
<g mask="url(#mask1_1_64)">
<path d="M80.0885 154.949C121.221 154.949 154.566 121.447 154.566 80.1194C154.566 38.7919 121.221 5.28929 80.0885 5.28929C38.9559 5.28929 5.61133 38.7919 5.61133 80.1194C5.61133 121.447 38.9559 154.949 80.0885 154.949Z" fill="#A1E9FF"/>
<path d="M135.278 35.204C132.196 37.021 132.417 40.7533 130.257 42.4374C128.632 43.7049 126.339 43.063 125.013 42.5177C125.013 42.5177 124.114 43.6573 123.47 45.1765C123.254 45.6862 122.306 45.1246 122.473 44.6931C124.58 39.2298 131.749 36.5042 131.749 36.5042C131.749 36.5042 126.69 36.2888 123.31 40.7269C123.219 39.7132 123.069 36.9705 125.687 35.2886C129.236 33.0059 135.997 34.7803 135.278 35.204Z" fill="black" fill-opacity="0.1"/>
<path d="M112.636 23.8295C109.554 25.6466 109.775 29.3788 107.616 31.063C105.99 32.3305 103.697 31.6886 102.371 31.1433C102.371 31.1433 101.473 32.2829 100.828 33.8021C100.612 34.3118 99.6649 33.7502 99.8311 33.3186C101.938 27.8554 109.107 25.1298 109.107 25.1298C109.107 25.1298 104.049 24.9144 100.668 29.3525C100.578 28.3388 100.428 25.5961 103.046 23.9141C106.595 21.6314 113.356 23.4059 112.636 23.8295Z" fill="black" fill-opacity="0.1"/>
<path d="M92.825 18.1424C89.7429 19.9594 89.9637 23.6916 87.8043 25.3758C86.179 26.6433 83.8859 26.0014 82.5599 25.4561C82.5599 25.4561 81.6613 26.5957 81.0168 28.1149C80.8009 28.6246 79.8535 28.063 80.0198 27.6315C82.1269 22.1682 89.2958 19.4426 89.2958 19.4426C89.2958 19.4426 84.2375 19.2272 80.8568 23.6653C80.7663 22.6516 80.6163 19.9089 83.2342 18.227C86.7833 15.9442 93.5446 17.7187 92.825 18.1424Z" fill="black" fill-opacity="0.1"/>
<path d="M75.136 23.8295C72.0539 25.6466 72.2747 29.3788 70.1152 31.063C68.49 32.3305 66.1968 31.6886 64.8709 31.1433C64.8709 31.1433 63.9723 32.2829 63.3277 33.8021C63.1119 34.3118 62.1645 33.7502 62.3308 33.3186C64.4379 27.8554 71.6067 25.1298 71.6067 25.1298C71.6067 25.1298 66.5485 24.9144 63.1678 29.3525C63.0772 28.3388 62.9272 25.5961 65.5452 23.9141C69.0942 21.6314 75.8559 23.4059 75.136 23.8295Z" fill="black" fill-opacity="0.1"/>
<path d="M58.1548 35.204C55.0728 37.021 55.2935 40.7533 53.1341 42.4374C51.5089 43.7049 49.2157 43.063 47.8897 42.5177C47.8897 42.5177 46.9912 43.6573 46.3466 45.1765C46.1308 45.6862 45.1834 45.1246 45.3497 44.6931C47.4567 39.2298 54.6256 36.5042 54.6256 36.5042C54.6256 36.5042 49.5673 36.2888 46.1867 40.7269C46.0961 39.7132 45.9461 36.9705 48.564 35.2886C52.1131 33.0059 58.8744 34.7803 58.1548 35.204Z" fill="black" fill-opacity="0.1"/>
<path d="M58.1548 25.9623C55.0728 27.7793 55.2935 31.5115 53.1341 33.1957C51.5089 34.4632 49.2157 33.8213 47.8897 33.276C47.8897 33.276 46.9912 34.4156 46.3466 35.9348C46.1308 36.4445 45.1834 35.8829 45.3497 35.4514C47.4567 29.9881 54.6256 27.2625 54.6256 27.2625C54.6256 27.2625 49.5673 27.0471 46.1867 31.4852C46.0961 30.4715 45.9461 27.7288 48.564 26.0469C52.1131 23.7642 58.8744 25.5386 58.1548 25.9623Z" fill="black" fill-opacity="0.1"/>
<path d="M85.7495 29.5168C82.6675 31.3338 82.8882 35.066 80.7288 36.7502C79.1036 38.0177 76.8104 37.3758 75.4841 36.8305C75.4841 36.8305 74.5855 37.9701 73.9409 39.4893C73.7251 39.999 72.7777 39.4374 72.944 39.0059C75.0511 33.5426 82.2203 30.817 82.2203 30.817C82.2203 30.817 77.162 30.6016 73.781 35.0397C73.6905 34.026 73.5405 31.2833 76.1587 29.6014C79.7078 27.3187 86.4691 29.0931 85.7495 29.5168Z" fill="black" fill-opacity="0.1"/>
<path d="M127.495 45.1566C124.413 46.9736 124.633 50.7059 122.474 52.39C120.849 53.6575 118.556 53.0156 117.23 52.4703C117.23 52.4703 116.331 53.6099 115.687 55.1291C115.471 55.6388 114.523 55.0772 114.69 54.6457C116.797 49.1824 123.966 46.4568 123.966 46.4568C123.966 46.4568 118.907 46.2414 115.527 50.6795C115.436 49.6658 115.286 46.9231 117.904 45.2412C121.453 42.9585 128.214 44.7329 127.495 45.1566Z" fill="black" fill-opacity="0.1"/>
<path d="M36.9284 62.2182C33.8463 64.0352 34.0671 67.7675 31.9077 69.4516C30.2824 70.7191 27.9893 70.0772 26.6633 69.5319C26.6633 69.5319 25.7647 70.6715 25.1202 72.1907C24.9044 72.7004 23.957 72.1388 24.1232 71.7073C26.2303 66.244 33.3992 63.5184 33.3992 63.5184C33.3992 63.5184 28.3409 63.303 24.9603 67.7412C24.8697 66.7274 24.7197 63.9848 27.3376 62.3028C30.8867 60.0201 37.648 61.7945 36.9284 62.2182Z" fill="black" fill-opacity="0.1"/>
<path d="M64.5228 78.569C61.4407 80.386 61.6614 84.1182 59.502 85.8024C57.8768 87.0699 55.5836 86.428 54.2577 85.8827C54.2577 85.8827 53.3591 87.0223 52.7145 88.5415C52.4987 89.0512 51.5513 88.4896 51.7176 88.0581C53.8246 82.5948 60.9935 79.8692 60.9935 79.8692C60.9935 79.8692 55.9353 79.6538 52.5546 84.0919C52.464 83.0782 52.314 80.3355 54.932 78.6536C58.481 76.3709 65.2423 78.1453 64.5228 78.569Z" fill="black" fill-opacity="0.1"/>
<path d="M81.5042 56.531C78.4222 58.348 78.6429 62.0803 76.4835 63.7644C74.8579 65.0319 72.5647 64.39 71.2388 63.8447C71.2388 63.8447 70.3402 64.9843 69.6956 66.5035C69.4798 67.0132 68.5324 66.4516 68.6987 66.0201C70.8058 60.5568 77.975 57.8312 77.975 57.8312C77.975 57.8312 72.9164 57.6158 69.5357 62.054C69.4452 61.0402 69.2952 58.2976 71.9131 56.6156C75.4621 54.3329 82.2238 56.1073 81.5042 56.531Z" fill="black" fill-opacity="0.1"/>
<path d="M68.7681 56.531C65.686 58.348 65.9067 62.0803 63.7473 63.7644C62.1221 65.0319 59.8289 64.39 58.503 63.8447C58.503 63.8447 57.6044 64.9843 56.9598 66.5035C56.744 67.0132 55.7966 66.4516 55.9629 66.0201C58.0699 60.5568 65.2388 57.8312 65.2388 57.8312C65.2388 57.8312 60.1806 57.6158 56.7999 62.054C56.7093 61.0402 56.5593 58.2976 59.1772 56.6156C62.7263 54.3329 69.4876 56.1073 68.7681 56.531Z" fill="black" fill-opacity="0.1"/>
<path d="M80.0892 40.8912C77.0071 42.7082 77.2278 46.4405 75.0681 48.1246C73.4428 49.3921 71.1497 48.7502 69.8237 48.2049C69.8237 48.2049 68.9251 49.3445 68.2805 50.8637C68.0647 51.3734 67.1173 50.8118 67.2836 50.3803C69.3907 44.917 76.5599 42.1914 76.5599 42.1914C76.5599 42.1914 71.5013 41.976 68.1206 46.4142C68.0301 45.4004 67.8801 42.6578 70.498 40.9758C74.0471 38.6931 80.8087 40.4675 80.0892 40.8912Z" fill="black" fill-opacity="0.1"/>
<path d="M102.731 53.6874C99.6486 55.5044 99.8693 59.2367 97.7099 60.9208C96.0847 62.1883 93.7915 61.5464 92.4656 61.0011C92.4656 61.0011 91.567 62.1407 90.9224 63.6599C90.7066 64.1696 89.7592 63.608 89.9255 63.1765C92.0325 57.7132 99.2014 54.9876 99.2014 54.9876C99.2014 54.9876 94.1432 54.7722 90.7625 59.2104C90.6719 58.1966 90.5219 55.454 93.1399 53.772C96.6889 51.4893 103.45 53.2637 102.731 53.6874Z" fill="black" fill-opacity="0.1"/>
<path d="M105.561 73.5926C102.479 75.4096 102.7 79.1419 100.54 80.8261C98.9149 82.0936 96.6217 81.4517 95.2958 80.9064C95.2958 80.9064 94.3972 82.046 93.7526 83.5652C93.5368 84.0749 92.5894 83.5133 92.7557 83.0818C94.8627 77.6185 102.032 74.8928 102.032 74.8928C102.032 74.8928 96.9734 74.6774 93.5927 79.1156C93.5021 78.1019 93.3521 75.3592 95.9701 73.6772C99.5191 71.3945 106.28 73.1689 105.561 73.5926Z" fill="black" fill-opacity="0.1"/>
<path d="M128.91 72.8817C125.828 74.6987 126.049 78.431 123.889 80.1152C122.264 81.3827 119.971 80.7408 118.645 80.1955C118.645 80.1955 117.746 81.3351 117.102 82.8543C116.886 83.364 115.938 82.8024 116.105 82.3709C118.212 76.9076 125.381 74.1819 125.381 74.1819C125.381 74.1819 120.322 73.9665 116.942 78.4047C116.851 77.391 116.701 74.6483 119.319 72.9663C122.868 70.6836 129.629 72.458 128.91 72.8817Z" fill="black" fill-opacity="0.1"/>
<path d="M128.91 56.531C125.828 58.348 126.049 62.0803 123.889 63.7644C122.264 65.0319 119.971 64.39 118.645 63.8447C118.645 63.8447 117.746 64.9843 117.102 66.5035C116.886 67.0132 115.938 66.4516 116.105 66.0201C118.212 60.5568 125.381 57.8312 125.381 57.8312C125.381 57.8312 120.322 57.6158 116.942 62.054C116.851 61.0402 116.701 58.2976 119.319 56.6156C122.868 54.3329 129.629 56.1073 128.91 56.531Z" fill="black" fill-opacity="0.1"/>
<path d="M115.467 45.1566C112.384 46.9736 112.605 50.7059 110.446 52.39C108.821 53.6575 106.527 53.0156 105.201 52.4703C105.201 52.4703 104.303 53.6099 103.658 55.1291C103.442 55.6388 102.495 55.0772 102.661 54.6457C104.768 49.1824 111.937 46.4568 111.937 46.4568C111.937 46.4568 106.879 46.2414 103.498 50.6795C103.408 49.6658 103.258 46.9231 105.876 45.2412C109.425 42.9585 116.186 44.7329 115.467 45.1566Z" fill="black" fill-opacity="0.1"/>
<path d="M97.0703 35.204C93.9882 37.021 94.209 40.7533 92.0495 42.4374C90.4243 43.7049 88.1311 43.063 86.8052 42.5177C86.8052 42.5177 85.9066 43.6573 85.262 45.1765C85.0462 45.6862 84.0988 45.1246 84.2651 44.6931C86.3722 39.2298 93.541 36.5042 93.541 36.5042C93.541 36.5042 88.4828 36.2888 85.1021 40.7269C85.0116 39.7132 84.8616 36.9705 87.4795 35.2886C91.0285 33.0059 97.7899 34.7803 97.0703 35.204Z" fill="black" fill-opacity="0.1"/>
<path d="M56.0322 48.0002C52.9501 49.8172 53.1709 53.5495 51.0114 55.2336C49.3862 56.5011 47.093 55.8592 45.7671 55.3139C45.7671 55.3139 44.8685 56.4535 44.2239 57.9727C44.0081 58.4824 43.0607 57.9208 43.227 57.4893C45.3341 52.026 52.5029 49.3004 52.5029 49.3004C52.5029 49.3004 47.4447 49.085 44.064 53.5232C43.9735 52.5094 43.8235 49.7668 46.4414 48.0848C49.9904 45.8021 56.7518 47.5765 56.0322 48.0002Z" fill="black" fill-opacity="0.1"/>
<path d="M46.1265 52.2656C43.0445 54.0826 43.2652 57.8149 41.1058 59.499C39.4805 60.7665 37.1874 60.1246 35.8614 59.5793C35.8614 59.5793 34.9629 60.7189 34.3183 62.2381C34.1025 62.7478 33.1551 62.1862 33.3213 61.7547C35.4284 56.2914 42.5973 53.5658 42.5973 53.5658C42.5973 53.5658 37.539 53.3504 34.1584 57.7886C34.0678 56.7748 33.9178 54.0322 36.5357 52.3502C40.0848 50.0675 46.8461 51.8419 46.1265 52.2656Z" fill="black" fill-opacity="0.1"/>
<path d="M55.3247 60.7964C52.2426 62.6134 52.4633 66.3457 50.3039 68.0298C48.6787 69.2973 46.3855 68.6554 45.0596 68.1101C45.0596 68.1101 44.161 69.2497 43.5164 70.7689C43.3006 71.2786 42.3532 70.717 42.5195 70.2855C44.6265 64.8222 51.7954 62.0966 51.7954 62.0966C51.7954 62.0966 46.7372 61.8812 43.3565 66.3194C43.2659 65.3056 43.1159 62.563 45.7339 60.881C49.2829 58.5983 56.0442 60.3727 55.3247 60.7964Z" fill="black" fill-opacity="0.1"/>
<path d="M39.7586 42.313C36.6765 44.13 36.8973 47.8623 34.7379 49.5464C33.1126 50.8139 30.8195 50.172 29.4935 49.6267C29.4935 49.6267 28.5949 50.7663 27.9504 52.2855C27.7346 52.7952 26.7872 52.2336 26.9534 51.8021C29.0605 46.3388 36.2294 43.6132 36.2294 43.6132C36.2294 43.6132 31.1711 43.3978 27.7905 47.8359C27.6999 46.8222 27.5499 44.0796 30.1678 42.3976C33.7169 40.1149 40.4782 41.8893 39.7586 42.313Z" fill="black" fill-opacity="0.1"/>
<path d="M24.1926 78.569C21.1105 80.386 21.3312 84.1182 19.1718 85.8024C17.5466 87.0699 15.2534 86.428 13.9275 85.8827C13.9275 85.8827 13.0289 87.0223 12.3843 88.5415C12.1685 89.0512 11.2211 88.4896 11.3874 88.0581C13.4945 82.5948 20.6633 79.8692 20.6633 79.8692C20.6633 79.8692 15.6051 79.6538 12.2244 84.0919C12.1338 83.0782 11.9839 80.3355 14.6018 78.6536C18.1508 76.3709 24.9121 78.1453 24.1926 78.569Z" fill="black" fill-opacity="0.1"/>
<path d="M43.2964 82.1235C40.2143 83.9405 40.435 87.6728 38.2756 89.3569C36.6504 90.6244 34.3572 89.9825 33.0313 89.4372C33.0313 89.4372 32.1327 90.5768 31.4881 92.096C31.2723 92.6057 30.3249 92.0441 30.4912 91.6126C32.5982 86.1493 39.7671 83.4237 39.7671 83.4237C39.7671 83.4237 34.7089 83.2083 31.3282 87.6464C31.2376 86.6327 31.0876 83.8901 33.7055 82.2081C37.2546 79.9254 44.0159 81.6998 43.2964 82.1235Z" fill="black" fill-opacity="0.1"/>
<path d="M43.2964 23.8295C40.2143 25.6466 40.435 29.3788 38.2756 31.063C36.6504 32.3305 34.3572 31.6886 33.0313 31.1433C33.0313 31.1433 32.1327 32.2829 31.4881 33.8021C31.2723 34.3118 30.3249 33.7502 30.4912 33.3186C32.5982 27.8554 39.7671 25.1298 39.7671 25.1298C39.7671 25.1298 34.7089 24.9144 31.3282 29.3525C31.2376 28.3388 31.0876 25.5961 33.7055 23.9141C37.2546 21.6314 44.0159 23.4059 43.2964 23.8295Z" fill="black" fill-opacity="0.1"/>
<path d="M64.5228 13.166C61.4407 14.9831 61.6614 18.7153 59.502 20.3995C57.8768 21.667 55.5836 21.025 54.2577 20.4798C54.2577 20.4798 53.3591 21.6194 52.7145 23.1386C52.4987 23.6483 51.5513 23.0867 51.7176 22.6551C53.8246 17.1919 60.9935 14.4663 60.9935 14.4663C60.9935 14.4663 55.9353 14.2509 52.5546 18.689C52.464 17.6753 52.314 14.9326 54.932 13.2506C58.481 10.9679 65.2423 12.7423 64.5228 13.166Z" fill="black" fill-opacity="0.1"/>
<path d="M105.561 13.166C102.479 14.9831 102.7 18.7153 100.54 20.3995C98.9149 21.667 96.6217 21.025 95.2958 20.4798C95.2958 20.4798 94.3972 21.6194 93.7526 23.1386C93.5368 23.6483 92.5894 23.0867 92.7557 22.6551C94.8627 17.1919 102.032 14.4663 102.032 14.4663C102.032 14.4663 96.9734 14.2509 93.5927 18.689C93.5021 17.6753 93.3521 14.9326 95.9701 13.2506C99.5191 10.9679 106.28 12.7423 105.561 13.166Z" fill="black" fill-opacity="0.1"/>
<path d="M80.0892 73.5926C77.0071 75.4096 77.2278 79.1419 75.0681 80.8261C73.4428 82.0936 71.1497 81.4517 69.8237 80.9064C69.8237 80.9064 68.9251 82.046 68.2805 83.5652C68.0647 84.0749 67.1173 83.5133 67.2836 83.0818C69.3907 77.6185 76.5599 74.8928 76.5599 74.8928C76.5599 74.8928 71.5013 74.6774 68.1206 79.1156C68.0301 78.1019 67.8801 75.3592 70.498 73.6772C74.0471 71.3945 80.8087 73.1689 80.0892 73.5926Z" fill="black" fill-opacity="0.1"/>
<path d="M148.014 67.9054C144.932 69.7224 145.152 73.4547 142.993 75.1388C141.368 76.4064 139.075 75.7644 137.749 75.2191C137.749 75.2191 136.85 76.3588 136.205 77.878C135.99 78.3877 135.042 77.8261 135.208 77.3946C137.316 71.9312 144.484 69.2056 144.484 69.2056C144.484 69.2056 139.426 68.9902 136.046 73.4284C135.955 72.4146 135.805 69.672 138.423 67.99C141.972 65.7073 148.733 67.4817 148.014 67.9054Z" fill="black" fill-opacity="0.1"/>
<path d="M51.7869 67.9054C48.7048 69.7224 48.9256 73.4547 46.7662 75.1388C45.1409 76.4064 42.8478 75.7644 41.5218 75.2191C41.5218 75.2191 40.6232 76.3588 39.9787 77.878C39.7628 78.3877 38.8154 77.8261 38.9817 77.3946C41.0888 71.9312 48.2577 69.2056 48.2577 69.2056C48.2577 69.2056 43.1994 68.9902 39.8187 73.4284C39.7282 72.4146 39.5782 69.672 42.1961 67.99C45.7452 65.7073 52.5065 67.4817 51.7869 67.9054Z" fill="black" fill-opacity="0.1"/>
<path d="M94.2401 65.0618C91.158 66.8788 91.3788 70.6111 89.2193 72.2952C87.5941 73.5627 85.3009 72.9208 83.975 72.3755C83.975 72.3755 83.0764 73.5151 82.4318 75.0343C82.216 75.544 81.2686 74.9824 81.4349 74.5509C83.542 69.0876 90.7109 66.362 90.7109 66.362C90.7109 66.362 85.6526 66.1466 82.2719 70.5848C82.1814 69.571 82.0314 66.8284 84.6493 65.1464C88.1984 62.8637 94.9597 64.6381 94.2401 65.0618Z" fill="black" fill-opacity="0.1"/>
<path d="M144.476 79.2799C141.394 81.0969 141.615 84.8291 139.455 86.5133C137.83 87.7808 135.537 87.1389 134.211 86.5936C134.211 86.5936 133.312 87.7332 132.668 89.2524C132.452 89.7621 131.504 89.2005 131.671 88.769C133.778 83.3057 140.947 80.5801 140.947 80.5801C140.947 80.5801 135.888 80.3647 132.508 84.8028C132.417 83.7891 132.267 81.0464 134.885 79.3645C138.434 77.0818 145.196 78.8562 144.476 79.2799Z" fill="black" fill-opacity="0.1"/>
<path d="M140.938 48.0002C137.856 49.8172 138.077 53.5495 135.917 55.2336C134.292 56.5011 131.999 55.8592 130.673 55.3139C130.673 55.3139 129.775 56.4535 129.13 57.9727C128.914 58.4824 127.967 57.9208 128.133 57.4893C130.24 52.026 137.409 49.3004 137.409 49.3004C137.409 49.3004 132.351 49.085 128.97 53.5232C128.879 52.5094 128.729 49.7668 131.347 48.0848C134.896 45.8021 141.658 47.5765 140.938 48.0002Z" fill="black" fill-opacity="0.1"/>
<path d="M129.617 25.2514C126.535 27.0684 126.756 30.8006 124.597 32.4848C122.971 33.7523 120.678 33.1104 119.352 32.5651C119.352 32.5651 118.454 33.7047 117.809 35.2239C117.593 35.7336 116.646 35.172 116.812 34.7405C118.919 29.2772 126.088 26.5516 126.088 26.5516C126.088 26.5516 121.03 26.3362 117.649 30.7743C117.559 29.7606 117.409 27.0179 120.027 25.336C123.576 23.0533 130.337 24.8277 129.617 25.2514Z" fill="black" fill-opacity="0.1"/>
<path d="M113.344 35.204C110.262 37.021 110.483 40.7533 108.323 42.4374C106.698 43.7049 104.405 43.063 103.079 42.5177C103.079 42.5177 102.18 43.6573 101.536 45.1765C101.32 45.6862 100.372 45.1246 100.539 44.6931C102.646 39.2298 109.815 36.5042 109.815 36.5042C109.815 36.5042 104.756 36.2888 101.376 40.7269C101.285 39.7132 101.135 36.9705 103.753 35.2886C107.302 33.0059 114.063 34.7803 113.344 35.204Z" fill="black" fill-opacity="0.1"/>
<path d="M27.0228 52.2656C23.9407 54.0826 24.1614 57.8149 22.002 59.499C20.3768 60.7665 18.0836 60.1246 16.7577 59.5793C16.7577 59.5793 15.8591 60.7189 15.2145 62.2381C14.9987 62.7478 14.0513 62.1862 14.2176 61.7547C16.3246 56.2914 23.4935 53.5658 23.4935 53.5658C23.4935 53.5658 18.4353 53.3504 15.0546 57.7886C14.964 56.7748 14.814 54.0322 17.432 52.3502C20.981 50.0675 27.7423 51.8419 27.0228 52.2656Z" fill="black" fill-opacity="0.1"/>
<path d="M22.0699 63.64C18.9879 65.457 19.2086 69.1893 17.0492 70.8734C15.4239 72.1409 13.1308 71.499 11.8048 70.9537C11.8048 70.9537 10.9063 72.0933 10.2617 73.6125C10.0459 74.1222 9.09848 73.5606 9.26475 73.1291C11.3718 67.6658 18.5407 64.9402 18.5407 64.9402C18.5407 64.9402 13.4824 64.7248 10.1018 69.163C10.0112 68.1492 9.86122 65.4066 12.4791 63.7246C16.0282 61.4419 22.7895 63.2163 22.0699 63.64Z" fill="black" fill-opacity="0.1"/>
<path d="M67.353 67.9054C64.2709 69.7224 64.4916 73.4547 62.3322 75.1388C60.707 76.4064 58.4138 75.7644 57.0879 75.2191C57.0879 75.2191 56.1893 76.3588 55.5447 77.878C55.3289 78.3877 54.3815 77.8261 54.5478 77.3946C56.6548 71.9312 63.8237 69.2056 63.8237 69.2056C63.8237 69.2056 58.7655 68.9902 55.3848 73.4284C55.2942 72.4146 55.1442 69.672 57.7621 67.99C61.3112 65.7073 68.0725 67.4817 67.353 67.9054Z" fill="black" fill-opacity="0.1"/>
<path d="M80.0892 8.18973C77.0071 10.0068 77.2278 13.739 75.0681 15.4232C73.4428 16.6907 71.1497 16.0488 69.8237 15.5035C69.8237 15.5035 68.9251 16.6431 68.2805 18.1623C68.0647 18.672 67.1173 18.1104 67.2836 17.6788C69.3907 12.2156 76.5599 9.48997 76.5599 9.48997C76.5599 9.48997 71.5013 9.27457 68.1206 13.7127C68.0301 12.699 67.8801 9.95632 70.498 8.27433C74.0471 5.99163 80.8087 7.76604 80.0892 8.18973Z" fill="black" fill-opacity="0.1"/>
<path d="M70.8907 39.4694C67.8086 41.2864 68.0294 45.0187 65.8699 46.7028C64.2447 47.9703 61.9515 47.3284 60.6256 46.7831C60.6256 46.7831 59.727 47.9227 59.0824 49.4419C58.8666 49.9516 57.9192 49.39 58.0855 48.9585C60.1926 43.4952 67.3614 40.7696 67.3614 40.7696C67.3614 40.7696 62.3032 40.5542 58.9225 44.9924C58.832 43.9786 58.682 41.236 61.2999 39.554C64.8489 37.2713 71.6103 39.0457 70.8907 39.4694Z" fill="black" fill-opacity="0.1"/>
<path d="M92.825 48.7111C89.7429 50.5281 89.9637 54.2604 87.8043 55.9445C86.179 57.212 83.8859 56.5701 82.5599 56.0248C82.5599 56.0248 81.6613 57.1644 81.0168 58.6836C80.8009 59.1933 79.8535 58.6317 80.0198 58.2002C82.1269 52.7369 89.2958 50.0113 89.2958 50.0113C89.2958 50.0113 84.2375 49.7959 80.8568 54.234C80.7663 53.2203 80.6163 50.4777 83.2342 48.7957C86.7833 46.513 93.5446 48.2874 92.825 48.7111Z" fill="black" fill-opacity="0.1"/>
<path d="M121.127 78.569C118.045 80.386 118.266 84.1182 116.106 85.8024C114.481 87.0699 112.188 86.428 110.862 85.8827C110.862 85.8827 109.963 87.0223 109.319 88.5415C109.103 89.0512 108.155 88.4896 108.322 88.0581C110.429 82.5948 117.598 79.8692 117.598 79.8692C117.598 79.8692 112.539 79.6538 109.159 84.0919C109.068 83.0782 108.918 80.3355 111.536 78.6536C115.085 76.3709 121.846 78.1453 121.127 78.569Z" fill="black" fill-opacity="0.1"/>
<path d="M80.0892 87.0998C77.0071 88.9168 77.2278 92.6491 75.0681 94.3332C73.4428 95.6007 71.1497 94.9588 69.8237 94.4135C69.8237 94.4135 68.9251 95.5531 68.2805 97.0723C68.0647 97.582 67.1173 97.0204 67.2836 96.5889C69.3907 91.1256 76.5599 88.4 76.5599 88.4C76.5599 88.4 71.5013 88.1846 68.1206 92.6227C68.0301 91.609 67.8801 88.8664 70.498 87.1844C74.0471 84.9017 80.8087 86.6761 80.0892 87.0998Z" fill="black" fill-opacity="0.1"/>
<path d="M54.6171 87.8107C51.535 89.6277 51.7558 93.36 49.5964 95.0441C47.9711 96.3116 45.678 95.6697 44.352 95.1244C44.352 95.1244 43.4534 96.264 42.8089 97.7832C42.5931 98.2929 41.6456 97.7313 41.8119 97.2998C43.919 91.8365 51.0879 89.1109 51.0879 89.1109C51.0879 89.1109 46.0296 88.8955 42.6489 93.3336C42.5584 92.3199 42.4084 89.5773 45.0263 87.8953C48.5754 85.6126 55.3367 87.387 54.6171 87.8107Z" fill="black" fill-opacity="0.1"/>
<path d="M116.174 59.3746C113.092 61.1916 113.313 64.9239 111.153 66.608C109.528 67.8755 107.235 67.2336 105.909 66.6883C105.909 66.6883 105.01 67.8279 104.366 69.3471C104.15 69.8568 103.203 69.2952 103.369 68.8637C105.476 63.4004 112.645 60.6748 112.645 60.6748C112.645 60.6748 107.587 60.4594 104.206 64.8976C104.115 63.8838 103.965 61.1412 106.583 59.4592C110.132 57.1765 116.894 58.9509 116.174 59.3746Z" fill="black" fill-opacity="0.1"/>
<path d="M5.00005 67.5592L12.9501 70.9101C33.8354 79.7128 57.4133 79.4519 78.1009 70.1893C95.2554 62.5079 114.514 60.9713 132.661 65.836L155 71.8246L154.292 155H5.70759L5.00005 67.5592Z" fill="#3077FF"/>
</g>
</g>
<defs>
<clipPath id="clip0_1_64">
<rect width="150" height="150" fill="white" transform="translate(5 5)"/>
</clipPath>
</defs>
</svg>
