<svg width="160" height="160" viewBox="0 0 160 160" fill="none" xmlns="http://www.w3.org/2000/svg">
<mask id="mask0_1_64" style="mask-type:luminance" maskUnits="userSpaceOnUse" x="0" y="0" width="160" height="160">
<path d="M160 0H0V160H160V0Z" fill="white"/>
</mask>
<g mask="url(#mask0_1_64)">
<path d="M1.78571 79.2857C1.78571 58.542 10.7404 39.3621 25.4084 24.6941C40.0764 10.0261 59.9706 1.78571 80.7143 1.78571C101.458 1.78571 121.352 10.0261 136.02 24.6941C150.688 39.3621 158.214 58.542 158.214 79.2857" stroke="#890600" stroke-width="5"/>
<path d="M158.214 80C158.214 100.744 149.974 120.638 135.306 135.306C120.638 149.974 100.744 158.214 80 158.214C59.2563 158.214 39.3621 149.974 24.6941 135.306C10.0261 120.638 1.78571 100.744 1.78571 80" stroke="#3077FF" stroke-width="5"/>
<mask id="mask1_1_64" style="mask-type:luminance" maskUnits="userSpaceOnUse" x="4" y="4" width="152" height="151">
<path d="M155.714 4.28571H4.28571V155H155.714V4.28571Z" fill="white"/>
</mask>
<g mask="url(#mask1_1_64)">
<mask id="mask2_1_64" style="mask-type:luminance" maskUnits="userSpaceOnUse" x="4" y="4" width="152" height="151">
<path d="M155.276 79.7629C155.276 38.2385 121.614 4.57655 80.0893 4.57655C38.5653 4.57655 4.90343 38.2385 4.90343 79.7629C4.90343 121.286 38.5653 154.949 80.0893 154.949C121.614 154.949 155.276 121.286 155.276 79.7629Z" fill="white"/>
</mask>
<g mask="url(#mask2_1_64)">
<path d="M80.089 154.949C121.613 154.949 155.275 121.287 155.275 79.7628C155.275 38.2385 121.613 4.57639 80.089 4.57639C38.5648 4.57639 4.90262 38.2385 4.90262 79.7628C4.90262 121.287 38.5648 154.949 80.089 154.949Z" fill="#A1E9FF"/>
<path d="M4.90349 93.4922L9.36187 94.9179C32.7997 102.413 57.9664 102.578 81.5007 95.3907C97.0086 90.655 113.311 89.0864 129.437 90.78L155.276 93.4922V154.949H4.90349V93.4922Z" fill="#3077FF"/>
<path d="M135.804 34.6335C132.693 36.4592 132.916 40.2092 130.736 41.9014C129.095 43.1749 126.78 42.5299 125.441 41.9821C125.441 41.9821 124.534 43.1271 123.884 44.6535C123.666 45.1656 122.709 44.6014 122.877 44.1678C125.004 38.6785 132.241 35.9399 132.241 35.9399C132.241 35.9399 127.135 35.7235 123.722 40.1828C123.631 39.1642 123.479 36.4085 126.122 34.7185C129.705 32.4249 136.531 34.2078 135.804 34.6335Z" fill="black" fill-opacity="0.1"/>
<path d="M112.947 23.2049C109.836 25.0307 110.059 28.7807 107.879 30.4728C106.238 31.7464 103.923 31.1014 102.584 30.5535C102.584 30.5535 101.677 31.6985 101.026 33.2249C100.809 33.7371 99.8521 33.1728 100.02 32.7392C102.147 27.2499 109.384 24.5114 109.384 24.5114C109.384 24.5114 104.278 24.2949 100.865 28.7542C100.774 27.7357 100.622 24.9799 103.265 23.2899C106.848 20.9964 113.674 22.7792 112.947 23.2049Z" fill="black" fill-opacity="0.1"/>
<path d="M92.9471 17.4906C89.8357 19.3164 90.0586 23.0664 87.8786 24.7585C86.2379 26.0321 83.9229 25.3871 82.5843 24.8392C82.5843 24.8392 81.6771 25.9842 81.0264 27.5106C80.8086 28.0228 79.8521 27.4585 80.02 27.0249C82.1471 21.5356 89.3843 18.7971 89.3843 18.7971C89.3843 18.7971 84.2779 18.5807 80.865 23.0399C80.7736 22.0214 80.6221 19.2656 83.265 17.5756C86.8479 15.2821 93.6736 17.0649 92.9471 17.4906Z" fill="black" fill-opacity="0.1"/>
<path d="M75.09 23.2049C71.9786 25.0307 72.2014 28.7807 70.0211 30.4728C68.3804 31.7464 66.0654 31.1014 64.7268 30.5535C64.7268 30.5535 63.8197 31.6985 63.1689 33.2249C62.9511 33.7371 61.9946 33.1728 62.1625 32.7392C64.2896 27.2499 71.5264 24.5114 71.5264 24.5114C71.5264 24.5114 66.4204 24.2949 63.0075 28.7542C62.9161 27.7357 62.7647 24.9799 65.4075 23.2899C68.9904 20.9964 75.8164 22.7792 75.09 23.2049Z" fill="black" fill-opacity="0.1"/>
<path d="M57.9468 34.6335C54.8354 36.4592 55.0582 40.2092 52.8782 41.9014C51.2375 43.1749 48.9225 42.5299 47.5839 41.9821C47.5839 41.9821 46.6768 43.1271 46.0261 44.6535C45.8082 45.1656 44.8518 44.6014 45.0196 44.1678C47.1468 38.6785 54.3839 35.9399 54.3839 35.9399C54.3839 35.9399 49.2775 35.7235 45.8646 40.1828C45.7732 39.1642 45.6218 36.4085 48.2646 34.7185C51.8475 32.4249 58.6732 34.2078 57.9468 34.6335Z" fill="black" fill-opacity="0.1"/>
<path d="M57.9468 25.3478C54.8354 27.1735 55.0582 30.9235 52.8782 32.6156C51.2375 33.8892 48.9225 33.2442 47.5839 32.6964C47.5839 32.6964 46.6768 33.8414 46.0261 35.3678C45.8082 35.8799 44.8518 35.3156 45.0196 34.8821C47.1468 29.3928 54.3839 26.6542 54.3839 26.6542C54.3839 26.6542 49.2775 26.4378 45.8646 30.8971C45.7732 29.8785 45.6218 27.1228 48.2646 25.4328C51.8475 23.1392 58.6732 24.9221 57.9468 25.3478Z" fill="black" fill-opacity="0.1"/>
<path d="M85.8043 28.9192C82.6928 30.7449 82.9157 34.4949 80.7357 36.1871C79.095 37.4606 76.78 36.8156 75.4414 36.2678C75.4414 36.2678 74.5343 37.4128 73.8836 38.9392C73.6657 39.4514 72.7086 38.8871 72.8764 38.4535C75.0036 32.9642 82.2414 30.2256 82.2414 30.2256C82.2414 30.2256 77.135 30.0092 73.7221 34.4685C73.6307 33.4499 73.4793 30.6942 76.1221 29.0042C79.705 26.7106 86.5307 28.4935 85.8043 28.9192Z" fill="black" fill-opacity="0.1"/>
<path d="M127.947 44.6335C124.836 46.4592 125.059 50.2092 122.879 51.9014C121.238 53.1749 118.923 52.5299 117.584 51.9821C117.584 51.9821 116.677 53.1271 116.026 54.6535C115.809 55.1656 114.852 54.6014 115.02 54.1678C117.147 48.6785 124.384 45.9399 124.384 45.9399C124.384 45.9399 119.278 45.7235 115.865 50.1828C115.774 49.1642 115.622 46.4085 118.265 44.7185C121.848 42.4249 128.674 44.2078 127.947 44.6335Z" fill="black" fill-opacity="0.1"/>
<path d="M36.5182 61.7764C33.4068 63.6021 33.6296 67.3521 31.4496 69.0442C29.8089 70.3178 27.4939 69.6728 26.1554 69.1249C26.1554 69.1249 25.2482 70.2699 24.5975 71.7964C24.3796 72.3086 23.4232 71.7443 23.5911 71.3106C25.7182 65.8214 32.9554 63.0828 32.9554 63.0828C32.9554 63.0828 27.8489 62.8664 24.4361 67.3256C24.3446 66.3071 24.1932 63.5514 26.8361 61.8614C30.4189 59.5678 37.2446 61.3506 36.5182 61.7764Z" fill="black" fill-opacity="0.1"/>
<path d="M64.3754 78.205C61.2639 80.0307 61.4868 83.7807 59.3068 85.4729C57.6661 86.7464 55.3511 86.1014 54.0125 85.5536C54.0125 85.5536 53.1054 86.6986 52.4546 88.225C52.2368 88.7371 51.2804 88.1729 51.4482 87.7393C53.5754 82.25 60.8125 79.5114 60.8125 79.5114C60.8125 79.5114 55.7061 79.295 52.2932 83.7543C52.2018 82.7357 52.0504 79.98 54.6932 78.29C58.2761 75.9964 65.1018 77.7793 64.3754 78.205Z" fill="black" fill-opacity="0.1"/>
<path d="M81.5186 56.0621C78.4071 57.8878 78.63 61.6378 76.45 63.3299C74.8093 64.6035 72.4943 63.9585 71.1554 63.4106C71.1554 63.4106 70.2482 64.5556 69.5975 66.0821C69.3796 66.5942 68.4232 66.0299 68.5911 65.5964C70.7182 60.1071 77.9557 57.3685 77.9557 57.3685C77.9557 57.3685 72.8493 57.1521 69.4361 61.6114C69.3446 60.5928 69.1932 57.8371 71.8364 56.1471C75.4193 53.8535 82.245 55.6364 81.5186 56.0621Z" fill="black" fill-opacity="0.1"/>
<path d="M68.6611 56.0621C65.5497 57.8878 65.7725 61.6378 63.5925 63.3299C61.9518 64.6035 59.6368 63.9585 58.2982 63.4106C58.2982 63.4106 57.3911 64.5556 56.7404 66.0821C56.5225 66.5942 55.5661 66.0299 55.7339 65.5964C57.8611 60.1071 65.0982 57.3685 65.0982 57.3685C65.0982 57.3685 59.9918 57.1521 56.5789 61.6114C56.4875 60.5928 56.3361 57.8371 58.9789 56.1471C62.5618 53.8535 69.3875 55.6364 68.6611 56.0621Z" fill="black" fill-opacity="0.1"/>
<path d="M80.09 40.3478C76.9786 42.1735 77.2014 45.9235 75.0214 47.6156C73.3807 48.8892 71.0654 48.2442 69.7268 47.6964C69.7268 47.6964 68.8197 48.8414 68.1689 50.3678C67.9511 50.8799 66.9946 50.3156 67.1625 49.8821C69.2896 44.3928 76.5272 41.6542 76.5272 41.6542C76.5272 41.6542 71.4204 41.4378 68.0075 45.8971C67.9161 44.8785 67.7647 42.1228 70.4075 40.4328C73.9907 38.1392 80.8164 39.9221 80.09 40.3478Z" fill="black" fill-opacity="0.1"/>
<path d="M102.947 53.2049C99.8357 55.0306 100.059 58.7807 97.8786 60.4728C96.2379 61.7464 93.9229 61.1014 92.5843 60.5535C92.5843 60.5535 91.6771 61.6985 91.0264 63.2249C90.8086 63.7371 89.8521 63.1728 90.02 62.7392C92.1471 57.2499 99.3843 54.5114 99.3843 54.5114C99.3843 54.5114 94.2779 54.2949 90.865 58.7542C90.7736 57.7356 90.6221 54.9799 93.265 53.2899C96.8479 50.9964 103.674 52.7792 102.947 53.2049Z" fill="black" fill-opacity="0.1"/>
<path d="M105.804 73.205C102.693 75.0307 102.916 78.7807 100.736 80.4729C99.095 81.7464 96.78 81.1014 95.4414 80.5536C95.4414 80.5536 94.5343 81.6986 93.8836 83.225C93.6657 83.7371 92.7093 83.1729 92.8771 82.7393C95.0043 77.25 102.241 74.5114 102.241 74.5114C102.241 74.5114 97.135 74.295 93.7221 78.7543C93.6307 77.7357 93.4793 74.98 96.1221 73.29C99.705 70.9964 106.531 72.7793 105.804 73.205Z" fill="black" fill-opacity="0.1"/>
<path d="M129.376 72.4907C126.264 74.3164 126.487 78.0664 124.307 79.7586C122.666 81.0322 120.351 80.3872 119.013 79.8393C119.013 79.8393 118.106 80.9843 117.455 82.5107C117.237 83.0229 116.281 82.4586 116.449 82.025C118.576 76.5357 125.813 73.7972 125.813 73.7972C125.813 73.7972 120.706 73.5807 117.294 78.04C117.202 77.0214 117.051 74.2657 119.694 72.5757C123.276 70.2821 130.102 72.065 129.376 72.4907Z" fill="black" fill-opacity="0.1"/>
<path d="M129.376 56.0621C126.264 57.8878 126.487 61.6378 124.307 63.3299C122.666 64.6035 120.351 63.9585 119.013 63.4106C119.013 63.4106 118.106 64.5556 117.455 66.0821C117.237 66.5942 116.281 66.0299 116.449 65.5964C118.576 60.1071 125.813 57.3685 125.813 57.3685C125.813 57.3685 120.706 57.1521 117.294 61.6114C117.202 60.5928 117.051 57.8371 119.694 56.1471C123.276 53.8535 130.102 55.6364 129.376 56.0621Z" fill="black" fill-opacity="0.1"/>
<path d="M115.804 44.6335C112.693 46.4592 112.916 50.2092 110.736 51.9014C109.095 53.1749 106.78 52.5299 105.441 51.9821C105.441 51.9821 104.534 53.1271 103.884 54.6535C103.666 55.1656 102.709 54.6014 102.877 54.1678C105.004 48.6785 112.241 45.9399 112.241 45.9399C112.241 45.9399 107.135 45.7235 103.722 50.1828C103.631 49.1642 103.479 46.4085 106.122 44.7185C109.705 42.4249 116.531 44.2078 115.804 44.6335Z" fill="black" fill-opacity="0.1"/>
<path d="M97.2329 34.6335C94.1214 36.4592 94.3443 40.2092 92.1643 41.9014C90.5236 43.1749 88.2086 42.5299 86.87 41.9821C86.87 41.9821 85.9629 43.1271 85.3121 44.6535C85.0943 45.1656 84.1379 44.6014 84.3057 44.1678C86.4329 38.6785 93.67 35.9399 93.67 35.9399C93.67 35.9399 88.5636 35.7235 85.1507 40.1828C85.0593 39.1642 84.9079 36.4085 87.5507 34.7185C91.1336 32.4249 97.9593 34.2078 97.2329 34.6335Z" fill="black" fill-opacity="0.1"/>
<path d="M55.8039 47.4906C52.6925 49.3164 52.9153 53.0664 50.7353 54.7585C49.0946 56.0321 46.7796 55.3871 45.4411 54.8392C45.4411 54.8392 44.5339 55.9842 43.8832 57.5106C43.6653 58.0228 42.7089 57.4585 42.8768 57.0249C45.0039 51.5356 52.2411 48.7971 52.2411 48.7971C52.2411 48.7971 47.1346 48.5806 43.7218 53.0399C43.6303 52.0214 43.4789 49.2657 46.1218 47.5757C49.7046 45.2821 56.5303 47.0649 55.8039 47.4906Z" fill="black" fill-opacity="0.1"/>
<path d="M45.8039 51.7764C42.6925 53.6021 42.9153 57.3521 40.7353 59.0442C39.0946 60.3178 36.7796 59.6728 35.4411 59.1249C35.4411 59.1249 34.5339 60.2699 33.8832 61.7964C33.6653 62.3085 32.7089 61.7442 32.8768 61.3106C35.0039 55.8214 42.2411 53.0828 42.2411 53.0828C42.2411 53.0828 37.1346 52.8664 33.7218 57.3256C33.6303 56.3071 33.4789 53.5514 36.1218 51.8614C39.7046 49.5678 46.5303 51.3506 45.8039 51.7764Z" fill="black" fill-opacity="0.1"/>
<path d="M55.0897 60.3478C51.9782 62.1735 52.2011 65.9235 50.0211 67.6157C48.3804 68.8892 46.0654 68.2442 44.7268 67.6964C44.7268 67.6964 43.8196 68.8414 43.1689 70.3678C42.9511 70.8799 41.9946 70.3157 42.1625 69.8821C44.2896 64.3928 51.5268 61.6542 51.5268 61.6542C51.5268 61.6542 46.4204 61.4378 43.0075 65.8971C42.9161 64.8785 42.7646 62.1228 45.4075 60.4328C48.9904 58.1392 55.8161 59.9221 55.0897 60.3478Z" fill="black" fill-opacity="0.1"/>
<path d="M39.3753 41.7764C36.2639 43.6021 36.4868 47.3521 34.3068 49.0442C32.6661 50.3178 30.3511 49.6728 29.0125 49.1249C29.0125 49.1249 28.1053 50.2699 27.4546 51.7964C27.2368 52.3085 26.2803 51.7442 26.4482 51.3106C28.5753 45.8214 35.8125 43.0828 35.8125 43.0828C35.8125 43.0828 30.7061 42.8664 27.2932 47.3256C27.2018 46.3071 27.0503 43.5514 29.6932 41.8614C33.2761 39.5678 40.1018 41.3506 39.3753 41.7764Z" fill="black" fill-opacity="0.1"/>
<path d="M23.6611 78.205C20.5496 80.0307 20.7725 83.7807 18.5925 85.4729C16.9518 86.7464 14.6368 86.1014 13.2982 85.5536C13.2982 85.5536 12.3911 86.6986 11.7404 88.225C11.5225 88.7371 10.5661 88.1729 10.7339 87.7393C12.8611 82.25 20.0982 79.5114 20.0982 79.5114C20.0982 79.5114 14.9918 79.295 11.5789 83.7543C11.4875 82.7357 11.3361 79.98 13.9789 78.29C17.5618 75.9964 24.3875 77.7793 23.6611 78.205Z" fill="black" fill-opacity="0.1"/>
<path d="M42.9468 81.7764C39.8354 83.6022 40.0582 87.3522 37.8782 89.0443C36.2375 90.3179 33.9225 89.6729 32.5839 89.125C32.5839 89.125 31.6768 90.27 31.0261 91.7964C30.8082 92.3086 29.8518 91.7443 30.0196 91.3107C32.1468 85.8214 39.3839 83.0829 39.3839 83.0829C39.3839 83.0829 34.2775 82.8664 30.8646 87.3257C30.7732 86.3071 30.6218 83.5514 33.2646 81.8614C36.8475 79.5679 43.6732 81.3507 42.9468 81.7764Z" fill="black" fill-opacity="0.1"/>
<path d="M42.9468 23.2049C39.8354 25.0307 40.0582 28.7807 37.8782 30.4728C36.2375 31.7464 33.9225 31.1014 32.5839 30.5535C32.5839 30.5535 31.6768 31.6985 31.0261 33.2249C30.8082 33.7371 29.8518 33.1728 30.0196 32.7392C32.1468 27.2499 39.3839 24.5114 39.3839 24.5114C39.3839 24.5114 34.2775 24.2949 30.8646 28.7542C30.7732 27.7357 30.6218 24.9799 33.2646 23.2899C36.8475 20.9964 43.6732 22.7792 42.9468 23.2049Z" fill="black" fill-opacity="0.1"/>
<path d="M64.3754 12.4906C61.2639 14.3164 61.4868 18.0664 59.3068 19.7585C57.6661 21.0321 55.3511 20.3871 54.0125 19.8392C54.0125 19.8392 53.1054 20.9842 52.4546 22.5106C52.2368 23.0228 51.2804 22.4585 51.4482 22.0249C53.5754 16.5356 60.8125 13.7971 60.8125 13.7971C60.8125 13.7971 55.7061 13.5806 52.2932 18.0399C52.2018 17.0214 52.0504 14.2656 54.6932 12.5756C58.2761 10.2821 65.1018 12.0649 64.3754 12.4906Z" fill="black" fill-opacity="0.1"/>
<path d="M105.804 12.4906C102.693 14.3164 102.916 18.0664 100.736 19.7585C99.095 21.0321 96.78 20.3871 95.4414 19.8392C95.4414 19.8392 94.5343 20.9842 93.8836 22.5106C93.6657 23.0228 92.7093 22.4585 92.8771 22.0249C95.0043 16.5356 102.241 13.7971 102.241 13.7971C102.241 13.7971 97.135 13.5806 93.7221 18.0399C93.6307 17.0214 93.4793 14.2656 96.1221 12.5756C99.705 10.2821 106.531 12.0649 105.804 12.4906Z" fill="black" fill-opacity="0.1"/>
<path d="M80.09 73.205C76.9786 75.0307 77.2014 78.7807 75.0214 80.4729C73.3807 81.7464 71.0654 81.1014 69.7268 80.5536C69.7268 80.5536 68.8197 81.6986 68.1689 83.225C67.9511 83.7371 66.9946 83.1729 67.1625 82.7393C69.2896 77.25 76.5272 74.5114 76.5272 74.5114C76.5272 74.5114 71.4204 74.295 68.0075 78.7543C67.9161 77.7357 67.7647 74.98 70.4075 73.29C73.9907 70.9964 80.8164 72.7793 80.09 73.205Z" fill="black" fill-opacity="0.1"/>
<path d="M148.661 67.4906C145.55 69.3164 145.773 73.0664 143.593 74.7586C141.952 76.0321 139.637 75.3871 138.299 74.8393C138.299 74.8393 137.391 75.9843 136.741 77.5107C136.523 78.0229 135.566 77.4586 135.734 77.025C137.861 71.5357 145.099 68.7971 145.099 68.7971C145.099 68.7971 139.992 68.5806 136.579 73.04C136.488 72.0214 136.336 69.2657 138.979 67.5757C142.562 65.2821 149.388 67.0649 148.661 67.4906Z" fill="black" fill-opacity="0.1"/>
<path d="M51.5182 67.4906C48.4068 69.3164 48.6296 73.0664 46.4496 74.7586C44.8089 76.0321 42.4939 75.3871 41.1553 74.8393C41.1553 74.8393 40.2482 75.9843 39.5975 77.5107C39.3796 78.0229 38.4232 77.4586 38.5911 77.025C40.7182 71.5357 47.9553 68.7971 47.9553 68.7971C47.9553 68.7971 42.8489 68.5806 39.4361 73.04C39.3446 72.0214 39.1932 69.2657 41.8361 67.5757C45.4189 65.2821 52.2446 67.0649 51.5182 67.4906Z" fill="black" fill-opacity="0.1"/>
<path d="M94.3757 64.6335C91.2643 66.4592 91.4871 70.2092 89.3071 71.9014C87.6664 73.175 85.3514 72.53 84.0129 71.9821C84.0129 71.9821 83.1057 73.1271 82.455 74.6536C82.2371 75.1657 81.2807 74.6014 81.4486 74.1679C83.5757 68.6785 90.8129 65.9399 90.8129 65.9399C90.8129 65.9399 85.7064 65.7235 82.2936 70.1828C82.2021 69.1642 82.0507 66.4085 84.6936 64.7185C88.2764 62.4249 95.1021 64.2078 94.3757 64.6335Z" fill="black" fill-opacity="0.1"/>
<path d="M145.09 78.9193C141.979 80.745 142.201 84.495 140.021 86.1871C138.381 87.4607 136.066 86.8157 134.727 86.2679C134.727 86.2679 133.82 87.4129 133.169 88.9393C132.951 89.4514 131.995 88.8871 132.163 88.4536C134.29 82.9643 141.527 80.2257 141.527 80.2257C141.527 80.2257 136.421 80.0093 133.008 84.4686C132.916 83.45 132.765 80.6943 135.408 79.0043C138.991 76.7107 145.816 78.4936 145.09 78.9193Z" fill="black" fill-opacity="0.1"/>
<path d="M141.519 47.4906C138.407 49.3164 138.63 53.0664 136.45 54.7585C134.809 56.0321 132.494 55.3871 131.156 54.8392C131.156 54.8392 130.249 55.9842 129.598 57.5106C129.38 58.0228 128.424 57.4585 128.591 57.0249C130.719 51.5356 137.956 48.7971 137.956 48.7971C137.956 48.7971 132.849 48.5806 129.436 53.0399C129.345 52.0214 129.194 49.2657 131.836 47.5757C135.419 45.2821 142.245 47.0649 141.519 47.4906Z" fill="black" fill-opacity="0.1"/>
<path d="M130.09 24.6335C126.979 26.4592 127.201 30.2092 125.021 31.9014C123.381 33.1749 121.066 32.5299 119.727 31.9821C119.727 31.9821 118.82 33.1271 118.169 34.6535C117.951 35.1656 116.995 34.6014 117.163 34.1678C119.29 28.6785 126.527 25.9399 126.527 25.9399C126.527 25.9399 121.421 25.7235 118.008 30.1828C117.916 29.1642 117.765 26.4085 120.408 24.7185C123.991 22.4249 130.816 24.2078 130.09 24.6335Z" fill="black" fill-opacity="0.1"/>
<path d="M113.661 34.6335C110.55 36.4592 110.773 40.2092 108.593 41.9014C106.952 43.1749 104.637 42.5299 103.299 41.9821C103.299 41.9821 102.391 43.1271 101.741 44.6535C101.523 45.1656 100.566 44.6014 100.734 44.1678C102.861 38.6785 110.099 35.9399 110.099 35.9399C110.099 35.9399 104.992 35.7235 101.579 40.1828C101.488 39.1642 101.336 36.4085 103.979 34.7185C107.562 32.4249 114.388 34.2078 113.661 34.6335Z" fill="black" fill-opacity="0.1"/>
<path d="M26.5182 51.7764C23.4068 53.6021 23.6296 57.3521 21.4496 59.0442C19.8089 60.3178 17.4939 59.6728 16.1554 59.1249C16.1554 59.1249 15.2482 60.2699 14.5975 61.7964C14.3796 62.3085 13.4232 61.7442 13.5911 61.3106C15.7182 55.8214 22.9554 53.0828 22.9554 53.0828C22.9554 53.0828 17.8489 52.8664 14.4361 57.3256C14.3446 56.3071 14.1932 53.5514 16.8361 51.8614C20.4189 49.5678 27.2446 51.3506 26.5182 51.7764Z" fill="black" fill-opacity="0.1"/>
<path d="M21.5182 63.2049C18.4068 65.0306 18.6296 68.7806 16.4496 70.4728C14.8089 71.7464 12.4939 71.1014 11.1554 70.5535C11.1554 70.5535 10.2482 71.6986 9.59749 73.225C9.37964 73.7371 8.42321 73.1729 8.59106 72.7393C10.7182 67.2499 17.9554 64.5114 17.9554 64.5114C17.9554 64.5114 12.8489 64.2949 9.43606 68.7542C9.34464 67.7356 9.19321 64.9799 11.8361 63.2899C15.4189 60.9964 22.2446 62.7792 21.5182 63.2049Z" fill="black" fill-opacity="0.1"/>
<path d="M67.2325 67.4906C64.1211 69.3164 64.3439 73.0664 62.1639 74.7586C60.5232 76.0321 58.2082 75.3871 56.8696 74.8393C56.8696 74.8393 55.9625 75.9843 55.3118 77.5107C55.0939 78.0229 54.1375 77.4586 54.3054 77.025C56.4325 71.5357 63.6696 68.7971 63.6696 68.7971C63.6696 68.7971 58.5632 68.5806 55.1504 73.04C55.0589 72.0214 54.9075 69.2657 57.5504 67.5757C61.1332 65.2821 67.9589 67.0649 67.2325 67.4906Z" fill="black" fill-opacity="0.1"/>
<path d="M80.09 7.49064C76.9786 9.31636 77.2014 13.0664 75.0214 14.7585C73.3807 16.0321 71.0654 15.3871 69.7268 14.8392C69.7268 14.8392 68.8197 15.9842 68.1689 17.5106C67.9511 18.0228 66.9946 17.4585 67.1625 17.0249C69.2896 11.5356 76.5272 8.79707 76.5272 8.79707C76.5272 8.79707 71.4204 8.58064 68.0075 13.0399C67.9161 12.0214 67.7647 9.26564 70.4075 7.57564C73.9907 5.28206 80.8164 7.06492 80.09 7.49064Z" fill="black" fill-opacity="0.1"/>
<path d="M70.8039 38.9192C67.6925 40.7449 67.9153 44.4949 65.7353 46.1871C64.0946 47.4606 61.7796 46.8156 60.4411 46.2678C60.4411 46.2678 59.5339 47.4128 58.8832 48.9392C58.6653 49.4514 57.7089 48.8871 57.8768 48.4535C60.0039 42.9642 67.2411 40.2256 67.2411 40.2256C67.2411 40.2256 62.1346 40.0092 58.7218 44.4685C58.6303 43.4499 58.4789 40.6942 61.1218 39.0042C64.7046 36.7106 71.5307 38.4935 70.8039 38.9192Z" fill="black" fill-opacity="0.1"/>
<path d="M92.9471 48.2049C89.8357 50.0306 90.0586 53.7806 87.8786 55.4728C86.2379 56.7464 83.9229 56.1014 82.5843 55.5535C82.5843 55.5535 81.6771 56.6985 81.0264 58.2249C80.8086 58.7371 79.8521 58.1728 80.02 57.7392C82.1471 52.2499 89.3843 49.5114 89.3843 49.5114C89.3843 49.5114 84.2779 49.2949 80.865 53.7542C80.7736 52.7356 80.6221 49.9799 83.265 48.2899C86.8479 45.9964 93.6736 47.7792 92.9471 48.2049Z" fill="black" fill-opacity="0.1"/>
<path d="M121.519 78.205C118.407 80.0307 118.63 83.7807 116.45 85.4729C114.809 86.7464 112.494 86.1014 111.156 85.5536C111.156 85.5536 110.249 86.6986 109.598 88.225C109.38 88.7371 108.424 88.1729 108.591 87.7393C110.719 82.25 117.956 79.5114 117.956 79.5114C117.956 79.5114 112.849 79.295 109.436 83.7543C109.345 82.7357 109.194 79.98 111.836 78.29C115.419 75.9964 122.245 77.7793 121.519 78.205Z" fill="black" fill-opacity="0.1"/>
<path d="M80.09 86.7764C76.9786 88.6022 77.2014 92.3522 75.0214 94.0443C73.3807 95.3179 71.0654 94.6729 69.7268 94.125C69.7268 94.125 68.8197 95.27 68.1689 96.7964C67.9511 97.3086 66.9946 96.7443 67.1625 96.3107C69.2896 90.8214 76.5272 88.0829 76.5272 88.0829C76.5272 88.0829 71.4204 87.8664 68.0075 92.3257C67.9161 91.3071 67.7647 88.5514 70.4075 86.8614C73.9907 84.5679 80.8164 86.3507 80.09 86.7764Z" fill="black" fill-opacity="0.1"/>
<path d="M54.3754 87.4907C51.2639 89.3164 51.4868 93.0664 49.3068 94.7586C47.6661 96.0321 45.3511 95.3871 44.0125 94.8393C44.0125 94.8393 43.1054 95.9843 42.4546 97.5107C42.2368 98.0229 41.2804 97.4586 41.4482 97.025C43.5754 91.5357 50.8125 88.7971 50.8125 88.7971C50.8125 88.7971 45.7061 88.5807 42.2932 93.04C42.2018 92.0214 42.0504 89.2657 44.6932 87.5757C48.2761 85.2821 55.1018 87.065 54.3754 87.4907Z" fill="black" fill-opacity="0.1"/>
<path d="M116.519 58.9192C113.407 60.7449 113.63 64.4949 111.45 66.1871C109.809 67.4607 107.494 66.8157 106.156 66.2678C106.156 66.2678 105.249 67.4128 104.598 68.9392C104.38 69.4514 103.424 68.8871 103.591 68.4535C105.719 62.9642 112.956 60.2257 112.956 60.2257C112.956 60.2257 107.849 60.0092 104.436 64.4685C104.345 63.4499 104.194 60.6942 106.836 59.0042C110.419 56.7107 117.245 58.4935 116.519 58.9192Z" fill="black" fill-opacity="0.1"/>
</g>
</g>
</g>
</svg>
