<svg width="42" height="30" viewBox="0 0 42 30" fill="none" xmlns="http://www.w3.org/2000/svg">
<path fill-rule="evenodd" clip-rule="evenodd" d="M21.0001 29.9999C32.508 29.9999 41.9999 25.013 41.9999 18.4614C41.9999 11.9099 32.508 6.92297 21.0001 6.92297C9.49226 6.92297 0.000366211 11.9099 0.000366211 18.4614C0.000366211 25.013 9.49226 29.9999 21.0001 29.9999ZM21.0001 9.23067C31.3246 9.23067 39.5294 13.5414 39.5294 18.4614C39.5294 23.3814 31.3246 27.6922 21.0001 27.6922C10.6757 27.6922 2.47093 23.3814 2.47093 18.4614C2.47093 13.5414 10.6757 9.23067 21.0001 9.23067Z" fill="#3077FF"/>
<path d="M19.7647 1.15385C19.7647 0.847827 19.8949 0.554342 20.1265 0.337954C20.3582 0.121566 20.6724 0 21 0C21.3276 0 21.6418 0.121566 21.8735 0.337954C22.1051 0.554342 22.2353 0.847827 22.2353 1.15385V8.07692C22.2353 8.38294 22.1051 8.67643 21.8735 8.89282C21.6418 9.1092 21.3276 9.23077 21 9.23077C20.6724 9.23077 20.3582 9.1092 20.1265 8.89282C19.8949 8.67643 19.7647 8.38294 19.7647 8.07692V1.15385ZM29.6717 2.08154C29.7453 1.7904 29.937 1.53732 30.2065 1.3757C30.476 1.21407 30.8021 1.15652 31.1162 1.21518C31.4302 1.27385 31.7076 1.44415 31.8898 1.69016C32.072 1.93617 32.1448 2.23867 32.0928 2.53385L30.8575 8.30308C30.784 8.59422 30.5922 8.84729 30.3227 9.00892C30.0532 9.17055 29.7271 9.2281 29.413 9.16943C29.099 9.11076 28.8216 8.94047 28.6394 8.69446C28.4572 8.44844 28.3844 8.14595 28.4364 7.85077L29.6717 2.08154ZM12.3283 2.08154C12.2548 1.7904 12.063 1.53732 11.7935 1.3757C11.524 1.21407 11.1979 1.15652 10.8838 1.21518C10.5698 1.27385 10.2924 1.44415 10.1102 1.69016C9.92801 1.93617 9.85522 2.23867 9.90718 2.53385L11.1425 8.30308C11.216 8.59422 11.4078 8.84729 11.6773 9.00892C11.9468 9.17055 12.2729 9.2281 12.587 9.16943C12.901 9.11076 13.1784 8.94047 13.3606 8.69446C13.5428 8.44844 13.6156 8.14595 13.5636 7.85077L12.3283 2.08154ZM2.29538 5.17615C2.12698 4.91359 1.85382 4.72426 1.53598 4.64983C1.21814 4.57539 0.881668 4.62194 0.600573 4.77923C0.319477 4.93652 0.11679 5.19168 0.0370986 5.48856C-0.0425925 5.78545 0.00724077 6.09974 0.175636 6.36231L3.88148 12.1315C4.04987 12.3941 4.32304 12.5834 4.64087 12.6579C4.95871 12.7323 5.29519 12.6858 5.57628 12.5285C5.85738 12.3712 6.06007 12.116 6.13976 11.8191C6.21945 11.5222 6.16962 11.2079 6.00122 10.9454L2.29538 5.17615ZM39.7046 5.17615C39.788 5.04615 39.898 4.93275 40.0283 4.84244C40.1586 4.75213 40.3066 4.68668 40.464 4.64983C40.6214 4.61297 40.785 4.60543 40.9455 4.62763C41.106 4.64983 41.2603 4.70135 41.3994 4.77923C41.5386 4.85711 41.66 4.95984 41.7567 5.08155C41.8534 5.20326 41.9234 5.34156 41.9629 5.48856C42.0024 5.63557 42.0104 5.78839 41.9867 5.93831C41.9629 6.08822 41.9078 6.2323 41.8244 6.36231L38.1185 12.1315C38.0351 12.2615 37.9252 12.3749 37.7949 12.4653C37.6646 12.5556 37.5165 12.621 37.3591 12.6579C37.2018 12.6947 37.0381 12.7023 36.8777 12.6801C36.7172 12.6579 36.5629 12.6063 36.4237 12.5285C36.2845 12.4506 36.1631 12.3478 36.0665 12.2261C35.9698 12.1044 35.8997 11.9661 35.8602 11.8191C35.8208 11.6721 35.8127 11.5193 35.8365 11.3694C35.8603 11.2195 35.9154 11.0754 35.9988 10.9454L39.7046 5.17615ZM28.4117 17.3077C28.4117 19.1438 27.6308 20.9047 26.2409 22.203C24.8509 23.5014 22.9657 24.2308 21 24.2308C19.0343 24.2308 17.1491 23.5014 15.7591 22.203C14.3692 20.9047 13.5883 19.1438 13.5883 17.3077C13.5883 15.4716 14.3692 13.7107 15.7591 12.4123C17.1491 11.114 19.0343 10.3846 21 10.3846C22.9657 10.3846 24.8509 11.114 26.2409 12.4123C27.6308 13.7107 28.4117 15.4716 28.4117 17.3077Z" fill="#3077FF"/>
</svg>
