<svg width="46" height="19" viewBox="0 0 46 19" fill="none" xmlns="http://www.w3.org/2000/svg">
<path d="M2 1.95557C4.00342 4.38556 6.36355 6.49788 9 8.22057L2 1.95557ZM44 1.95557C41.9966 4.38556 39.6364 6.49788 37 8.22057L44 1.95557ZM18.3333 12.0099L17.1667 17.1222L18.3333 12.0099ZM18.3333 12.0122C21.4162 12.6051 24.5838 12.6051 27.6667 12.0122H18.3333ZM18.3333 12.0122C15.007 11.3614 11.8378 10.0739 9 8.22057L18.3333 12.0122ZM27.6667 12.0099L28.8333 17.1222L27.6667 12.0099ZM27.6667 12.0122C30.993 11.3614 34.1622 10.0739 37 8.22057L27.6667 12.0122ZM37 8.22057L40.5 12.4556L37 8.22057ZM9 8.22057L5.5 12.4556L9 8.22057Z" fill="#A1E9FF"/>
<path d="M2 1.95557C4.00342 4.38556 6.36355 6.49788 9 8.22057M9 8.22057C11.8378 10.0739 15.007 11.3614 18.3333 12.0122C21.4162 12.6051 24.5838 12.6051 27.6667 12.0122C30.993 11.3614 34.1622 10.0739 37 8.22057M9 8.22057L5.5 12.4556M44 1.95557C41.9966 4.38556 39.6364 6.49788 37 8.22057M37 8.22057L40.5 12.4556M18.3333 12.0099L17.1667 17.1222M27.6667 12.0099L28.8333 17.1222" stroke="#A1E9FF" stroke-width="2.17241" stroke-linecap="round" stroke-linejoin="round"/>
</svg>
