<svg width="33" height="33" viewBox="0 0 33 33" fill="none" xmlns="http://www.w3.org/2000/svg">
<path d="M23.4889 4.06909H28.4889C29.373 4.06909 30.2208 4.40849 30.846 5.01264C31.4711 5.61679 31.8223 6.43619 31.8223 7.29058V8.90133M23.4889 29.8411H28.4889C29.373 29.8411 30.2208 29.5017 30.846 28.8975C31.4711 28.2934 31.8223 27.474 31.8223 26.6196V25.0088M11.8239 16.9551H11.8223M31.8223 16.9551H23.4889M23.4889 16.9551L26.8223 13.7336M23.4889 16.9551L26.8223 20.1766M4.19727 28.9197L14.1973 31.8191C14.6951 31.9635 15.2209 31.9934 15.7328 31.9064C16.2447 31.8194 16.7285 31.618 17.1454 31.3181C17.5624 31.0182 17.9011 30.6283 18.1343 30.1794C18.3676 29.7306 18.489 29.2352 18.4889 28.7329V5.17728C18.489 4.67497 18.3676 4.1796 18.1343 3.73072C17.9011 3.28184 17.5624 2.89191 17.1454 2.59205C16.7285 2.29219 16.2447 2.09073 15.7328 2.00375C15.2209 1.91676 14.6951 1.94667 14.1973 2.09109L4.19727 4.99044C3.51063 5.18963 2.90874 5.59746 2.48091 6.1534C2.05308 6.70935 1.82211 7.38378 1.82227 8.07663V25.8335C1.82211 26.5264 2.05308 27.2008 2.48091 27.7568C2.90874 28.3127 3.51063 28.7205 4.19727 28.9197Z" stroke="url(#paint0_linear_72_559)" stroke-width="2" stroke-linecap="round" stroke-linejoin="round"/>
<defs>
<linearGradient id="paint0_linear_72_559" x1="31.8223" y1="7.58841" x2="-0.651225" y2="12.595" gradientUnits="userSpaceOnUse">
<stop offset="0.571875" stop-color="#3076FF"/>
<stop offset="1" stop-color="#0057FF"/>
</linearGradient>
</defs>
</svg>
