<svg width="29" height="29" viewBox="0 0 29 29" fill="none" xmlns="http://www.w3.org/2000/svg">
<path d="M14.5 0C14.1704 0 13.8542 0.130943 13.6212 0.364024C13.3881 0.597105 13.2571 0.913231 13.2571 1.24286C13.2571 1.57248 13.3881 1.88861 13.6212 2.12169C13.8542 2.35477 14.1704 2.48571 14.5 2.48571C16.0777 2.48571 17.64 2.79647 19.0977 3.40025C20.5553 4.00402 21.8798 4.88899 22.9954 6.00462C24.111 7.12025 24.996 8.44469 25.5997 9.90233C26.2035 11.36 26.5143 12.9223 26.5143 14.5C26.5143 16.0777 26.2035 17.64 25.5997 19.0977C24.996 20.5553 24.111 21.8798 22.9954 22.9954C21.8798 24.111 20.5553 24.996 19.0977 25.5998C17.64 26.2035 16.0777 26.5143 14.5 26.5143C14.1704 26.5143 13.8542 26.6452 13.6212 26.8783C13.3881 27.1114 13.2571 27.4275 13.2571 27.7571C13.2571 28.0868 13.3881 28.4029 13.6212 28.636C13.8542 28.8691 14.1704 29 14.5 29C18.3456 29 22.0338 27.4723 24.753 24.753C27.4723 22.0338 29 18.3456 29 14.5C29 10.6544 27.4723 6.96623 24.753 4.24695C22.0338 1.52767 18.3456 0 14.5 0Z" fill="#A1E9FF"/>
<path d="M11.9646 10.4068C11.745 10.1712 11.6255 9.85957 11.6312 9.53758C11.6369 9.2156 11.7673 8.90839 11.995 8.68068C12.2227 8.45296 12.53 8.32253 12.8519 8.31684C13.1739 8.31116 13.4855 8.43068 13.7211 8.65022L18.6926 13.6216C18.9253 13.8547 19.056 14.1706 19.056 14.4999C19.056 14.8293 18.9253 15.1452 18.6926 15.3782L13.7211 20.3496C13.6074 20.4718 13.4701 20.5697 13.3177 20.6376C13.1652 20.7056 13.0007 20.7421 12.8338 20.745C12.6669 20.748 12.5011 20.7173 12.3464 20.6548C12.1916 20.5923 12.051 20.4992 11.933 20.3812C11.815 20.2632 11.722 20.1226 11.6595 19.9678C11.5969 19.8131 11.5662 19.6473 11.5692 19.4804C11.5721 19.3136 11.6087 19.149 11.6766 18.9965C11.7445 18.8441 11.8425 18.7069 11.9646 18.5931L14.8149 15.7428H1.24286C0.913231 15.7428 0.597105 15.6118 0.364024 15.3788C0.130943 15.1457 0 14.8296 0 14.4999C0 14.1703 0.130943 13.8542 0.364024 13.6211C0.597105 13.388 0.913231 13.2571 1.24286 13.2571H14.8149L11.9646 10.4068Z" fill="#A1E9FF"/>
</svg>
