<svg width="52" height="52" viewBox="0 0 52 52" fill="none" xmlns="http://www.w3.org/2000/svg">
<path d="M48.8119 48.8572L38.0186 38.0445L48.8119 48.8572ZM43.9999 23.594C43.9999 29.018 41.8452 34.2198 38.0099 38.0551C34.1746 41.8905 28.9728 44.0451 23.5488 44.0451C18.1248 44.0451 12.923 41.8905 9.08765 38.0551C5.25232 34.2198 3.09766 29.018 3.09766 23.594C3.09766 18.17 5.25232 12.9682 9.08765 9.13288C12.923 5.29755 18.1248 3.14288 23.5488 3.14288C28.9728 3.14288 34.1746 5.29755 38.0099 9.13288C41.8452 12.9682 43.9999 18.17 43.9999 23.594Z" fill="#A1E9FF"/>
<path d="M48.8119 48.8572L38.0186 38.0445M43.9999 23.594C43.9999 29.018 41.8452 34.2198 38.0099 38.0551C34.1746 41.8905 28.9728 44.0451 23.5488 44.0451C18.1248 44.0451 12.923 41.8905 9.08765 38.0551C5.25232 34.2198 3.09766 29.018 3.09766 23.594C3.09766 18.17 5.25232 12.9682 9.08765 9.13288C12.923 5.29755 18.1248 3.14288 23.5488 3.14288C28.9728 3.14288 34.1746 5.29755 38.0099 9.13288C41.8452 12.9682 43.9999 18.17 43.9999 23.594Z" stroke="url(#paint0_linear_6_113)" stroke-width="5.05263" stroke-linecap="round"/>
<defs>
<linearGradient id="paint0_linear_6_113" x1="48.8119" y1="11.727" x2="-0.671472" y2="19.3561" gradientUnits="userSpaceOnUse">
<stop offset="0.571875" stop-color="#3076FF"/>
<stop offset="1" stop-color="#0057FF"/>
</linearGradient>
</defs>
</svg>
