<svg width="31" height="30" viewBox="0 0 31 30" fill="none" xmlns="http://www.w3.org/2000/svg">
<path d="M15.4983 3.28185C15.8713 3.28185 16.229 3.43001 16.4927 3.69373C16.7564 3.95745 16.9046 4.31514 16.9046 4.6881V21.9147L22.9409 15.8772C23.2051 15.613 23.5634 15.4646 23.937 15.4646C24.3106 15.4646 24.6689 15.613 24.9331 15.8772C25.1973 16.1413 25.3457 16.4996 25.3457 16.8733C25.3457 17.2469 25.1973 17.6052 24.9331 17.8694L16.4956 26.3069C16.365 26.4379 16.2097 26.542 16.0388 26.6129C15.8679 26.6839 15.6846 26.7205 15.4995 26.7205C15.3144 26.7205 15.1312 26.6839 14.9602 26.6129C14.7893 26.542 14.6341 26.4379 14.5034 26.3069L6.06592 17.8694C5.93511 17.7385 5.83134 17.5832 5.76055 17.4123C5.68976 17.2414 5.65332 17.0582 5.65332 16.8733C5.65332 16.6883 5.68976 16.5051 5.76055 16.3342C5.83134 16.1633 5.93511 16.008 6.06592 15.8772C6.19672 15.7464 6.35202 15.6426 6.52293 15.5718C6.69384 15.501 6.87702 15.4646 7.06201 15.4646C7.247 15.4646 7.43018 15.501 7.60109 15.5718C7.772 15.6426 7.92729 15.7464 8.0581 15.8772L14.0921 21.9147L14.0921 4.6881C14.0921 4.31514 14.2402 3.95745 14.504 3.69373C14.7677 3.43001 15.1254 3.28185 15.4983 3.28185Z" fill="black" fill-opacity="0.5"/>
</svg>
