<svg width="12" height="10" viewBox="0 0 12 10" fill="none" xmlns="http://www.w3.org/2000/svg">
<path d="M0.299561 2.79418C0.299561 2.18319 0.445189 1.59723 0.704409 1.16519C0.963629 0.733162 1.31521 0.490448 1.6818 0.490448H8.59299C8.95958 0.490448 9.31116 0.733162 9.57038 1.16519C9.8296 1.59723 9.97523 2.18319 9.97523 2.79418V7.40164C9.97523 8.01263 9.8296 8.59859 9.57038 9.03062C9.31116 9.46266 8.95958 9.70537 8.59299 9.70537H1.6818C1.31521 9.70537 0.963629 9.46266 0.704409 9.03062C0.445189 8.59859 0.299561 8.01263 0.299561 7.40164V2.79418ZM1.6818 1.64231C1.4985 1.64231 1.32271 1.76367 1.1931 1.97969C1.06349 2.1957 0.99068 2.48868 0.99068 2.79418V7.40164C0.99068 7.70713 1.06349 8.00011 1.1931 8.21613C1.32271 8.43215 1.4985 8.5535 1.6818 8.5535H8.59299C8.77629 8.5535 8.95208 8.43215 9.08169 8.21613C9.2113 8.00011 9.28411 7.70713 9.28411 7.40164V2.79418C9.28411 2.48868 9.2113 2.1957 9.08169 1.97969C8.95208 1.76367 8.77629 1.64231 8.59299 1.64231H1.6818ZM11.3575 5.09791C11.3575 5.55615 11.2482 5.99562 11.0538 6.31965C10.8594 6.64367 10.5957 6.82571 10.3208 6.82571V3.37011C10.5957 3.37011 10.8594 3.55215 11.0538 3.87617C11.2482 4.2002 11.3575 4.63967 11.3575 5.09791Z" fill="black"/>
</svg>
