<svg width="50" height="54" viewBox="0 0 50 54" fill="none" xmlns="http://www.w3.org/2000/svg">
<path d="M48.9466 46.6951C49.6173 47.4012 49.994 48.3589 49.994 49.3575C49.994 50.356 49.6173 51.3137 48.9466 52.0198C48.2759 52.7259 47.3662 53.1226 46.4177 53.1226C45.4692 53.1226 44.5596 52.7259 43.8889 52.0198L25 32.1274L6.10514 52.0135C5.43446 52.7196 4.52481 53.1163 3.57631 53.1163C2.62782 53.1163 1.71817 52.7196 1.04748 52.0135C0.376789 51.3074 9.99404e-09 50.3498 0 49.3512C-9.99404e-09 48.3526 0.376789 47.395 1.04748 46.6889L19.9423 26.8028L1.05343 6.91043C0.382739 6.20434 0.00595032 5.24667 0.00595033 4.2481C0.00595034 3.24953 0.382739 2.29186 1.05343 1.58577C1.72412 0.879671 2.63376 0.48299 3.58226 0.48299C4.53076 0.48299 5.44041 0.879671 6.1111 1.58577L25 21.4781L43.8949 1.58263C44.5655 0.876538 45.4752 0.479858 46.4237 0.479858C47.3722 0.479858 48.2818 0.876538 48.9525 1.58263C49.6232 2.28873 50 3.2464 50 4.24497C50 5.24354 49.6232 6.20121 48.9525 6.9073L30.0577 26.8028L48.9466 46.6951Z" fill="black"/>
</svg>
