<svg width="630" height="465" viewBox="0 0 630 465" fill="none" xmlns="http://www.w3.org/2000/svg">
<mask id="path-1-inside-1_1_3873" fill="white">
<path d="M629.5 408.635H0.5V408.947H629.5V408.635Z"/>
</mask>
<path d="M629.5 408.635H0.5V408.947H629.5V408.635Z" fill="#462697"/>
<path d="M0.5 408.635V407.376H-0.758415V408.635H0.5ZM629.5 408.635H630.758V407.376H629.5V408.635ZM629.5 408.947V410.206H630.758V408.947H629.5ZM0.5 408.947H-0.758415V410.206H0.5V408.947ZM0.5 409.893H629.5V407.376H0.5V409.893ZM628.242 408.635V408.947H630.758V408.635H628.242ZM629.5 407.689H0.5V410.206H629.5V407.689ZM1.75841 408.947V408.635H-0.758415V408.947H1.75841Z" fill="#0057FF" mask="url(#path-1-inside-1_1_3873)"/>
<mask id="path-3-inside-2_1_3873" fill="white">
<path d="M566.474 428.717H524.809V429.03H566.474V428.717Z"/>
</mask>
<path d="M566.474 428.717H524.809V429.03H566.474V428.717Z" fill="#462697"/>
<path d="M524.809 428.717V427.459H523.551V428.717H524.809ZM566.474 428.717H567.733V427.459H566.474V428.717ZM566.474 429.03V430.288H567.733V429.03H566.474ZM524.809 429.03H523.551V430.288H524.809V429.03ZM524.809 429.976H566.474V427.459H524.809V429.976ZM565.216 428.717V429.03H567.733V428.717H565.216ZM566.474 427.771H524.809V430.288H566.474V427.771ZM526.068 429.03V428.717H523.551V429.03H526.068Z" fill="#0057FF" mask="url(#path-3-inside-2_1_3873)"/>
<mask id="path-5-inside-3_1_3873" fill="white">
<path d="M417.175 432.112H406.243V432.425H417.175V432.112Z"/>
</mask>
<path d="M417.175 432.112H406.243V432.425H417.175V432.112Z" fill="#462697"/>
<path d="M406.243 432.112V430.854H404.984V432.112H406.243ZM417.175 432.112H418.433V430.854H417.175V432.112ZM417.175 432.425V433.683H418.433V432.425H417.175ZM406.243 432.425H404.984V433.683H406.243V432.425ZM406.243 433.37H417.175V430.854H406.243V433.37ZM415.916 432.112V432.425H418.433V432.112H415.916ZM417.175 431.166H406.243V433.683H417.175V431.166ZM407.501 432.425V432.112H404.984V432.425H407.501Z" fill="#0057FF" mask="url(#path-5-inside-3_1_3873)"/>
<mask id="path-7-inside-4_1_3873" fill="white">
<path d="M523.551 417.135H499.41V417.447H523.551V417.135Z"/>
</mask>
<path d="M523.551 417.135H499.41V417.447H523.551V417.135Z" fill="#462697"/>
<path d="M499.41 417.135V415.876H498.152V417.135H499.41ZM523.551 417.135H524.81V415.876H523.551V417.135ZM523.551 417.447V418.706H524.81V417.447H523.551ZM499.41 417.447H498.152V418.706H499.41V417.447ZM499.41 418.393H523.551V415.876H499.41V418.393ZM522.293 417.135V417.447H524.81V417.135H522.293ZM523.551 416.189H499.41V418.706H523.551V416.189ZM500.669 417.447V417.135H498.152V417.447H500.669Z" fill="#0057FF" mask="url(#path-7-inside-4_1_3873)"/>
<mask id="path-9-inside-5_1_3873" fill="white">
<path d="M120.828 419.232H66.4946V419.544H120.828V419.232Z"/>
</mask>
<path d="M120.828 419.232H66.4946V419.544H120.828V419.232Z" fill="#462697"/>
<path d="M66.4946 419.232V417.973H65.2362V419.232H66.4946ZM120.828 419.232H122.086V417.973H120.828V419.232ZM120.828 419.544V420.803H122.086V419.544H120.828ZM66.4946 419.544H65.2362V420.803H66.4946V419.544ZM66.4946 420.49H120.828V417.973H66.4946V420.49ZM119.569 419.232V419.544H122.086V419.232H119.569ZM120.828 418.286H66.4946V420.803H120.828V418.286ZM67.753 419.544V419.232H65.2362V419.544H67.753Z" fill="#0057FF" mask="url(#path-9-inside-5_1_3873)"/>
<mask id="path-11-inside-6_1_3873" fill="white">
<path d="M140 419.232H132.036V419.544H140V419.232Z"/>
</mask>
<path d="M140 419.232H132.036V419.544H140V419.232Z" fill="#462697"/>
<path d="M132.036 419.232V417.973H130.778V419.232H132.036ZM140 419.232H141.258V417.973H140V419.232ZM140 419.544V420.803H141.258V419.544H140ZM132.036 419.544H130.778V420.803H132.036V419.544ZM132.036 420.49H140V417.973H132.036V420.49ZM138.741 419.232V419.544H141.258V419.232H138.741ZM140 418.286H132.036V420.803H140V418.286ZM133.295 419.544V419.232H130.778V419.544H133.295Z" fill="#0057FF" mask="url(#path-11-inside-6_1_3873)"/>
<mask id="path-13-inside-7_1_3873" fill="white">
<path d="M283.739 424.498H165.889V424.811H283.739V424.498Z"/>
</mask>
<path d="M283.739 424.498H165.889V424.811H283.739V424.498Z" fill="#462697"/>
<path d="M165.889 424.498V423.24H164.631V424.498H165.889ZM283.739 424.498H284.997V423.24H283.739V424.498ZM283.739 424.811V426.069H284.997V424.811H283.739ZM165.889 424.811H164.631V426.069H165.889V424.811ZM165.889 425.757H283.739V423.24H165.889V425.757ZM282.48 424.498V424.811H284.997V424.498H282.48ZM283.739 423.552H165.889V426.069H283.739V423.552ZM167.148 424.811V424.498H164.631V424.811H167.148Z" fill="#0057FF" mask="url(#path-13-inside-7_1_3873)"/>
<mask id="path-15-inside-8_1_3873" fill="white">
<path d="M298.646 352.969H55.7387C53.8358 352.965 52.012 352.213 50.6676 350.877C49.3232 349.541 48.5681 347.73 48.5681 345.842V7.06437C48.5847 5.18722 49.3471 3.39237 50.6897 2.06966C52.0323 0.746948 53.8467 0.00321564 55.7387 0H298.646C300.551 0 302.378 0.750855 303.725 2.08738C305.072 3.42391 305.829 5.23663 305.829 7.12677V345.842C305.829 347.732 305.072 349.545 303.725 350.881C302.378 352.218 300.551 352.969 298.646 352.969ZM55.7387 0.249625C53.9192 0.252932 52.1754 0.972368 50.89 2.25002C49.6046 3.52768 48.8826 5.25915 48.8826 7.06437V345.842C48.8826 347.647 49.6046 349.379 50.89 350.656C52.1754 351.934 53.9192 352.653 55.7387 352.657H298.646C300.467 352.653 302.212 351.934 303.499 350.657C304.787 349.38 305.511 347.648 305.515 345.842V7.06437C305.511 5.258 304.787 3.52656 303.499 2.24926C302.212 0.971963 300.467 0.252925 298.646 0.249625H55.7387Z"/>
</mask>
<path d="M298.646 352.969H55.7387C53.8358 352.965 52.012 352.213 50.6676 350.877C49.3232 349.541 48.5681 347.73 48.5681 345.842V7.06437C48.5847 5.18722 49.3471 3.39237 50.6897 2.06966C52.0323 0.746948 53.8467 0.00321564 55.7387 0H298.646C300.551 0 302.378 0.750855 303.725 2.08738C305.072 3.42391 305.829 5.23663 305.829 7.12677V345.842C305.829 347.732 305.072 349.545 303.725 350.881C302.378 352.218 300.551 352.969 298.646 352.969ZM55.7387 0.249625C53.9192 0.252932 52.1754 0.972368 50.89 2.25002C49.6046 3.52768 48.8826 5.25915 48.8826 7.06437V345.842C48.8826 347.647 49.6046 349.379 50.89 350.656C52.1754 351.934 53.9192 352.653 55.7387 352.657H298.646C300.467 352.653 302.212 351.934 303.499 350.657C304.787 349.38 305.511 347.648 305.515 345.842V7.06437C305.511 5.258 304.787 3.52656 303.499 2.24926C302.212 0.971963 300.467 0.252925 298.646 0.249625H55.7387Z" fill="#462697"/>
<path d="M55.7387 352.969L55.7366 354.227H55.7387V352.969ZM48.5681 345.842H49.8266H48.5681ZM48.5681 7.06437L47.3097 7.05326V7.06437H48.5681ZM55.7387 0V-1.25842L55.7366 -1.25841L55.7387 0ZM298.646 0V-1.25841V0ZM305.829 345.842H304.571H305.829ZM55.7387 0.249625V-1.00879L55.7365 -1.00879L55.7387 0.249625ZM48.8826 7.06437H50.1411V7.06437L48.8826 7.06437ZM48.8826 345.842H50.1411H48.8826ZM55.7387 352.657L55.7365 353.915H55.7387V352.657ZM298.646 352.657V353.915H298.648L298.646 352.657ZM305.515 345.842L306.773 345.844V345.842H305.515ZM305.515 7.06437H306.773V7.06205L305.515 7.06437ZM298.646 0.249625L298.648 -1.00879H298.646V0.249625ZM298.646 351.71H55.7387V354.227H298.646V351.71ZM55.7409 351.71C54.1682 351.708 52.6628 351.086 51.5547 349.984L49.7805 351.77C51.3612 353.341 53.5035 354.223 55.7366 354.227L55.7409 351.71ZM51.5547 349.984C50.4469 348.883 49.8266 347.393 49.8266 345.842H47.3097C47.3097 348.067 48.1995 350.198 49.7805 351.77L51.5547 349.984ZM49.8266 345.842V7.06437H47.3097V345.842H49.8266ZM49.8265 7.07547C49.8401 5.53297 50.4665 4.05605 51.5729 2.96611L49.8065 1.17321C48.2277 2.72868 47.3293 4.84148 47.3098 7.05326L49.8265 7.07547ZM51.5729 2.96611C52.6795 1.87584 54.1771 1.26107 55.7409 1.25841L55.7366 -1.25841C53.5162 -1.25464 51.3851 -0.381942 49.8065 1.17321L51.5729 2.96611ZM55.7387 1.25841H298.646V-1.25841H55.7387V1.25841ZM298.646 1.25841C300.221 1.25841 301.729 1.87908 302.839 2.98072L304.612 1.19405C303.028 -0.377368 300.882 -1.25841 298.646 -1.25841V1.25841ZM302.839 2.98072C303.949 4.08203 304.571 5.57361 304.571 7.12677H307.088C307.088 4.89966 306.196 2.7658 304.612 1.19405L302.839 2.98072ZM304.571 7.12677V345.842H307.088V7.12677H304.571ZM304.571 345.842C304.571 347.395 303.949 348.887 302.839 349.988L304.612 351.775C306.196 350.203 307.088 348.069 307.088 345.842H304.571ZM302.839 349.988C301.729 351.09 300.221 351.71 298.646 351.71V354.227C300.882 354.227 303.028 353.346 304.612 351.775L302.839 349.988ZM55.7365 -1.00879C53.5868 -1.00488 51.5245 -0.154983 50.0028 1.3575L51.7771 3.14254C52.8263 2.09972 54.2517 1.51074 55.741 1.50804L55.7365 -1.00879ZM50.0028 1.3575C48.4809 2.87032 47.6242 4.92258 47.6242 7.06437L50.1411 7.06437C50.1411 5.59571 50.7283 4.18504 51.7771 3.14254L50.0028 1.3575ZM47.6242 7.06437V345.842H50.1411V7.06437H47.6242ZM47.6242 345.842C47.6242 347.984 48.4809 350.036 50.0028 351.549L51.7771 349.764C50.7283 348.721 50.1411 347.311 50.1411 345.842H47.6242ZM50.0028 351.549C51.5245 353.061 53.5868 353.911 55.7365 353.915L55.741 351.398C54.2517 351.396 52.8263 350.807 51.7771 349.764L50.0028 351.549ZM55.7387 353.915H298.646V351.398H55.7387V353.915ZM298.648 353.915C300.799 353.911 302.862 353.062 304.386 351.55L302.613 349.764C301.562 350.807 300.135 351.396 298.644 351.398L298.648 353.915ZM304.386 351.55C305.909 350.038 306.769 347.987 306.773 345.844L304.256 345.84C304.254 347.31 303.664 348.721 302.613 349.764L304.386 351.55ZM306.773 345.842V7.06437H304.256V345.842H306.773ZM306.773 7.06205C306.769 4.91952 305.909 2.86788 304.386 1.35593L302.613 3.14259C303.664 4.18524 304.254 5.59648 304.256 7.06668L306.773 7.06205ZM304.386 1.35593C302.862 -0.155701 300.799 -1.00489 298.648 -1.00879L298.644 1.50804C300.135 1.51074 301.562 2.09963 302.613 3.14259L304.386 1.35593ZM298.646 -1.00879H55.7387V1.50804H298.646V-1.00879Z" fill="#0057FF" mask="url(#path-15-inside-8_1_3873)"/>
<mask id="path-17-inside-9_1_3873" fill="white">
<path d="M570.764 352.969H327.844C325.94 352.965 324.115 352.214 322.769 350.878C321.422 349.542 320.664 347.731 320.661 345.842V7.06437C320.681 5.18609 321.446 3.39124 322.791 2.06888C324.135 0.746512 325.951 0.00318058 327.844 0H570.764C572.654 0.00649584 574.465 0.75168 575.805 2.07404C577.145 3.3964 577.905 5.18938 577.922 7.06437V345.842C577.922 347.728 577.169 349.537 575.827 350.873C574.485 352.208 572.665 352.962 570.764 352.969ZM327.844 0.249625C326.024 0.252925 324.278 0.971963 322.991 2.24926C321.704 3.52656 320.979 5.258 320.976 7.06437V345.842C320.979 347.648 321.704 349.38 322.991 350.657C324.278 351.934 326.024 352.653 327.844 352.657H570.764C572.585 352.653 574.33 351.934 575.617 350.657C576.905 349.38 577.629 347.648 577.633 345.842V7.06437C577.629 5.258 576.905 3.52656 575.617 2.24926C574.33 0.971963 572.585 0.252925 570.764 0.249625H327.844Z"/>
</mask>
<path d="M570.764 352.969H327.844C325.94 352.965 324.115 352.214 322.769 350.878C321.422 349.542 320.664 347.731 320.661 345.842V7.06437C320.681 5.18609 321.446 3.39124 322.791 2.06888C324.135 0.746512 325.951 0.00318058 327.844 0H570.764C572.654 0.00649584 574.465 0.75168 575.805 2.07404C577.145 3.3964 577.905 5.18938 577.922 7.06437V345.842C577.922 347.728 577.169 349.537 575.827 350.873C574.485 352.208 572.665 352.962 570.764 352.969ZM327.844 0.249625C326.024 0.252925 324.278 0.971963 322.991 2.24926C321.704 3.52656 320.979 5.258 320.976 7.06437V345.842C320.979 347.648 321.704 349.38 322.991 350.657C324.278 351.934 326.024 352.653 327.844 352.657H570.764C572.585 352.653 574.33 351.934 575.617 350.657C576.905 349.38 577.629 347.648 577.633 345.842V7.06437C577.629 5.258 576.905 3.52656 575.617 2.24926C574.33 0.971963 572.585 0.252925 570.764 0.249625H327.844Z" fill="#462697"/>
<path d="M570.764 352.969V354.227L570.768 354.227L570.764 352.969ZM327.844 352.969L327.842 354.227H327.844V352.969ZM320.661 345.842H319.403L319.403 345.844L320.661 345.842ZM320.661 7.06437L319.403 7.05106V7.06437H320.661ZM327.844 0V-1.25842L327.842 -1.25841L327.844 0ZM570.764 0L570.768 -1.25841H570.764V0ZM575.805 2.07404L576.689 1.17836L575.805 2.07404ZM577.922 7.06437H579.181L579.18 7.05327L577.922 7.06437ZM577.922 345.842H576.664H577.922ZM327.844 0.249625V-1.00879L327.842 -1.00879L327.844 0.249625ZM320.976 7.06437L319.717 7.06205V7.06437H320.976ZM320.976 345.842H319.717L319.717 345.844L320.976 345.842ZM327.844 352.657L327.842 353.915H327.844V352.657ZM570.764 352.657V353.915H570.766L570.764 352.657ZM575.617 350.657L574.731 349.764L575.617 350.657ZM577.633 345.842L578.891 345.844V345.842H577.633ZM577.633 7.06437H578.891L578.891 7.06205L577.633 7.06437ZM575.617 2.24926L574.731 3.14259L575.617 2.24926ZM570.764 0.249625L570.766 -1.00879H570.764V0.249625ZM570.764 351.71H327.844V354.227H570.764V351.71ZM327.846 351.71C326.272 351.708 324.765 351.086 323.655 349.984L321.882 351.771C323.465 353.341 325.608 354.223 327.842 354.227L327.846 351.71ZM323.655 349.984C322.545 348.883 321.922 347.393 321.919 345.84L319.403 345.844C319.407 348.07 320.299 350.201 321.882 351.771L323.655 349.984ZM321.919 345.842V7.06437H319.403V345.842H321.919ZM321.919 7.07767C321.936 5.53365 322.565 4.05618 323.673 2.9661L321.908 1.17165C320.327 2.72631 319.426 4.83852 319.403 7.05106L321.919 7.07767ZM323.673 2.9661C324.782 1.8757 326.281 1.26104 327.846 1.25841L327.842 -1.25841C325.621 -1.25468 323.489 -0.382677 321.908 1.17165L323.673 2.9661ZM327.844 1.25841H570.764V-1.25841H327.844V1.25841ZM570.76 1.25841C572.322 1.26378 573.817 1.87974 574.921 2.96971L576.689 1.17836C575.114 -0.376379 572.986 -1.25078 570.768 -1.25841L570.76 1.25841ZM574.921 2.96971C576.025 4.05937 576.65 5.53474 576.664 7.07547L579.18 7.05327C579.161 4.84402 578.265 2.73343 576.689 1.17836L574.921 2.96971ZM576.664 7.06437V345.842H579.18V7.06437H576.664ZM576.664 345.842C576.664 347.392 576.045 348.88 574.939 349.981L576.715 351.764C578.293 350.193 579.18 348.064 579.18 345.842H576.664ZM574.939 349.981C573.833 351.082 572.331 351.705 570.76 351.71L570.768 354.227C572.999 354.219 575.137 353.335 576.715 351.764L574.939 349.981ZM327.842 -1.00879C325.691 -1.00489 323.628 -0.155701 322.105 1.35593L323.877 3.14259C324.929 2.09963 326.356 1.51074 327.846 1.50804L327.842 -1.00879ZM322.105 1.35593C320.581 2.86788 319.721 4.91953 319.717 7.06205L322.234 7.06668C322.237 5.59647 322.826 4.18523 323.877 3.14259L322.105 1.35593ZM319.717 7.06437V345.842H322.234V7.06437H319.717ZM319.717 345.844C319.721 347.987 320.581 350.038 322.105 351.55L323.877 349.764C322.826 348.721 322.237 347.31 322.234 345.84L319.717 345.844ZM322.105 351.55C323.628 353.062 325.691 353.911 327.842 353.915L327.846 351.398C326.356 351.396 324.929 350.807 323.877 349.764L322.105 351.55ZM327.844 353.915H570.764V351.398H327.844V353.915ZM570.766 353.915C572.917 353.911 574.98 353.062 576.504 351.55L574.731 349.764C573.68 350.807 572.253 351.396 570.762 351.398L570.766 353.915ZM576.504 351.55C578.027 350.038 578.887 347.987 578.891 345.844L576.374 345.84C576.372 347.31 575.782 348.721 574.731 349.764L576.504 351.55ZM578.891 345.842V7.06437H576.374V345.842H578.891ZM578.891 7.06205C578.887 4.91953 578.027 2.86788 576.504 1.35593L574.731 3.14259C575.782 4.18523 576.372 5.59647 576.374 7.06668L578.891 7.06205ZM576.504 1.35593C574.98 -0.155701 572.917 -1.00489 570.766 -1.00879L570.762 1.50804C572.253 1.51074 573.68 2.09963 574.731 3.14259L576.504 1.35593ZM570.764 -1.00879H327.844V1.50804H570.764V-1.00879Z" fill="#0057FF" mask="url(#path-17-inside-9_1_3873)"/>
<path d="M116.903 298.658V288.783H274.681V298.658H116.903Z" fill="#462697" stroke="#0057FF" stroke-width="1.25841"/>
<path d="M206.787 298.658V288.783H274.681V298.658H206.787Z" fill="#E0E0E0" stroke="#0057FF" stroke-width="1.25841"/>
<path d="M116.903 408.006V299.916H139.144V408.006H116.903Z" fill="#462697" stroke="#0057FF" stroke-width="1.25841"/>
<path d="M116.903 302.181V299.916H139.144V309.694L116.903 302.181Z" fill="#E0E0E0" stroke="#0057FF" stroke-width="1.25841"/>
<path d="M252.44 408.006V299.916H274.681V408.006H252.44Z" fill="#E0E0E0" stroke="#0057FF" stroke-width="1.25841"/>
<path d="M206.787 408.006V299.916H229.028V408.006H206.787Z" fill="#462697" stroke="#0057FF" stroke-width="1.25841"/>
<path d="M206.787 302.181V299.916H229.015V309.693L206.787 302.181Z" fill="#E0E0E0" stroke="#0057FF" stroke-width="1.25841"/>
<path d="M162.556 408.006V299.916H184.797V408.006H162.556Z" fill="#E0E0E0" stroke="#0057FF" stroke-width="1.25841"/>
<path d="M90.4472 208.855V40.7812H289.626V208.855H90.4472Z" fill="#462697" stroke="#0057FF" stroke-width="1.25841"/>
<path d="M291.865 40.7689V208.843H290.884V40.7689H291.865Z" fill="#E0E0E0" stroke="#0057FF" stroke-width="1.25841"/>
<path d="M98.0077 48.2574L282.09 48.2574V201.354H98.0077V48.2574Z" fill="#F5F5F5" stroke="#0057FF" stroke-width="1.25841"/>
<path d="M188.618 178.032C191.361 168.825 193.626 158.595 195.831 148.533C195.904 148.202 195.977 147.87 196.049 147.539C198.238 137.552 200.381 127.77 202.896 119.31C205.498 110.553 208.474 103.298 212.246 98.7096C214.125 96.4242 216.179 94.8293 218.454 94.0233C220.721 93.2202 223.262 93.1808 226.159 94.0969C231.76 95.8678 234.285 101.989 234.713 110.69C235.138 119.329 233.468 130.183 231.035 140.851C228.603 151.508 225.42 161.934 222.843 169.698C221.555 173.579 220.419 176.793 219.605 179.037C219.199 180.158 218.872 181.037 218.648 181.635C218.583 181.809 218.526 181.959 218.479 182.084L188.618 178.032Z" fill="#0057FF" stroke="#0057FF" stroke-width="1.25841"/>
<path d="M162.861 56.3822C171.546 55.9826 177.886 60.0266 182.734 67.2561C187.607 74.5219 190.94 84.9698 193.531 97.2464C196.047 109.163 197.848 122.732 199.699 136.67C199.753 137.078 199.807 137.486 199.861 137.894C201.735 151.997 203.68 166.434 206.485 179.827L163.301 182.12C163.237 181.891 163.151 181.583 163.046 181.199C162.793 180.283 162.426 178.937 161.972 177.224C161.064 173.797 159.807 168.898 158.41 163.014C155.615 151.245 152.263 135.542 150.029 119.794C147.793 104.032 146.686 88.2779 148.351 76.3831C149.184 70.4331 150.704 65.5103 153.073 62.0394C155.422 58.5966 158.607 56.578 162.861 56.3822Z" fill="#0057FF" stroke="#0057FF" stroke-width="1.25841"/>
<path d="M154.145 174.954L154.155 174.954H154.165H232.548C233.939 174.965 235.272 175.507 236.27 176.466C237.268 177.425 237.855 178.728 237.91 180.104L237.91 180.107C239.497 215.693 233.655 251.973 222.751 287.524H163.662C152.759 252.035 146.916 215.694 148.503 180.108C148.574 178.69 149.203 177.354 150.258 176.389C151.313 175.424 152.709 174.908 154.145 174.954Z" fill="#462697" stroke="#0057FF" stroke-width="1.25841"/>
<path d="M407.073 408.006V59.6656H410.23V408.006H407.073Z" fill="#E0E0E0" stroke="#0057FF" stroke-width="1.25841"/>
<path d="M510.846 408.006V59.6656H514.003V408.006H510.846Z" fill="#E0E0E0" stroke="#0057FF" stroke-width="1.25841"/>
<path d="M375.762 408.006V59.6656H378.919V408.006H375.762Z" fill="#462697" stroke="#0057FF" stroke-width="1.25841"/>
<path d="M479.534 408.006V59.6656H482.691V408.006H479.534Z" fill="#462697" stroke="#0057FF" stroke-width="1.25841"/>
<path d="M375.762 60.7907V57.2689H514.003V60.7907H375.762Z" fill="#462697" stroke="#0057FF" stroke-width="1.25841"/>
<path d="M375.762 146.4V142.878H514.003V146.4H375.762Z" fill="#462697" stroke="#0057FF" stroke-width="1.25841"/>
<path d="M375.762 232.008V228.487H514.003V232.008H375.762Z" fill="#462697" stroke="#0057FF" stroke-width="1.25841"/>
<path d="M375.762 317.617V314.095H514.003V317.617H375.762Z" fill="#462697" stroke="#0057FF" stroke-width="1.25841"/>
<path d="M375.762 403.226V399.704H514.003V403.226H375.762Z" fill="#462697" stroke="#0057FF" stroke-width="1.25841"/>
<path d="M483.95 60.7907V57.2689H514.003V60.7907H483.95Z" fill="#E0E0E0" stroke="#0057FF" stroke-width="1.25841"/>
<path d="M483.95 146.4V142.878H514.003V146.4H483.95Z" fill="#E0E0E0" stroke="#0057FF" stroke-width="1.25841"/>
<path d="M483.95 232.008V228.487H514.003V232.008H483.95Z" fill="#E0E0E0" stroke="#0057FF" stroke-width="1.25841"/>
<path d="M483.95 317.617V314.095H514.003V317.617H483.95Z" fill="#E0E0E0" stroke="#0057FF" stroke-width="1.25841"/>
<path d="M483.95 403.226V399.704H514.003V403.226H483.95Z" fill="#E0E0E0" stroke="#0057FF" stroke-width="1.25841"/>
<path d="M415.263 79.6478H414.634V85.7584C414.634 87.8715 413.788 89.8982 412.284 91.3935C410.779 92.8889 408.737 93.7306 406.608 93.7339C404.478 93.7339 402.435 94.5725 400.928 96.0655C399.421 97.5585 398.572 99.5839 398.569 101.697M415.263 79.6478V85.7584C415.263 88.0398 414.35 90.2269 412.727 91.8399C411.104 93.4526 408.903 94.3596 406.609 94.3631L406.608 94.3631C404.643 94.3631 402.759 95.1367 401.371 96.5125C399.982 97.888 399.201 99.7528 399.198 101.697M415.263 79.6478V79.0186H430.774V79.6478M415.263 79.6478H430.774M399.198 101.697V101.697H398.569M399.198 101.697C399.198 101.698 399.198 101.698 399.198 101.698L398.569 101.697M399.198 101.697V141.657M398.569 101.697V141.657H399.198M399.198 141.657H446.851M399.198 141.657V142.286H446.851V141.657M446.851 141.657H447.48V101.697M446.851 141.657V101.698M447.48 101.697C447.477 99.5839 446.628 97.5585 445.121 96.0655C443.614 94.5725 441.571 93.7339 439.441 93.7339C437.309 93.7339 435.265 92.8936 433.757 91.3979C432.25 89.9022 431.403 87.8736 431.403 85.7584V79.6478H430.774M447.48 101.697L446.851 101.698M447.48 101.697H446.851V101.698M430.774 79.6478V85.7584C430.774 88.0421 431.688 90.2313 433.314 91.8446C434.94 93.4577 437.144 94.3631 439.441 94.3631C441.406 94.3631 443.289 95.1367 444.678 96.5125C446.067 97.8881 446.848 99.7532 446.851 101.698" fill="#F0F0F0" stroke="#0057FF" stroke-width="1.25841"/>
<path d="M393.248 227.24V200.653H465.482V227.24H393.248Z" fill="#F0F0F0" stroke="#0057FF" stroke-width="1.25841"/>
<path d="M478.276 200.641V227.228H466.74V200.641H478.276Z" fill="#E6E6E6" stroke="#0057FF" stroke-width="1.25841"/>
<path d="M478.276 213.035V214.847H466.74V213.035H478.276Z" fill="#462697" stroke="#0057FF" stroke-width="1.25841"/>
<path d="M393.248 214.847V213.035H465.482V214.847H393.248Z" fill="#F5F5F5" stroke="#0057FF" stroke-width="1.25841"/>
<path d="M389.65 398.445V350.478H445.794V398.445H389.65Z" fill="#F0F0F0" stroke="#0057FF" stroke-width="1.25841"/>
<path d="M455.783 350.49V398.458H447.052V350.49H455.783Z" fill="#E6E6E6" stroke="#0057FF" stroke-width="1.25841"/>
<path d="M455.783 372.382V376.553H447.052V372.382H455.783Z" fill="#462697" stroke="#0057FF" stroke-width="1.25841"/>
<path d="M389.65 376.553V372.382H445.794V376.553H389.65Z" fill="#F5F5F5" stroke="#0057FF" stroke-width="1.25841"/>
<path d="M455.783 366.641V367.317H447.052V366.641H455.783Z" fill="#462697" stroke="#0057FF" stroke-width="1.25841"/>
<path d="M389.65 367.317V366.641H445.794V367.317H389.65Z" fill="#F5F5F5" stroke="#0057FF" stroke-width="1.25841"/>
<path d="M393.248 312.836V264.045H402.38V312.836H393.248Z" fill="#F0F0F0" stroke="#0057FF" stroke-width="1.25841"/>
<path d="M393.248 295.001V281.881H402.38V295.001H393.248Z" fill="#FAFAFA" stroke="#0057FF" stroke-width="1.25841"/>
<path d="M437.73 264.058V312.849H403.639V264.058H437.73Z" fill="#E6E6E6" stroke="#0057FF" stroke-width="1.25841"/>
<path d="M407.954 312.837V257.58H418.433V312.837H407.954Z" fill="#462697" stroke="#0057FF" stroke-width="1.25841"/>
<path d="M407.954 282.981V275.54H418.433V282.981H407.954Z" fill="#FAFAFA" stroke="#0057FF" stroke-width="1.25841"/>
<path d="M407.954 297.51V290.069H418.433V297.51H407.954Z" fill="#FAFAFA" stroke="#0057FF" stroke-width="1.25841"/>
<path d="M458.361 257.58V312.836H419.703V257.58H458.361Z" fill="#E0E0E0" stroke="#0057FF" stroke-width="1.25841"/>
<path d="M426.434 312.836V264.045H431.503V312.836H426.434Z" fill="#F0F0F0" stroke="#0057FF" stroke-width="1.25841"/>
<path d="M427.516 306.496V270.386H430.409V306.496H427.516Z" fill="#FAFAFA" stroke="#0057FF" stroke-width="1.25841"/>
<path d="M452.99 264.058V312.849H432.749V264.058H452.99Z" fill="#E6E6E6" stroke="#0057FF" stroke-width="1.25841"/>
<path d="M442.511 312.836V261.412H448.398V312.836H442.511Z" fill="#462697" stroke="#0057FF" stroke-width="1.25841"/>
<path d="M442.511 285.003V278.149H448.398V285.003H442.511Z" fill="#FAFAFA" stroke="#0057FF" stroke-width="1.25841"/>
<path d="M442.511 298.558V291.704H448.398V298.558H442.511Z" fill="#FAFAFA" stroke="#0057FF" stroke-width="1.25841"/>
<path d="M472.677 261.412V312.836H449.657V261.412H472.677Z" fill="#E0E0E0" stroke="#0057FF" stroke-width="1.25841"/>
<path d="M445.331 173.962C451.196 179.781 451.196 189.215 445.331 195.034C439.466 200.852 429.957 200.852 424.093 195.034C418.228 189.215 418.228 179.781 424.093 173.962C429.957 168.143 439.466 168.143 445.331 173.962Z" fill="#0057FF" stroke="#0057FF" stroke-width="1.25841"/>
<path d="M462.117 187.607C463.02 193.124 459.243 198.332 453.67 199.229C448.097 200.127 442.854 196.372 441.952 190.854C441.049 185.336 444.826 180.129 450.398 179.231C455.971 178.334 461.214 182.089 462.117 187.607Z" fill="#462697" stroke="#0057FF" stroke-width="1.25841"/>
<path d="M558.284 450.871C558.284 450.919 558.266 451.02 558.123 451.184C557.976 451.352 557.726 451.551 557.343 451.769C556.576 452.207 555.395 452.658 553.787 453.113C550.581 454.021 545.824 454.903 539.66 455.748C527.342 457.435 509.501 458.956 487.437 460.234C443.312 462.79 382.347 464.371 315 464.371C247.653 464.371 186.688 462.79 142.563 460.234C120.499 458.956 102.658 457.435 90.3397 455.748C84.1763 454.903 79.4192 454.021 76.2132 453.113C74.6053 452.658 73.424 452.207 72.6574 451.769C72.2739 451.551 72.0245 451.352 71.8772 451.184C71.7335 451.02 71.7156 450.919 71.7156 450.871C71.7156 450.824 71.7335 450.723 71.8772 450.559C72.0245 450.39 72.2739 450.192 72.6574 449.973C73.424 449.536 74.6053 449.085 76.2132 448.629C79.4192 447.722 84.1763 446.839 90.3397 445.995C102.658 444.308 120.499 442.787 142.563 441.509C186.688 438.953 247.653 437.372 315 437.372C382.347 437.372 443.312 438.953 487.437 441.509C509.501 442.787 527.342 444.308 539.66 445.995C545.824 446.839 550.581 447.722 553.787 448.629C555.395 449.085 556.576 449.536 557.343 449.973C557.726 450.192 557.976 450.39 558.123 450.559C558.266 450.723 558.284 450.824 558.284 450.871Z" fill="#F5F5F5" stroke="#0057FF" stroke-width="1.25841"/>
<path d="M159.776 354.709H320.095V436.843C320.095 437.82 319.901 438.788 319.524 439.691C319.147 440.594 318.594 441.415 317.897 442.106C317.2 442.798 316.372 443.347 315.46 443.721C314.549 444.096 313.572 444.289 312.585 444.289H167.286C166.299 444.289 165.322 444.096 164.41 443.721C163.499 443.347 162.671 442.798 161.973 442.106C161.276 441.415 160.724 440.594 160.347 439.691C159.97 438.788 159.776 437.82 159.776 436.843V354.709Z" fill="#0057FF" stroke="#0057FF" stroke-width="1.25841"/>
<path d="M145.576 335.829L145.576 335.83L159.452 353.451H272.19L258.928 336.609L145.576 335.829ZM145.576 335.829C145.238 335.401 145.099 335.045 145.071 334.775C145.046 334.522 145.113 334.308 145.274 334.116C145.628 333.692 146.514 333.304 148.038 333.304H250.867C252.363 333.304 254.032 333.678 255.517 334.293M145.576 335.829L255.517 334.293M255.517 334.293C257.01 334.912 258.245 335.745 258.927 336.608L255.517 334.293Z" fill="#0057FF" stroke="#0057FF" stroke-width="1.25841"/>
<path opacity="0.2" d="M145.576 335.829L145.576 335.83L159.452 353.451H272.19L258.928 336.609L145.576 335.829ZM145.576 335.829C145.238 335.401 145.099 335.045 145.071 334.775C145.046 334.522 145.113 334.308 145.274 334.116C145.628 333.692 146.514 333.304 148.038 333.304H250.867C252.363 333.304 254.032 333.678 255.517 334.293M145.576 335.829L255.517 334.293M255.517 334.293C257.01 334.912 258.245 335.745 258.927 336.608L255.517 334.293Z" fill="black" stroke="#0057FF" stroke-width="1.25841"/>
<path d="M334.389 341.949L334.387 341.95L320.497 353.451H208.143L220.859 342.922C221.533 342.38 222.774 341.832 224.29 341.419C225.792 341.011 227.488 340.755 229.016 340.755H331.832C332.596 340.755 333.23 340.817 333.723 340.923C334.227 341.031 334.536 341.173 334.696 341.298C334.772 341.358 334.796 341.399 334.803 341.412C334.806 341.42 334.808 341.423 334.805 341.438C334.797 341.49 334.729 341.668 334.389 341.949Z" fill="#0057FF" stroke="#0057FF" stroke-width="1.25841"/>
<path opacity="0.2" d="M207.026 354.709H320.095V436.843C320.095 437.82 319.901 438.788 319.524 439.691C319.147 440.594 318.594 441.415 317.897 442.106C317.2 442.798 316.372 443.347 315.46 443.721C314.549 444.096 313.572 444.289 312.585 444.289H214.536C213.549 444.289 212.572 444.096 211.661 443.721C210.749 443.347 209.921 442.798 209.224 442.106C208.527 441.415 207.974 440.594 207.597 439.691C207.22 438.788 207.026 437.82 207.026 436.843V354.709Z" fill="white" stroke="#0057FF" stroke-width="1.25841"/>
<path opacity="0.5" d="M191.577 409.656L188.761 407.74L188.39 407.488L188.03 407.757L185.097 409.956L182.993 407.032L182.476 406.313L181.967 407.038L180.006 409.835L177.755 407.329L177.362 406.891L176.899 407.254L173.966 409.552V354.709H191.577V409.656Z" fill="white" stroke="#0057FF" stroke-width="1.25841"/>
<path d="M198.912 230.254L178.595 213.329" stroke="#0057FF" stroke-width="1.25841" stroke-miterlimit="10"/>
<path d="M209.441 239.028L203.252 233.861" stroke="#0057FF" stroke-width="1.25841" stroke-miterlimit="10"/>
<path d="M180.619 201.572L180.675 201.512L180.713 201.439L189.484 184.669L248.155 117.875L336.451 191.424L269.829 274.035C268.789 275.125 267.373 275.79 265.861 275.894C264.343 275.999 262.841 275.531 261.656 274.586C261.655 274.585 261.653 274.584 261.651 274.582L181.149 207.516L181.14 207.509L181.132 207.502C180.687 207.158 180.32 206.726 180.051 206.235C179.783 205.744 179.62 205.203 179.572 204.647C179.524 204.091 179.592 203.531 179.772 203.002C179.952 202.473 180.241 201.986 180.619 201.572Z" fill="#0057FF" stroke="#0057FF" stroke-width="1.25841"/>
<path opacity="0.5" d="M219.164 229.186L219.044 228.862L218.707 228.79L215.696 228.142L224.483 214.104L238.081 225.638L229.251 239.744L227.358 236.757L227.231 236.555L227.001 236.489L224.142 235.664L223.06 232.895L222.913 232.519L222.511 232.496L220.343 232.37L219.164 229.186Z" fill="white" stroke="#0057FF" stroke-width="1.25841"/>
<path opacity="0.1" d="M248.155 117.875L333.505 188.968L274.242 254.558L189.822 184.24L248.155 117.875Z" fill="black" stroke="#0057FF" stroke-width="1.25841"/>
<path d="M357.023 190.511L298.921 256.6L275.634 254.895L334.679 189.545L357.023 190.511Z" fill="#0057FF" stroke="#0057FF" stroke-width="1.25841"/>
<path opacity="0.3" d="M357.023 190.511L298.921 256.6L275.634 254.895L334.679 189.545L357.023 190.511Z" fill="black" stroke="#0057FF" stroke-width="1.25841"/>
<path d="M246.747 117.57L188.657 183.66L165.357 181.955L224.416 116.592L246.747 117.57Z" fill="#0057FF" stroke="#0057FF" stroke-width="1.25841"/>
<path opacity="0.4" d="M246.747 117.57L188.657 183.66L165.357 181.955L224.416 116.592L246.747 117.57Z" fill="black" stroke="#0057FF" stroke-width="1.25841"/>
<path opacity="0.1" d="M248.339 118.028L333.505 188.968L315.845 208.514L237.801 143.224L248.339 118.028Z" fill="black" stroke="#0057FF" stroke-width="1.25841"/>
<path opacity="0.2" d="M195.314 188.818L189.822 184.24L246.025 120.297L236.502 143.068L195.314 188.818Z" fill="black" stroke="#0057FF" stroke-width="1.25841"/>
<path d="M354.651 63.826L354.651 63.8261L354.654 63.8348C354.743 64.1311 354.734 64.3999 354.678 64.5819C354.651 64.6715 354.617 64.7262 354.592 64.7551C354.57 64.7809 354.557 64.7837 354.557 64.7839L354.557 64.7839C354.552 64.785 354.537 64.789 354.502 64.7786C354.464 64.7672 354.406 64.739 354.334 64.6786C354.19 64.5558 354.036 64.3352 353.947 64.0356C353.858 63.7396 353.867 63.4704 353.922 63.2861C353.95 63.1953 353.985 63.138 354.012 63.1062C354.037 63.0767 354.053 63.0714 354.057 63.0702C354.058 63.0699 354.06 63.0693 354.065 63.0694C354.07 63.0695 354.081 63.0704 354.099 63.0757C354.135 63.0868 354.195 63.1153 354.267 63.1778C354.414 63.3048 354.567 63.5305 354.651 63.826Z" fill="#263238" stroke="#0057FF" stroke-width="1.25841"/>
<path d="M355.541 72.8695C355.138 72.91 354.732 72.8933 354.336 72.8208C354.87 71.3162 355.283 69.7736 355.574 68.2073L356.857 72.5206C356.441 72.7056 355.997 72.8238 355.541 72.8695Z" fill="#ED847E" stroke="#0057FF" stroke-width="1.25841"/>
<path d="M356.699 57.8737L356.699 57.874L356.702 57.8792M356.702 57.8792V57.8792ZM356.706 57.8838L356.708 57.879L356.666 58.0268C356.661 58.0254 356.657 58.0238 356.653 58.022L356.694 57.9136L356.699 57.9213L356.702 57.9276L356.929 58.3249L356.713 57.9013L356.708 57.8916L356.706 57.8883L356.705 57.8858L356.706 57.8838L356.711 57.8812L356.706 57.8838ZM356.646 58.0204L356.527 58.3499L356.646 58.0204ZM356.697 57.8794L356.693 57.89L356.681 57.88L356.697 57.8794Z" fill="#263238" stroke="#0057FF" stroke-width="1.25841"/>
<path d="M374.187 99.876L374.186 99.8762C370.335 100.44 367.978 100.296 366.59 99.8343C365.906 99.6068 365.484 99.3109 365.226 99.0097C364.97 98.7124 364.842 98.3742 364.804 98.0037C364.725 97.2286 365.04 96.3314 365.435 95.5684C365.626 95.1985 365.825 94.8835 365.975 94.6612C366.032 94.5766 366.082 94.5059 366.121 94.4514C370.246 92.7665 372.143 90.2763 372.622 87.3905C373.075 84.6636 372.237 81.7026 371.132 78.9663L376.859 72.449C378.004 71.1959 379.589 69.6492 380.896 68.8324C381.219 68.6306 381.507 68.4848 381.753 68.3979C382.004 68.3091 382.17 68.2962 382.268 68.3109C382.341 68.3218 382.386 68.3468 382.433 68.414C382.495 68.5021 382.575 68.6889 382.607 69.0503C382.885 72.3719 383.439 77.0851 384.421 81.3292C384.913 83.4507 385.516 85.4745 386.254 87.1556C386.913 88.6541 387.706 89.945 388.679 90.7704C388.63 90.9628 388.55 91.2311 388.421 91.5557C388.137 92.2718 387.615 93.2641 386.668 94.3241C384.781 96.4355 381.153 98.8756 374.187 99.876Z" fill="#FFC3BD" stroke="#0057FF" stroke-width="1.25841"/>
<path d="M391.396 88.0119L391.398 88.0129C391.634 88.1101 392 88.4106 392.417 88.9237C392.818 89.4167 393.214 90.0388 393.527 90.6784C393.843 91.3229 394.059 91.9507 394.129 92.457C394.181 92.8259 394.146 93.0432 394.095 93.1651L364.727 97.8835C364.518 97.163 364.442 96.4096 364.505 95.6598C364.579 94.776 364.844 93.9186 365.281 93.1456C368.275 90.6497 373.773 88.946 379.131 88.0834C381.815 87.6511 384.428 87.4361 386.611 87.4322C388.822 87.4284 390.508 87.6425 391.396 88.0119Z" fill="white" stroke="#0057FF" stroke-width="1.25841"/>
<mask id="path-97-inside-10_1_3873" fill="white">
<path d="M447.203 427.37C446.794 427.555 446.352 427.656 445.903 427.669C445.453 427.682 445.006 427.606 444.587 427.444C444.421 427.314 444.299 427.137 444.239 426.936C444.178 426.735 444.181 426.52 444.247 426.321C444.28 426.158 444.349 426.004 444.449 425.87C444.549 425.737 444.678 425.626 444.826 425.547C446.184 424.761 449.543 425.797 449.681 425.847C449.728 425.859 449.769 425.884 449.8 425.92C449.832 425.956 449.852 426 449.858 426.047C449.864 426.096 449.856 426.146 449.833 426.19C449.811 426.235 449.775 426.272 449.732 426.296C448.928 426.738 448.081 427.098 447.203 427.37ZM445.367 425.847L445.077 425.972C444.991 426.018 444.917 426.082 444.858 426.16C444.799 426.237 444.758 426.326 444.738 426.421C444.65 426.87 444.826 427.008 444.876 427.045C445.48 427.469 447.53 426.858 448.952 426.146C447.794 425.786 446.569 425.683 445.367 425.847Z"/>
</mask>
<path d="M447.203 427.37C446.794 427.555 446.352 427.656 445.903 427.669C445.453 427.682 445.006 427.606 444.587 427.444C444.421 427.314 444.299 427.137 444.239 426.936C444.178 426.735 444.181 426.52 444.247 426.321C444.28 426.158 444.349 426.004 444.449 425.87C444.549 425.737 444.678 425.626 444.826 425.547C446.184 424.761 449.543 425.797 449.681 425.847C449.728 425.859 449.769 425.884 449.8 425.92C449.832 425.956 449.852 426 449.858 426.047C449.864 426.096 449.856 426.146 449.833 426.19C449.811 426.235 449.775 426.272 449.732 426.296C448.928 426.738 448.081 427.098 447.203 427.37ZM445.367 425.847L445.077 425.972C444.991 426.018 444.917 426.082 444.858 426.16C444.799 426.237 444.758 426.326 444.738 426.421C444.65 426.87 444.826 427.008 444.876 427.045C445.48 427.469 447.53 426.858 448.952 426.146C447.794 425.786 446.569 425.683 445.367 425.847Z" fill="#0057FF"/>
<path d="M447.203 427.37L446.831 426.168L446.756 426.191L446.685 426.223L447.203 427.37ZM444.587 427.444L443.81 428.434L443.958 428.551L444.135 428.619L444.587 427.444ZM444.247 426.321L445.441 426.718L445.465 426.647L445.48 426.573L444.247 426.321ZM444.826 425.547L445.419 426.657L445.438 426.647L445.456 426.637L444.826 425.547ZM449.681 425.847L449.254 427.031L449.308 427.05L449.363 427.064L449.681 425.847ZM449.858 426.047L448.609 426.205L448.61 426.21L449.858 426.047ZM449.732 426.296L450.338 427.399L450.347 427.394L449.732 426.296ZM445.367 425.847L445.197 424.6L445.026 424.623L444.868 424.691L445.367 425.847ZM445.077 425.972L444.579 424.816L444.528 424.838L444.48 424.864L445.077 425.972ZM444.738 426.421L443.508 426.152L443.505 426.166L443.503 426.179L444.738 426.421ZM444.876 427.045L444.125 428.055L444.138 428.065L444.152 428.075L444.876 427.045ZM448.952 426.146L449.515 427.272L452.309 425.874L449.326 424.945L448.952 426.146ZM446.685 426.223C446.428 426.339 446.15 426.403 445.867 426.411L445.939 428.927C446.554 428.91 447.16 428.77 447.722 428.516L446.685 426.223ZM445.867 426.411C445.584 426.419 445.302 426.371 445.038 426.27L444.135 428.619C444.71 428.84 445.323 428.945 445.939 428.927L445.867 426.411ZM445.364 426.455C445.4 426.483 445.429 426.524 445.443 426.572L443.034 427.3C443.17 427.75 443.441 428.145 443.81 428.434L445.364 426.455ZM445.443 426.572C445.458 426.619 445.457 426.671 445.441 426.718L443.053 425.924C442.905 426.37 442.898 426.85 443.034 427.3L445.443 426.572ZM445.48 426.573C445.476 426.592 445.468 426.61 445.457 426.624L443.442 425.117C443.231 425.399 443.085 425.724 443.014 426.069L445.48 426.573ZM445.457 426.624C445.446 426.638 445.433 426.649 445.419 426.657L444.232 424.438C443.923 424.603 443.652 424.835 443.442 425.117L445.457 426.624ZM445.456 426.637C445.526 426.596 445.741 426.524 446.169 426.513C446.571 426.503 447.038 426.549 447.509 426.626C448.461 426.78 449.26 427.033 449.254 427.031L450.109 424.663C449.965 424.611 449.015 424.321 447.913 424.141C447.357 424.051 446.722 423.982 446.107 423.997C445.519 424.012 444.805 424.106 444.195 424.458L445.456 426.637ZM449.363 427.064C449.168 427.013 448.991 426.905 448.857 426.752L450.744 425.088C450.547 424.864 450.287 424.705 450 424.63L449.363 427.064ZM448.857 426.752C448.722 426.6 448.635 426.409 448.609 426.205L451.106 425.888C451.068 425.59 450.942 425.312 450.744 425.088L448.857 426.752ZM448.61 426.21C448.583 426.009 448.618 425.805 448.709 425.624L450.957 426.757C451.093 426.487 451.145 426.183 451.105 425.883L448.61 426.21ZM448.709 425.624C448.8 425.444 448.943 425.296 449.117 425.198L450.347 427.394C450.608 427.248 450.821 427.026 450.957 426.757L448.709 425.624ZM449.126 425.193C448.396 425.595 447.627 425.921 446.831 426.168L447.575 428.572C448.534 428.275 449.46 427.882 450.338 427.399L449.126 425.193ZM444.868 424.691L444.579 424.816L445.576 427.127L445.865 427.002L444.868 424.691ZM444.48 424.864C444.236 424.996 444.022 425.178 443.854 425.401L445.862 426.918C445.811 426.986 445.747 427.04 445.674 427.08L444.48 424.864ZM443.854 425.401C443.686 425.623 443.568 425.879 443.508 426.152L445.967 426.69C445.949 426.773 445.913 426.851 445.862 426.918L443.854 425.401ZM443.503 426.179C443.424 426.582 443.436 426.991 443.592 427.368C443.754 427.762 444.013 427.971 444.125 428.055L445.627 426.036C445.641 426.046 445.701 426.091 445.764 426.162C445.827 426.234 445.881 426.317 445.918 426.407C445.995 426.594 445.964 426.709 445.972 426.663L443.503 426.179ZM444.152 428.075C444.649 428.424 445.239 428.452 445.605 428.442C446.025 428.429 446.477 428.35 446.908 428.244C447.775 428.03 448.731 427.664 449.515 427.272L448.389 425.021C447.752 425.34 446.971 425.636 446.306 425.8C445.971 425.882 445.709 425.921 445.531 425.926C445.297 425.933 445.404 425.878 445.599 426.015L444.152 428.075ZM449.326 424.945C447.992 424.53 446.582 424.412 445.197 424.6L445.536 427.094C446.557 426.955 447.595 427.042 448.578 427.348L449.326 424.945Z" fill="#0057FF" mask="url(#path-97-inside-10_1_3873)"/>
<mask id="path-99-inside-11_1_3873" fill="white">
<path d="M449.681 426.309C449.64 426.321 449.597 426.321 449.556 426.309C448.298 426.059 445.668 424.499 445.53 423.326C445.51 423.141 445.556 422.955 445.659 422.8C445.763 422.645 445.917 422.531 446.096 422.477C446.27 422.4 446.459 422.36 446.65 422.36C446.84 422.36 447.029 422.4 447.203 422.477C448.663 423.076 449.795 425.872 449.832 425.984C449.857 426.021 449.871 426.065 449.871 426.109C449.871 426.153 449.857 426.197 449.832 426.234C449.815 426.257 449.792 426.276 449.766 426.289C449.74 426.302 449.711 426.309 449.681 426.309ZM446.411 422.901C446.374 422.891 446.334 422.891 446.297 422.901C446.008 423.026 446.021 423.176 446.033 423.238C446.109 423.937 447.895 425.198 449.166 425.66C448.788 424.848 447.908 423.276 447.015 422.901C446.82 422.827 446.605 422.827 446.411 422.901Z"/>
</mask>
<path d="M449.681 426.309C449.64 426.321 449.597 426.321 449.556 426.309C448.298 426.059 445.668 424.499 445.53 423.326C445.51 423.141 445.556 422.955 445.659 422.8C445.763 422.645 445.917 422.531 446.096 422.477C446.27 422.4 446.459 422.36 446.65 422.36C446.84 422.36 447.029 422.4 447.203 422.477C448.663 423.076 449.795 425.872 449.832 425.984C449.857 426.021 449.871 426.065 449.871 426.109C449.871 426.153 449.857 426.197 449.832 426.234C449.815 426.257 449.792 426.276 449.766 426.289C449.74 426.302 449.711 426.309 449.681 426.309ZM446.411 422.901C446.374 422.891 446.334 422.891 446.297 422.901C446.008 423.026 446.021 423.176 446.033 423.238C446.109 423.937 447.895 425.198 449.166 425.66C448.788 424.848 447.908 423.276 447.015 422.901C446.82 422.827 446.605 422.827 446.411 422.901Z" fill="#0057FF"/>
<path d="M449.681 426.309V425.05H449.494L449.314 425.105L449.681 426.309ZM449.556 426.309L449.923 425.105L449.863 425.087L449.801 425.074L449.556 426.309ZM445.53 423.326L444.279 423.46L444.28 423.473L445.53 423.326ZM446.096 422.477L446.46 423.682L446.534 423.659L446.605 423.628L446.096 422.477ZM447.203 422.477L446.694 423.628L446.71 423.635L446.725 423.641L447.203 422.477ZM449.832 425.984L448.64 426.385L448.694 426.546L448.789 426.687L449.832 425.984ZM449.871 426.109H451.129H449.871ZM449.832 426.234L450.836 426.993L450.857 426.965L450.876 426.937L449.832 426.234ZM446.411 422.901L446.059 424.11L446.464 424.227L446.858 424.077L446.411 422.901ZM446.297 422.901L445.946 421.693L445.871 421.715L445.799 421.746L446.297 422.901ZM446.033 423.238L447.284 423.103L447.278 423.046L447.267 422.99L446.033 423.238ZM449.166 425.66L448.736 426.842L451.586 427.878L450.307 425.129L449.166 425.66ZM447.015 422.901L447.501 421.741L447.482 421.733L447.462 421.725L447.015 422.901ZM449.314 425.105C449.513 425.044 449.725 425.044 449.923 425.105L449.188 427.512C449.469 427.598 449.768 427.598 450.049 427.512L449.314 425.105ZM449.801 425.074C449.4 424.995 448.589 424.64 447.833 424.124C447.468 423.875 447.172 423.626 446.973 423.407C446.747 423.158 446.768 423.081 446.78 423.178L444.28 423.473C444.361 424.157 444.763 424.715 445.108 425.097C445.481 425.508 445.946 425.884 446.414 426.203C447.321 426.822 448.453 427.373 449.311 427.543L449.801 425.074ZM446.781 423.191C446.793 423.3 446.766 423.409 446.706 423.499L444.612 422.102C444.346 422.501 444.228 422.982 444.279 423.46L446.781 423.191ZM446.706 423.499C446.647 423.588 446.559 423.652 446.46 423.682L445.732 421.272C445.275 421.41 444.879 421.703 444.612 422.102L446.706 423.499ZM446.605 423.628C446.619 423.622 446.634 423.618 446.65 423.618V421.102C446.284 421.102 445.922 421.178 445.587 421.326L446.605 423.628ZM446.65 423.618C446.665 423.618 446.68 423.622 446.694 423.628L447.713 421.326C447.378 421.178 447.016 421.102 446.65 421.102V423.618ZM446.725 423.641C446.843 423.689 447.037 423.823 447.287 424.102C447.527 424.369 447.76 424.705 447.97 425.058C448.4 425.778 448.652 426.423 448.64 426.385L451.025 425.583C450.975 425.433 450.642 424.624 450.132 423.768C449.872 423.333 449.546 422.851 449.162 422.422C448.788 422.005 448.293 421.564 447.681 421.313L446.725 423.641ZM448.789 426.687C448.674 426.517 448.612 426.316 448.612 426.109H451.129C451.129 425.813 451.041 425.525 450.876 425.281L448.789 426.687ZM448.612 426.109C448.612 425.902 448.674 425.701 448.789 425.531L450.876 426.937C451.041 426.693 451.129 426.404 451.129 426.109H448.612ZM448.829 425.475C448.929 425.342 449.059 425.235 449.207 425.162L450.325 427.416C450.525 427.317 450.701 427.172 450.836 426.993L448.829 425.475ZM449.207 425.162C449.354 425.088 449.517 425.05 449.681 425.05V427.567C449.905 427.567 450.125 427.516 450.325 427.416L449.207 425.162ZM446.762 421.693C446.496 421.615 446.213 421.615 445.946 421.693L446.649 424.11C446.456 424.166 446.252 424.166 446.059 424.11L446.762 421.693ZM445.799 421.746C445.491 421.879 445.143 422.111 444.934 422.515C444.716 422.937 444.766 423.321 444.8 423.487L447.267 422.99C447.288 423.093 447.325 423.371 447.17 423.671C447.024 423.954 446.815 424.049 446.796 424.057L445.799 421.746ZM444.782 423.373C444.845 423.96 445.204 424.421 445.433 424.68C445.707 424.989 446.048 425.284 446.397 425.545C447.091 426.065 447.963 426.562 448.736 426.842L449.596 424.477C449.097 424.296 448.441 423.931 447.905 423.53C447.64 423.332 447.441 423.151 447.318 423.013C447.152 422.825 447.259 422.867 447.284 423.103L444.782 423.373ZM450.307 425.129C450.097 424.678 449.747 424.013 449.314 423.395C448.922 422.834 448.304 422.077 447.501 421.741L446.528 424.062C446.618 424.1 446.887 424.317 447.253 424.838C447.578 425.303 447.857 425.83 448.025 426.19L450.307 425.129ZM447.462 421.725C446.979 421.541 446.446 421.541 445.963 421.725L446.858 424.077C446.764 424.113 446.661 424.113 446.567 424.077L447.462 421.725Z" fill="#0057FF" mask="url(#path-99-inside-11_1_3873)"/>
<mask id="path-101-inside-12_1_3873" fill="white">
<path d="M373.472 440.774C372.126 440.774 370.83 440.587 370.39 439.988C370.277 439.831 370.216 439.643 370.216 439.451C370.216 439.259 370.277 439.071 370.39 438.914C370.474 438.77 370.586 438.643 370.72 438.543C370.854 438.442 371.007 438.369 371.17 438.328C372.918 437.866 376.592 439.938 376.743 440.025C376.789 440.047 376.827 440.084 376.851 440.13C376.875 440.175 376.883 440.227 376.875 440.278C376.866 440.329 376.842 440.375 376.804 440.411C376.767 440.446 376.719 440.468 376.667 440.474C375.613 440.67 374.544 440.77 373.472 440.774ZM371.811 438.752C371.649 438.746 371.488 438.767 371.333 438.814C371.132 438.859 370.956 438.98 370.843 439.151C370.666 439.463 370.729 439.613 370.843 439.701C371.333 440.375 373.988 440.387 375.875 440.112C374.621 439.403 373.242 438.941 371.811 438.752Z"/>
</mask>
<path d="M373.472 440.774C372.126 440.774 370.83 440.587 370.39 439.988C370.277 439.831 370.216 439.643 370.216 439.451C370.216 439.259 370.277 439.071 370.39 438.914C370.474 438.77 370.586 438.643 370.72 438.543C370.854 438.442 371.007 438.369 371.17 438.328C372.918 437.866 376.592 439.938 376.743 440.025C376.789 440.047 376.827 440.084 376.851 440.13C376.875 440.175 376.883 440.227 376.875 440.278C376.866 440.329 376.842 440.375 376.804 440.411C376.767 440.446 376.719 440.468 376.667 440.474C375.613 440.67 374.544 440.77 373.472 440.774ZM371.811 438.752C371.649 438.746 371.488 438.767 371.333 438.814C371.132 438.859 370.956 438.98 370.843 439.151C370.666 439.463 370.729 439.613 370.843 439.701C371.333 440.375 373.988 440.387 375.875 440.112C374.621 439.403 373.242 438.941 371.811 438.752Z" fill="#0057FF"/>
<path d="M373.472 440.774V442.032L373.477 442.032L373.472 440.774ZM370.39 439.988L369.368 440.723L369.376 440.733L370.39 439.988ZM370.216 439.451H371.475H370.216ZM370.39 438.914L371.411 439.649L371.447 439.599L371.478 439.546L370.39 438.914ZM371.17 438.328L371.478 439.548L371.491 439.544L371.17 438.328ZM376.743 440.025L376.112 441.114L376.156 441.14L376.202 441.161L376.743 440.025ZM376.667 440.474L376.521 439.225L376.479 439.229L376.438 439.237L376.667 440.474ZM371.811 438.752L371.976 437.504L371.919 437.497L371.861 437.495L371.811 438.752ZM371.333 438.814L371.605 440.043L371.655 440.032L371.704 440.017L371.333 438.814ZM370.843 439.151L369.792 438.459L369.768 438.495L369.747 438.533L370.843 439.151ZM370.843 439.701L371.86 438.96L371.754 438.814L371.611 438.704L370.843 439.701ZM375.875 440.112L376.056 441.358L379.693 440.828L376.495 439.017L375.875 440.112ZM373.472 439.516C372.844 439.516 372.285 439.471 371.864 439.377C371.381 439.27 371.34 439.155 371.404 439.242L369.376 440.733C369.88 441.419 370.707 441.698 371.318 441.834C371.991 441.984 372.754 442.032 373.472 442.032V439.516ZM371.411 439.253C371.452 439.309 371.475 439.379 371.475 439.451H368.958C368.958 439.908 369.102 440.353 369.368 440.723L371.411 439.253ZM371.475 439.451C371.475 439.523 371.452 439.592 371.411 439.649L369.368 438.179C369.102 438.549 368.958 438.994 368.958 439.451H371.475ZM371.478 439.546C371.477 439.548 371.476 439.548 371.476 439.548L369.963 437.537C369.695 437.739 369.47 437.992 369.301 438.282L371.478 439.546ZM371.476 439.548C371.476 439.548 371.477 439.548 371.478 439.548L370.862 437.108C370.537 437.189 370.231 437.335 369.963 437.537L371.476 439.548ZM371.491 439.544C371.637 439.506 371.959 439.498 372.486 439.615C372.983 439.724 373.538 439.915 374.08 440.136C374.617 440.355 375.113 440.592 375.485 440.78C375.67 440.874 375.823 440.955 375.932 441.015C375.987 441.044 376.03 441.068 376.062 441.086C376.077 441.094 376.09 441.101 376.099 441.106C376.108 441.112 376.112 441.114 376.112 441.114L377.373 438.936C377.269 438.876 376.259 438.306 375.03 437.805C374.417 437.555 373.716 437.309 373.028 437.157C372.37 437.012 371.576 436.919 370.848 437.111L371.491 439.544ZM376.202 441.161C376.004 441.067 375.84 440.911 375.736 440.713L377.966 439.546C377.815 439.257 377.575 439.028 377.283 438.889L376.202 441.161ZM375.736 440.713C375.633 440.516 375.597 440.29 375.634 440.069L378.116 440.486C378.17 440.165 378.117 439.834 377.966 439.546L375.736 440.713ZM375.634 440.069C375.671 439.849 375.779 439.648 375.939 439.496L377.669 441.325C377.904 441.102 378.062 440.808 378.116 440.486L375.634 440.069ZM375.939 439.496C376.1 439.345 376.304 439.25 376.521 439.225L376.813 441.724C377.133 441.687 377.434 441.547 377.669 441.325L375.939 439.496ZM376.438 439.237C375.458 439.419 374.464 439.512 373.467 439.516L373.477 442.032C374.624 442.028 375.768 441.921 376.896 441.712L376.438 439.237ZM371.861 437.495C371.557 437.483 371.253 437.522 370.962 437.612L371.704 440.017C371.722 440.011 371.742 440.009 371.762 440.009L371.861 437.495ZM371.061 437.586C370.542 437.701 370.086 438.013 369.792 438.459L371.893 439.844C371.825 439.947 371.721 440.017 371.605 440.043L371.061 437.586ZM369.747 438.533C369.599 438.794 369.44 439.175 369.481 439.623C369.527 440.14 369.811 440.494 370.074 440.697L371.611 438.704C371.675 438.754 371.766 438.838 371.844 438.966C371.926 439.1 371.974 439.249 371.987 439.397C372.012 439.671 371.91 439.821 371.938 439.77L369.747 438.533ZM369.825 440.441C370.222 440.986 370.86 441.202 371.249 441.305C371.711 441.426 372.241 441.49 372.766 441.519C373.821 441.577 375.041 441.505 376.056 441.358L375.693 438.867C374.821 438.994 373.77 439.054 372.904 439.006C372.468 438.982 372.125 438.933 371.892 438.871C371.586 438.791 371.709 438.752 371.86 438.96L369.825 440.441ZM376.495 439.017C375.101 438.228 373.566 437.714 371.976 437.504L371.647 440C372.917 440.167 374.142 440.578 375.255 441.208L376.495 439.017Z" fill="#0057FF" mask="url(#path-101-inside-12_1_3873)"/>
<mask id="path-103-inside-13_1_3873" fill="white">
<path d="M376.642 440.487H376.541C375.283 439.925 372.767 437.666 372.956 436.493C372.956 436.219 373.208 435.869 373.887 435.807C374.133 435.779 374.381 435.803 374.617 435.876C374.854 435.949 375.072 436.07 375.258 436.231C376.604 437.317 376.881 440.125 376.894 440.237C376.901 440.281 376.895 440.325 376.877 440.365C376.859 440.405 376.83 440.438 376.793 440.462C376.747 440.487 376.694 440.495 376.642 440.487ZM374.126 436.268H373.975C373.522 436.268 373.497 436.493 373.484 436.543C373.371 437.254 375.082 439.039 376.365 439.801C376.256 438.61 375.771 437.483 374.981 436.58C374.746 436.374 374.44 436.263 374.126 436.268Z"/>
</mask>
<path d="M376.642 440.487H376.541C375.283 439.925 372.767 437.666 372.956 436.493C372.956 436.219 373.208 435.869 373.887 435.807C374.133 435.779 374.381 435.803 374.617 435.876C374.854 435.949 375.072 436.07 375.258 436.231C376.604 437.317 376.881 440.125 376.894 440.237C376.901 440.281 376.895 440.325 376.877 440.365C376.859 440.405 376.83 440.438 376.793 440.462C376.747 440.487 376.694 440.495 376.642 440.487ZM374.126 436.268H373.975C373.522 436.268 373.497 436.493 373.484 436.543C373.371 437.254 375.082 439.039 376.365 439.801C376.256 438.61 375.771 437.483 374.981 436.58C374.746 436.374 374.44 436.263 374.126 436.268Z" fill="#0057FF"/>
<path d="M376.642 440.487L376.842 439.245L376.743 439.229H376.642V440.487ZM376.541 440.487L376.028 441.636L376.273 441.746H376.541V440.487ZM372.956 436.493L374.199 436.693L374.214 436.594V436.493H372.956ZM373.887 435.807L374.002 437.06L374.014 437.059L374.026 437.057L373.887 435.807ZM375.258 436.231L374.436 437.184L374.452 437.197L374.468 437.21L375.258 436.231ZM376.894 440.237L375.643 440.378L375.647 440.409L375.652 440.44L376.894 440.237ZM376.793 440.462L377.383 441.574L377.428 441.55L377.472 441.522L376.793 440.462ZM374.126 436.268V437.527H374.137L374.149 437.527L374.126 436.268ZM373.484 436.543L372.264 436.236L372.25 436.29L372.242 436.345L373.484 436.543ZM376.365 439.801L375.723 440.883L377.845 442.142L377.618 439.685L376.365 439.801ZM374.981 436.58L375.928 435.752L375.873 435.689L375.81 435.634L374.981 436.58ZM376.642 439.229H376.541V441.746H376.642V439.229ZM377.054 439.338C376.623 439.145 375.808 438.559 375.107 437.841C374.766 437.492 374.502 437.161 374.342 436.891C374.152 436.571 374.224 436.535 374.199 436.693L371.714 436.293C371.594 437.037 371.91 437.724 372.178 438.176C372.475 438.676 372.883 439.166 373.306 439.598C374.13 440.443 375.202 441.267 376.028 441.636L377.054 439.338ZM374.214 436.493C374.214 436.747 374.099 436.927 373.996 437.017C373.896 437.104 373.856 437.073 374.002 437.06L373.772 434.554C372.713 434.651 371.698 435.33 371.698 436.493H374.214ZM374.026 437.057C374.1 437.049 374.175 437.056 374.245 437.078L374.99 434.674C374.588 434.55 374.166 434.51 373.748 434.556L374.026 437.057ZM374.245 437.078C374.316 437.1 374.381 437.136 374.436 437.184L376.081 435.278C375.762 435.004 375.391 434.798 374.99 434.674L374.245 437.078ZM374.468 437.21C374.816 437.491 375.137 438.129 375.364 438.939C375.574 439.687 375.638 440.331 375.643 440.378L378.144 440.097C378.144 440.099 378.144 440.099 378.144 440.096C378.144 440.093 378.143 440.089 378.143 440.084C378.142 440.074 378.14 440.061 378.138 440.045C378.135 440.013 378.13 439.97 378.123 439.919C378.11 439.816 378.091 439.678 378.064 439.512C378.01 439.184 377.923 438.741 377.788 438.259C377.537 437.366 377.046 436.057 376.048 435.252L374.468 437.21ZM375.652 440.44C375.619 440.24 375.646 440.034 375.729 439.85L378.025 440.879C378.144 440.615 378.182 440.322 378.136 440.034L375.652 440.44ZM375.729 439.85C375.811 439.666 375.945 439.511 376.114 439.403L377.472 441.522C377.714 441.366 377.907 441.143 378.025 440.879L375.729 439.85ZM376.203 439.35C376.399 439.247 376.623 439.209 376.842 439.245L376.442 441.73C376.764 441.781 377.095 441.727 377.383 441.574L376.203 439.35ZM374.126 435.01H373.975V437.527H374.126V435.01ZM373.975 435.01C373.551 435.01 373.067 435.117 372.689 435.483C372.322 435.838 372.251 436.289 372.264 436.236L374.705 436.851C374.733 436.737 374.702 436.87 374.671 436.945C374.629 437.052 374.557 437.178 374.44 437.291C374.191 437.532 373.946 437.527 373.975 437.527V435.01ZM372.242 436.345C372.185 436.704 372.254 437.023 372.326 437.245C372.402 437.477 372.51 437.694 372.622 437.884C372.846 438.263 373.15 438.648 373.471 439C374.109 439.702 374.952 440.425 375.723 440.883L377.007 438.718C376.495 438.414 375.841 437.865 375.332 437.306C375.079 437.028 374.896 436.785 374.791 436.606C374.766 436.564 374.748 436.53 374.736 436.505C374.724 436.479 374.72 436.467 374.72 436.467C374.72 436.468 374.722 436.473 374.724 436.483C374.727 436.493 374.73 436.509 374.732 436.53C374.738 436.571 374.742 436.645 374.727 436.741L372.242 436.345ZM377.618 439.685C377.484 438.229 376.893 436.854 375.928 435.752L374.034 437.409C374.65 438.113 375.027 438.99 375.112 439.916L377.618 439.685ZM375.81 435.634C375.338 435.22 374.729 434.999 374.103 435.01L374.149 437.527C374.152 437.527 374.153 437.528 374.153 437.527L375.81 435.634Z" fill="#0057FF" mask="url(#path-103-inside-13_1_3873)"/>
<path d="M386.544 416.753L387.533 439.609H378.289L377.299 416.753H386.544Z" fill="#FFC3BD" stroke="#0057FF" stroke-width="1.25841"/>
<path d="M451.591 401.829L461.119 423.401L452.641 426.3L443.112 404.727L451.591 401.829Z" fill="#FFC3BD" stroke="#0057FF" stroke-width="1.25841"/>
<path d="M461.501 421.868L461.501 421.868C461.565 421.849 461.634 421.852 461.696 421.876C461.758 421.901 461.808 421.945 461.84 422.001L461.841 422.003L466.556 430.236C466.557 430.237 466.557 430.238 466.557 430.238C466.623 430.357 466.662 430.488 466.67 430.622C466.678 430.757 466.655 430.893 466.604 431.018C466.552 431.144 466.472 431.256 466.369 431.348C466.267 431.439 466.145 431.507 466.012 431.545C464.391 432.01 463.107 432.341 461.805 432.678C461.523 432.751 461.241 432.824 460.954 432.898C459.34 433.318 457.598 433.785 455.109 434.543C454.169 434.827 452.788 435.298 451.212 435.836C450.208 436.178 449.126 436.547 448.027 436.912C445.175 437.86 442.2 438.787 440.074 439.209C438.13 439.594 436.96 438.862 436.433 438.077C436.159 437.668 436.059 437.25 436.084 436.938C436.108 436.636 436.236 436.479 436.397 436.408L436.398 436.408C444.07 433.046 447.261 429.2 449.123 426.177L449.127 426.17L449.131 426.163C449.366 425.759 449.742 425.451 450.189 425.298L461.501 421.868Z" fill="#263238" stroke="#0057FF" stroke-width="1.25841"/>
<path d="M391.577 449.137L391.578 449.141L391.402 449.889C391.317 449.993 391.209 450.077 391.086 450.134L391.35 450.705L391.086 450.134C390.963 450.191 390.828 450.22 390.692 450.217L390.691 450.217C389.159 450.194 387.368 450.145 385.452 450.092C382.232 450.004 378.66 449.905 375.371 449.905C372.443 449.905 370.329 449.983 368.139 450.064C368.047 450.067 367.955 450.071 367.863 450.074C365.576 450.158 363.164 450.242 359.609 450.242C357.689 450.242 356.527 449.29 356.025 448.363C355.767 447.887 355.699 447.45 355.745 447.159C355.788 446.893 355.903 446.8 356.045 446.768C357.469 446.459 358.771 446.197 359.988 445.952C365.747 444.794 369.611 444.018 375.562 440.375L375.57 440.369L375.579 440.364C376.232 439.935 376.991 439.69 377.775 439.656H389.216C389.284 439.658 389.348 439.681 389.4 439.722C389.451 439.763 389.487 439.819 389.502 439.881C389.503 439.882 389.503 439.883 389.503 439.884L391.577 449.137Z" fill="#263238" stroke="#0057FF" stroke-width="1.25841"/>
<path d="M433.717 145.843C434.853 144.183 435.592 142.288 435.881 140.302C436.022 139.25 436.022 138.184 435.881 137.131L433.717 145.843ZM433.717 145.843C432.889 147.056 431.918 148.166 430.824 149.151C429.065 150.734 427.142 152.127 425.088 153.307L433.717 145.843ZM435.258 137.215C435.391 138.21 435.391 139.219 435.258 140.215C434.983 142.104 434.278 143.907 433.198 145.488L433.198 145.488C432.398 146.66 431.46 147.732 430.403 148.683C428.678 150.236 426.792 151.603 424.776 152.761C421.187 154.797 417.432 156.532 413.55 157.945L413.548 157.946C406.333 160.604 398.903 162.647 391.339 164.056L389.455 157.646C396.126 154.772 402.876 151.668 409.114 148.36C412.243 146.731 415.256 144.89 418.129 142.85C419.353 141.987 420.478 140.996 421.486 139.893C421.547 139.828 421.606 139.762 421.663 139.694C421.684 139.691 421.706 139.686 421.727 139.681C421.923 139.631 422.033 139.507 422.076 139.451C422.155 139.348 422.185 139.243 422.192 139.218L422.193 139.216C422.221 139.12 422.24 138.977 422.256 138.825C422.281 138.78 422.305 138.734 422.328 138.688L422.332 138.681L422.335 138.674C422.366 138.609 422.414 138.498 422.43 138.377C422.435 138.346 422.444 138.268 422.427 138.173C422.417 138.113 422.348 137.787 421.992 137.675C421.908 137.649 421.83 137.642 421.76 137.647C421.725 137.56 421.69 137.473 421.656 137.391C421.539 137.106 421.397 136.785 421.256 136.481L421.252 136.472L421.247 136.463C420.555 135.08 419.782 133.738 418.934 132.443L418.934 132.443L418.928 132.435C416.972 129.554 414.859 126.781 412.597 124.13C410.274 121.4 407.827 118.684 405.317 116.019C402.959 113.514 400.49 110.989 398.196 108.643C398.193 108.639 398.189 108.635 398.186 108.632L408.298 98.0346C411.145 100.662 413.646 103.297 416.251 106.06C418.978 108.952 421.506 111.944 423.96 115.136L423.96 115.136L423.965 115.143C426.521 118.377 428.841 121.789 430.908 125.351C432.028 127.3 432.998 129.33 433.808 131.424C433.834 131.496 433.86 131.566 433.885 131.636C434.073 132.148 434.247 132.624 434.394 133.155L434.398 133.168L434.401 133.18C434.601 133.802 434.767 134.435 434.9 135.075L435.109 136.088L435.257 137.213L435.258 137.215ZM422.322 138.618C422.322 138.618 422.321 138.62 422.32 138.622C422.321 138.62 422.322 138.618 422.322 138.618Z" fill="#FFC3BD" stroke="#0057FF" stroke-width="1.25841"/>
<path d="M388.679 168.45C388.532 168.528 388.399 168.596 388.284 168.652L382.637 159.441L391.286 156.846L394.506 162.221C393.858 164.365 392.264 166.006 390.749 167.139C389.969 167.723 389.226 168.16 388.679 168.45Z" fill="#FFC3BD" stroke="#0057FF" stroke-width="1.25841"/>
<path d="M381.921 170.562L378.434 162.906L381.477 160.06L387.009 169.094L381.921 170.562Z" fill="#FFC3BD" stroke="#0057FF" stroke-width="1.25841"/>
<path d="M410.472 96.1126L410.472 96.1126L410.478 96.1166C416.559 99.8776 421.579 105.101 425.076 111.298L405.428 124.64C405.285 124.534 405.101 124.395 404.881 124.228C404.305 123.789 403.482 123.15 402.497 122.352C400.527 120.756 397.912 118.526 395.329 115.989C392.742 113.448 390.206 110.617 388.378 107.818C386.537 104.999 385.482 102.313 385.697 100.034C385.982 97.0408 386.961 94.8966 388.387 93.4461C389.814 91.9959 391.744 91.1819 394.04 90.953C398.66 90.4922 404.656 92.418 410.472 96.1126Z" fill="#0057FF" stroke="#0057FF" stroke-width="1.25841"/>
<g opacity="0.3">
<path d="M410.472 96.1126L410.472 96.1126L410.478 96.1166C416.559 99.8776 421.579 105.101 425.076 111.298L405.428 124.64C405.285 124.534 405.101 124.395 404.881 124.228C404.305 123.789 403.482 123.15 402.497 122.352C400.527 120.756 397.912 118.526 395.329 115.989C392.742 113.448 390.206 110.617 388.378 107.818C386.537 104.999 385.482 102.313 385.697 100.034C385.982 97.0408 386.961 94.8966 388.387 93.4461C389.814 91.9959 391.744 91.1819 394.04 90.953C398.66 90.4922 404.656 92.418 410.472 96.1126Z" fill="white" stroke="#0057FF" stroke-width="1.25841"/>
</g>
<path d="M350.753 99.5165L350.753 99.5171L350.753 99.5165ZM350.457 100.155C350.544 99.9329 350.618 99.7743 350.67 99.6707C355.601 97.5961 360.684 95.8958 365.876 94.5847C373.641 92.9893 381.492 91.8393 389.391 91.1406L389.391 91.1407L389.397 91.1401C391.032 90.979 392.683 90.8673 394.287 90.7803C395.968 90.6936 397.648 90.9456 399.228 91.521C400.807 92.0965 402.253 92.9834 403.477 94.1279C404.701 95.2725 405.678 96.6509 406.35 98.1799C407.022 99.709 407.375 101.357 407.387 103.025L407.387 103.025C407.545 121.228 409.951 138.647 412.412 152.458C413.642 159.364 414.887 165.372 415.872 170.123C416.764 174.425 417.434 177.66 417.697 179.62L363.318 187.59C352.53 150.379 349.411 128.304 348.985 115.546C348.771 109.138 349.236 105.093 349.744 102.667C349.998 101.454 350.262 100.648 350.457 100.155Z" fill="#0057FF" stroke="#0057FF" stroke-width="1.25841"/>
<g opacity="0.3">
<path d="M350.753 99.5165L350.753 99.5171L350.753 99.5165ZM350.457 100.155C350.544 99.9329 350.618 99.7743 350.67 99.6707C355.601 97.5961 360.684 95.8958 365.876 94.5847C373.641 92.9893 381.492 91.8393 389.391 91.1406L389.391 91.1407L389.397 91.1401C391.032 90.979 392.683 90.8673 394.287 90.7803C395.968 90.6936 397.648 90.9456 399.228 91.521C400.807 92.0965 402.253 92.9834 403.477 94.1279C404.701 95.2725 405.678 96.6509 406.35 98.1799C407.022 99.709 407.375 101.357 407.387 103.025L407.387 103.025C407.545 121.228 409.951 138.647 412.412 152.458C413.642 159.364 414.887 165.372 415.872 170.123C416.764 174.425 417.434 177.66 417.697 179.62L363.318 187.59C352.53 150.379 349.411 128.304 348.985 115.546C348.771 109.138 349.236 105.093 349.744 102.667C349.998 101.454 350.262 100.648 350.457 100.155Z" fill="white" stroke="#0057FF" stroke-width="1.25841"/>
</g>
<path opacity="0.2" d="M353.31 147.78C351.652 139.847 350.396 131.836 349.546 123.777L361.595 124.837C362.351 128.719 361.122 133.315 359.162 137.675C357.416 141.561 355.129 145.173 353.31 147.78Z" fill="black" stroke="#0057FF" stroke-width="1.25841"/>
<path opacity="0.2" d="M377.785 427.939L377.299 416.766H386.544L387.03 427.939H377.785Z" fill="black" stroke="#0057FF" stroke-width="1.25841"/>
<path opacity="0.2" d="M456.263 412.393L447.784 415.292L443.112 404.727L451.591 401.828L456.263 412.393Z" fill="black" stroke="#0057FF" stroke-width="1.25841"/>
<path d="M381.248 54.2052L381.248 54.2052L381.249 54.2098C381.455 55.1063 381.657 55.9665 381.851 56.7941C383.857 65.3571 385.048 70.4391 381.95 76.2375C376.912 85.5802 363.873 84.7635 358.783 75.9338C356.444 71.8752 354.536 66.1337 354.273 60.59C354.009 55.0397 355.393 49.8172 359.47 46.5998L359.47 46.5998L359.472 46.598C361.275 45.1624 363.416 44.2063 365.696 43.8207C367.975 43.4351 370.316 43.6328 372.496 44.3949C374.677 45.1571 376.625 46.4584 378.156 48.1752C379.687 49.8919 380.751 51.9674 381.248 54.2052Z" fill="#FFC3BD" stroke="#0057FF" stroke-width="1.25841"/>
<path d="M362.094 63.8559L361.963 62.9059L361.144 63.4038L358.27 65.1501L358.602 53.2003L358.621 52.5254L357.946 52.5541C355.934 52.6399 353.945 52.1646 352.201 51.1926C352.335 51.1291 352.482 51.0612 352.643 50.9893C353.368 50.666 354.345 50.2727 355.509 49.8385C357.834 48.9706 360.879 47.9484 364.094 47.0078C367.31 46.0667 370.683 45.2107 373.667 44.6717C376.678 44.128 379.205 43.9241 380.775 44.2274L380.958 44.2629L381.131 44.1923C381.221 44.1559 381.308 44.111 381.391 44.0609L381.694 44.9012C381.936 44.8539 382.434 44.874 382.976 45.0191C382.625 45.0796 382.28 45.1763 381.945 45.3088L379.775 46.1686L382.081 46.5156L382.082 46.5157L382.082 46.5157L382.083 46.5158L382.084 46.5159L382.091 46.5172C382.1 46.5188 382.116 46.5217 382.139 46.5261C382.183 46.535 382.252 46.5498 382.341 46.5725C382.519 46.6179 382.776 46.6945 383.079 46.8169C383.687 47.0624 384.467 47.4865 385.167 48.2003C386.53 49.5897 387.734 52.2254 386.437 57.2558C384.922 63.0231 384.412 67.5731 384.283 70.6913C384.218 72.2503 384.249 73.4511 384.296 74.2666C384.318 74.6418 384.344 74.9354 384.365 75.1449C384.211 75.2536 383.999 75.3994 383.737 75.5694C383.151 75.9502 382.32 76.4495 381.343 76.9238C379.426 77.8538 377.042 78.6398 374.854 78.3541C373.378 76.7492 371.711 75.0404 370.087 73.3763C368.881 72.1405 367.699 70.9294 366.638 69.8036C365.354 68.4418 364.236 67.1953 363.421 66.1427C363.014 65.6163 362.691 65.1498 362.462 64.7501C362.228 64.3404 362.12 64.0462 362.094 63.8559Z" fill="#263238" stroke="#0057FF" stroke-width="1.25841"/>
<path d="M345.247 45.1646C347.016 44.8957 349.29 44.3844 351.745 43.8322C352.353 43.6954 352.972 43.5562 353.598 43.4175C357.295 42.5978 361.246 41.7875 364.596 41.554C367.961 41.3196 371.454 41.5179 373.8 42.1208C374.996 42.4284 375.777 42.8128 376.135 43.1991C376.298 43.3742 376.346 43.5191 376.347 43.6446C376.348 43.78 376.293 43.9911 376.066 44.2896C375.885 44.5272 375.448 44.837 374.692 45.1827C373.961 45.5168 373.018 45.8477 371.924 46.1691C369.74 46.8114 367.023 47.3978 364.36 47.8948C361.7 48.3912 359.108 48.7959 357.181 49.0766C356.217 49.2169 355.42 49.3261 354.864 49.4002C354.587 49.4372 354.369 49.4655 354.221 49.4845L354.053 49.5059L354.035 49.5082C351.102 49.502 349.161 48.7903 347.775 47.824C346.685 47.0638 345.906 46.1248 345.247 45.1646Z" fill="#263238" stroke="#0057FF" stroke-width="1.25841"/>
<path d="M348.548 40.8653C348.543 40.158 348.741 39.4015 349.229 38.6195C349.774 39.2172 350.558 39.6422 351.435 39.9439C352.7 40.3788 354.285 40.6019 355.998 40.6749C359.429 40.8212 363.511 40.3704 366.894 39.6701C371.236 38.7716 374.782 39.081 376.825 40.2254C377.828 40.7873 378.437 41.5293 378.656 42.4096C378.879 43.2994 378.73 44.4388 377.997 45.8384C377.903 46.0176 377.589 46.2772 376.864 46.527C376.175 46.7645 375.247 46.9485 374.141 47.0834C371.935 47.3526 369.13 47.4135 366.355 47.3723C363.584 47.3312 360.864 47.1887 358.835 47.0563C357.821 46.9901 356.98 46.9265 356.394 46.8795C356.1 46.856 355.871 46.8367 355.715 46.8232L355.537 46.8077L355.492 46.8036L355.491 46.8036C353.12 46.4703 350.803 45.193 349.537 43.5215C348.908 42.6917 348.555 41.7876 348.548 40.8653Z" fill="#263238" stroke="#0057FF" stroke-width="1.25841"/>
<path d="M364.189 58.5859C365.064 58.917 365.893 59.8044 366.302 61.1389C366.982 63.4679 366.873 65.9537 365.993 68.2157C365.432 69.6115 364.633 69.9742 363.962 69.9056C363.21 69.8287 362.299 69.1896 361.626 67.9441C361.032 66.7629 360.506 65.0898 360.384 63.4563C360.261 61.8026 360.558 60.3227 361.449 59.3816C362.361 58.4186 363.35 58.2688 364.189 58.5859Z" fill="#FFC3BD" stroke="#0057FF" stroke-width="1.25841"/>
<path d="M398.731 291.152L398.731 291.152C395.466 276.279 391.582 249.835 388.512 227.087C386.978 215.717 385.648 205.279 384.701 197.683C384.228 193.885 383.851 190.798 383.592 188.66C383.462 187.591 383.362 186.76 383.295 186.195L383.264 185.942L417.773 180.874L417.793 181.103C417.842 181.69 417.915 182.557 418.009 183.672C418.198 185.902 418.473 189.127 418.818 193.106C419.507 201.065 420.474 212.042 421.585 224.114C423.807 248.255 426.607 276.789 428.917 294.327C431.93 317.197 439.105 345.4 445.519 367.868C448.728 379.106 451.748 388.916 453.966 395.917C455.075 399.418 455.984 402.216 456.616 404.14C456.931 405.102 457.178 405.845 457.345 406.348C457.366 406.409 457.385 406.466 457.403 406.52L440.95 412.163C440.899 412.035 440.84 411.886 440.773 411.715C440.513 411.055 440.13 410.084 439.641 408.835C438.661 406.338 437.254 402.734 435.544 398.308C432.122 389.454 427.486 377.31 422.626 364.146C412.899 337.801 402.299 307.427 398.731 291.152Z" fill="#263238" stroke="#0057FF" stroke-width="1.25841"/>
<path d="M459.429 407.83L440.017 414.085C439.926 413.899 439.811 413.668 439.681 413.403C439.336 412.701 438.877 411.765 438.42 410.83C437.964 409.894 437.511 408.961 437.178 408.261C437.097 408.091 437.023 407.936 436.959 407.798L457.462 402.871L459.429 407.83Z" fill="#0057FF" stroke="#0057FF" stroke-width="1.25841"/>
<path opacity="0.3" d="M399.219 248.914C400.181 259.442 399.08 271.827 397.116 283.189C394.17 267.526 390.921 244.997 388.315 225.517C394.95 229.103 398.209 237.855 399.219 248.914Z" fill="black" stroke="#0057FF" stroke-width="1.25841"/>
<path d="M357.206 291.489L357.206 291.488C356.616 275.654 358.185 249.884 359.906 228.044C360.765 217.13 361.662 207.208 362.344 200.014C362.685 196.417 362.972 193.503 363.174 191.488C363.275 190.48 363.355 189.697 363.409 189.166C363.422 189.046 363.433 188.938 363.442 188.843L402.027 183.187C402.027 183.19 402.026 183.193 402.026 183.196C401.927 183.763 401.783 184.6 401.6 185.677C401.233 187.832 400.707 190.949 400.074 194.8C398.807 202.502 397.11 213.141 395.385 224.884C391.937 248.36 388.374 276.294 387.939 294.017L387.939 294.018C387.561 310.25 388.191 343.298 388.914 372.271C389.275 386.762 389.661 400.239 389.956 410.093C390.103 415.02 390.228 419.042 390.316 421.831C390.36 423.226 390.395 424.313 390.418 425.052L390.434 425.53H373.849C373.823 425.363 373.792 425.157 373.755 424.915C373.641 424.163 373.474 423.056 373.26 421.634C372.833 418.792 372.221 414.694 371.483 409.673C370.007 399.631 368.027 385.899 366.009 371.135C361.973 341.591 357.796 307.964 357.206 291.489Z" fill="#263238" stroke="#0057FF" stroke-width="1.25841"/>
<path d="M371.398 425.817C371.374 425.647 371.344 425.442 371.31 425.212C371.21 424.527 371.077 423.613 370.947 422.7C370.816 421.786 370.688 420.874 370.598 420.192C370.578 420.044 370.561 419.908 370.545 419.785L392.385 420.524L391.905 425.817H371.398Z" fill="#0057FF" stroke="#0057FF" stroke-width="1.25841"/>
<path d="M317.61 144.273C317.622 144.254 317.638 144.226 317.655 144.191C317.659 144.188 317.663 144.184 317.668 144.18C317.703 144.152 317.75 144.112 317.796 144.067L318.215 143.689L318.215 143.689L318.222 143.682L319.058 142.902C319.806 142.242 320.545 141.473 321.263 140.727C321.644 140.33 322.02 139.94 322.387 139.575L322.395 139.567L322.403 139.559C324.583 137.233 326.759 134.836 328.824 132.285C329.046 132.01 329.269 131.735 329.493 131.459C331.324 129.198 333.173 126.915 334.973 124.571C336.744 122.265 338.466 119.931 340.187 117.598C340.426 117.273 340.666 116.948 340.905 116.624C342.394 114.607 343.855 112.51 345.26 110.493C345.595 110.012 345.927 109.536 346.255 109.067L358.551 116.916C356.709 119.785 354.84 122.4 352.896 125.093C350.843 127.938 348.687 130.687 346.488 133.43C342.02 138.975 337.179 144.214 331.998 149.111C331.647 149.422 331.306 149.73 330.969 150.034C329.936 150.968 328.945 151.863 327.82 152.703L327.811 152.709L327.803 152.716L326.699 153.599L326.696 153.602L326.146 154.036L326.146 154.036L326.141 154.04C326.086 154.084 326.041 154.122 325.998 154.158C325.871 154.263 325.76 154.355 325.465 154.567C324.269 155.413 322.956 156.083 321.566 156.555C319.383 157.295 317.1 157.705 314.793 157.77L314.79 157.77C312.819 157.836 310.846 157.75 308.889 157.513C301.856 156.598 294.99 154.697 288.497 151.867L290.371 145.419C296.663 146.135 302.996 146.424 309.328 146.285L309.337 146.285L309.346 146.284C310.801 146.209 312.25 146.052 313.687 145.816C314.817 145.652 315.914 145.312 316.937 144.811L316.948 144.805L316.958 144.8C317.14 144.702 317.3 144.595 317.419 144.489C317.474 144.44 317.549 144.367 317.61 144.273Z" fill="#FFC3BD" stroke="#0057FF" stroke-width="1.25841"/>
<path d="M347.109 141.157C346.892 141.302 346.705 141.425 346.553 141.524L331.212 122.139C334.746 115.679 339.086 109.685 344.129 104.299L344.131 104.296C346.787 101.43 349.272 100.002 351.52 99.5649C353.756 99.1302 355.835 99.6595 357.725 100.861C361.548 103.291 364.536 108.441 366.128 113.602C367.12 116.825 366.439 120.176 364.777 123.446C363.113 126.719 360.494 129.853 357.714 132.589C354.939 135.321 352.028 137.632 349.809 139.262C348.7 140.076 347.765 140.719 347.109 141.157Z" fill="#0057FF" stroke="#0057FF" stroke-width="1.25841"/>
<g opacity="0.3">
<path d="M347.109 141.157C346.892 141.302 346.705 141.425 346.553 141.524L331.212 122.139C334.746 115.679 339.086 109.685 344.129 104.299L344.131 104.296C346.787 101.43 349.272 100.002 351.52 99.5649C353.756 99.1302 355.835 99.6595 357.725 100.861C361.548 103.291 364.536 108.441 366.128 113.602C367.12 116.825 366.439 120.176 364.777 123.446C363.113 126.719 360.494 129.853 357.714 132.589C354.939 135.321 352.028 137.632 349.809 139.262C348.7 140.076 347.765 140.719 347.109 141.157Z" fill="white" stroke="#0057FF" stroke-width="1.25841"/>
</g>
<path d="M282.636 153.519L281.423 143.619L292.987 145.72L293.009 151.591C290.768 154.173 288.161 154.631 286.076 154.445C285.001 154.349 284.065 154.08 283.396 153.834C283.073 153.715 282.815 153.603 282.636 153.519Z" fill="#FFC3BD" stroke="#0057FF" stroke-width="1.25841"/>
<path d="M278.977 152.785L276.489 145.657L280.153 143.812L281.301 153.172L278.977 152.785Z" fill="#FFC3BD" stroke="#0057FF" stroke-width="1.25841"/>
</svg>
