<svg width="17" height="18" viewBox="0 0 17 18" fill="none" xmlns="http://www.w3.org/2000/svg">
<path d="M3.5 18C2.95 18 2.47933 17.8043 2.088 17.413C1.69667 17.0217 1.50067 16.5507 1.5 16V3C1.21667 3 0.979333 2.904 0.788 2.712C0.596667 2.52 0.500667 2.28267 0.5 2C0.5 1.71667 0.596 1.47933 0.788 1.288C0.98 1.09667 1.21733 1.00067 1.5 1H5.5C5.5 0.716667 5.596 0.479333 5.788 0.288C5.98 0.0966668 6.21733 0.000666667 6.5 0H10.5C10.7833 0 11.021 0.0960001 11.213 0.288C11.405 0.48 11.5007 0.717333 11.5 1H15.5C15.7833 1 16.021 1.096 16.213 1.288C16.405 1.48 16.5007 1.71733 16.5 2C16.5 2.28333 16.404 2.521 16.212 2.713C16.02 2.905 15.7827 3.00067 15.5 3V16C15.5 16.55 15.3043 17.021 14.913 17.413C14.5217 17.805 14.0507 18.0007 13.5 18H3.5ZM6.5 14C6.78333 14 7.021 13.904 7.213 13.712C7.405 13.52 7.50067 13.2827 7.5 13V6C7.5 5.71667 7.404 5.47933 7.212 5.288C7.02 5.09667 6.78267 5.00067 6.5 5C6.21667 5 5.97933 5.096 5.788 5.288C5.59667 5.48 5.50067 5.71733 5.5 6V13C5.5 13.2833 5.596 13.521 5.788 13.713C5.98 13.905 6.21733 14.0007 6.5 14ZM10.5 14C10.7833 14 11.021 13.904 11.213 13.712C11.405 13.52 11.5007 13.2827 11.5 13V6C11.5 5.71667 11.404 5.47933 11.212 5.288C11.02 5.09667 10.7827 5.00067 10.5 5C10.2167 5 9.97933 5.096 9.788 5.288C9.59667 5.48 9.50067 5.71733 9.5 6V13C9.5 13.2833 9.596 13.521 9.788 13.713C9.98 13.905 10.2173 14.0007 10.5 14Z" fill="#005C04"/>
</svg>
