<svg width="25" height="24" viewBox="0 0 25 24" fill="none" xmlns="http://www.w3.org/2000/svg">
<path d="M12.5 2C18.023 2 22.5 6.477 22.5 12C22.5 17.523 18.023 22 12.5 22C6.977 22 2.5 17.523 2.5 12C2.5 6.477 6.977 2 12.5 2ZM12.5 4C10.3783 4 8.34344 4.84285 6.84315 6.34315C5.34285 7.84344 4.5 9.87827 4.5 12C4.5 14.1217 5.34285 16.1566 6.84315 17.6569C8.34344 19.1571 10.3783 20 12.5 20C14.6217 20 16.6566 19.1571 18.1569 17.6569C19.6571 16.1566 20.5 14.1217 20.5 12C20.5 9.87827 19.6571 7.84344 18.1569 6.34315C16.6566 4.84285 14.6217 4 12.5 4ZM12.5 15C12.7652 15 13.0196 15.1054 13.2071 15.2929C13.3946 15.4804 13.5 15.7348 13.5 16C13.5 16.2652 13.3946 16.5196 13.2071 16.7071C13.0196 16.8946 12.7652 17 12.5 17C12.2348 17 11.9804 16.8946 11.7929 16.7071C11.6054 16.5196 11.5 16.2652 11.5 16C11.5 15.7348 11.6054 15.4804 11.7929 15.2929C11.9804 15.1054 12.2348 15 12.5 15ZM12.5 6C12.7652 6 13.0196 6.10536 13.2071 6.29289C13.3946 6.48043 13.5 6.73478 13.5 7V13C13.5 13.2652 13.3946 13.5196 13.2071 13.7071C13.0196 13.8946 12.7652 14 12.5 14C12.2348 14 11.9804 13.8946 11.7929 13.7071C11.6054 13.5196 11.5 13.2652 11.5 13V7C11.5 6.73478 11.6054 6.48043 11.7929 6.29289C11.9804 6.10536 12.2348 6 12.5 6Z" fill="black" fill-opacity="0.7"/>
</svg>
