<svg width="32" height="32" viewBox="0 0 32 32" fill="none" xmlns="http://www.w3.org/2000/svg">
<path d="M17.5 7.5C17.5 7.10218 17.342 6.72064 17.0607 6.43934C16.7794 6.15804 16.3978 6 16 6C15.6022 6 15.2206 6.15804 14.9393 6.43934C14.658 6.72064 14.5 7.10218 14.5 7.5V14.5H7.5C7.10218 14.5 6.72064 14.658 6.43934 14.9393C6.15804 15.2206 6 15.6022 6 16C6 16.3978 6.15804 16.7794 6.43934 17.0607C6.72064 17.342 7.10218 17.5 7.5 17.5H14.5V24.5C14.5 24.8978 14.658 25.2794 14.9393 25.5607C15.2206 25.842 15.6022 26 16 26C16.3978 26 16.7794 25.842 17.0607 25.5607C17.342 25.2794 17.5 24.8978 17.5 24.5V17.5H24.5C24.8978 17.5 25.2794 17.342 25.5607 17.0607C25.842 16.7794 26 16.3978 26 16C26 15.6022 25.842 15.2206 25.5607 14.9393C25.2794 14.658 24.8978 14.5 24.5 14.5H17.5V7.5Z" fill="#EFFCFF"/>
</svg>
