<svg width="10" height="10" viewBox="0 0 10 10" fill="none" xmlns="http://www.w3.org/2000/svg">
<path d="M5.02878 3.67983H9.24204C9.0185 3.07813 8.66168 2.5464 8.17158 2.08463C7.68148 1.6232 7.12278 1.31365 6.49549 1.15597L5.02878 3.67983ZM3.96906 4.70371L6.09617 1.05358C6.00232 1.03652 5.88559 1.02372 5.74601 1.01519C5.60573 1.00665 5.48867 1.00239 5.39481 1.00239C4.83168 1.00239 4.30694 1.10904 3.8206 1.32235C3.33426 1.53566 2.90337 1.82149 2.52795 2.17985L3.96906 4.70371ZM1.42728 6.12179H4.3351L2.24894 2.49111C1.94929 2.86039 1.71601 3.26277 1.54912 3.69826C1.38257 4.13376 1.29929 4.6003 1.29929 5.09791C1.29929 5.27709 1.31004 5.44995 1.33155 5.6165C1.35305 5.78306 1.38496 5.95148 1.42728 6.12179ZM4.3136 9.03985L5.77467 6.51598H1.54758C1.77113 7.11768 2.1312 7.64942 2.62778 8.11119C3.12436 8.57262 3.6863 8.88217 4.3136 9.03985ZM5.39481 9.19343C5.95795 9.19343 6.48269 9.08678 6.96903 8.87347C7.45537 8.66016 7.88626 8.37433 8.26168 8.01597L6.82057 5.4921L4.71342 9.12278C4.80728 9.14633 4.91871 9.16391 5.04772 9.17551C5.17673 9.18746 5.29243 9.19343 5.39481 9.19343ZM8.5412 7.70471C8.81423 7.35488 9.04068 6.9525 9.22054 6.49755C9.4004 6.04227 9.49034 5.57572 9.49034 5.09791C9.49034 4.91873 9.47976 4.74604 9.4586 4.57983C9.43743 4.41362 9.40535 4.24502 9.36235 4.07403H6.45453L8.5412 7.70471ZM5.39481 9.70537C4.76069 9.70537 4.16343 9.58421 3.60302 9.34189C3.04262 9.09957 2.55457 8.77023 2.13888 8.35385C1.7225 7.93849 1.39315 7.45044 1.15083 6.8897C0.908513 6.3293 0.787354 5.73203 0.787354 5.09791C0.787354 4.46208 0.908513 3.8643 1.15083 3.30458C1.39349 2.74486 1.72284 2.25715 2.13888 1.84146C2.55423 1.42576 3.04228 1.09676 3.60302 0.854437C4.16343 0.611778 4.76069 0.490448 5.39481 0.490448C6.03064 0.490448 6.62842 0.611607 7.18814 0.853926C7.74786 1.09659 8.23557 1.42593 8.65127 1.84197C9.06696 2.25767 9.39597 2.7452 9.63829 3.30458C9.88095 3.8643 10.0023 4.46208 10.0023 5.09791C10.0023 5.73203 9.88112 6.3293 9.6388 6.8897C9.39648 7.4501 9.06713 7.93815 8.65075 8.35385C8.23506 8.76989 7.74752 9.09923 7.18814 9.34189C6.62842 9.58421 6.03064 9.70537 5.39481 9.70537Z" fill="black"/>
</svg>
