<svg width="11" height="10" viewBox="0 0 11 10" fill="none" xmlns="http://www.w3.org/2000/svg">
<path d="M3.71948 3.87759C3.75013 3.90816 3.77444 3.94448 3.79103 3.98446C3.80763 4.02444 3.81617 4.06731 3.81617 4.1106C3.81617 4.15388 3.80763 4.19675 3.79103 4.23673C3.77444 4.27671 3.75013 4.31303 3.71948 4.3436L3.29362 4.7688H7.62858L7.20272 4.3436C7.14092 4.2818 7.10621 4.19799 7.10621 4.1106C7.10621 4.0232 7.14092 3.93939 7.20272 3.87759C7.26452 3.81579 7.34833 3.78108 7.43572 3.78108C7.52312 3.78108 7.60693 3.81579 7.66873 3.87759L8.65604 4.8649C8.68669 4.89547 8.71101 4.93179 8.7276 4.97177C8.74419 5.01176 8.75273 5.05462 8.75273 5.09791C8.75273 5.1412 8.74419 5.18406 8.7276 5.22404C8.71101 5.26403 8.68669 5.30034 8.65604 5.33092L7.66873 6.31823C7.60693 6.38003 7.52312 6.41474 7.43572 6.41474C7.34833 6.41474 7.26452 6.38003 7.20272 6.31823C7.14092 6.25643 7.10621 6.17262 7.10621 6.08522C7.10621 5.99783 7.14092 5.91401 7.20272 5.85222L7.62858 5.42701H3.29362L3.71948 5.85222C3.78128 5.91401 3.81599 5.99783 3.81599 6.08522C3.81599 6.17262 3.78128 6.25643 3.71948 6.31823C3.65768 6.38003 3.57387 6.41474 3.48647 6.41474C3.39908 6.41474 3.31526 6.38003 3.25347 6.31823L2.26615 5.33092C2.23551 5.30034 2.21119 5.26403 2.1946 5.22404C2.17801 5.18406 2.16947 5.1412 2.16947 5.09791C2.16947 5.05462 2.17801 5.01176 2.1946 4.97177C2.21119 4.93179 2.23551 4.89547 2.26615 4.8649L3.25347 3.87759C3.28404 3.84694 3.32035 3.82263 3.36034 3.80603C3.40032 3.78944 3.44318 3.7809 3.48647 3.7809C3.52976 3.7809 3.57262 3.78944 3.61261 3.80603C3.65259 3.82263 3.68891 3.84694 3.71948 3.87759ZM10.0686 2.46507C10.0686 1.94137 9.86052 1.43912 9.49021 1.0688C9.11989 0.698488 8.61764 0.490448 8.09393 0.490448H2.82826C2.30456 0.490448 1.80231 0.698488 1.43199 1.0688C1.06168 1.43912 0.853638 1.94137 0.853638 2.46507V7.73074C0.853638 8.25445 1.06168 8.7567 1.43199 9.12702C1.80231 9.49733 2.30456 9.70537 2.82826 9.70537H8.09393C8.61764 9.70537 9.11989 9.49733 9.49021 9.12702C9.86052 8.7567 10.0686 8.25445 10.0686 7.73074V2.46507ZM7.43572 1.14866V3.12328C7.67136 3.12328 7.907 3.20688 8.09393 3.37472V1.14866C8.44307 1.14866 8.77791 1.28735 9.02478 1.53423C9.27166 1.7811 9.41035 2.11594 9.41035 2.46507V7.73074C9.41035 8.07988 9.27166 8.41472 9.02478 8.66159C8.77791 8.90847 8.44307 9.04716 8.09393 9.04716V6.8211C7.91309 6.98328 7.67864 7.07284 7.43572 7.07254V9.04716H3.48647V7.07254C3.25083 7.07254 3.0152 6.98894 2.82826 6.8211V9.04716C2.47913 9.04716 2.14429 8.90847 1.89742 8.66159C1.65054 8.41472 1.51185 8.07988 1.51185 7.73074V2.46507C1.51185 2.11594 1.65054 1.7811 1.89742 1.53423C2.14429 1.28735 2.47913 1.14866 2.82826 1.14866V3.37472C3.00911 3.21254 3.24356 3.12298 3.48647 3.12328V1.14866H7.43572Z" fill="black"/>
</svg>
