<svg width="16" height="19" viewBox="0 0 16 19" fill="none" xmlns="http://www.w3.org/2000/svg">
<path d="M3.02038 18.4428C2.48132 18.4428 2.02002 18.251 1.63648 17.8675C1.25293 17.484 1.06083 17.0223 1.06018 16.4826V3.74132C0.782483 3.74132 0.549873 3.64723 0.362347 3.45905C0.174821 3.27088 0.0807315 3.03827 0.0800781 2.76122C0.0800781 2.48353 0.174168 2.25092 0.362347 2.06339C0.550526 1.87587 0.783136 1.78178 1.06018 1.78112H4.98058C4.98058 1.50343 5.07467 1.27082 5.26284 1.08329C5.45102 0.895768 5.68363 0.801679 5.96068 0.801025H9.88107C10.1588 0.801025 10.3917 0.895115 10.5799 1.08329C10.7681 1.27147 10.8618 1.50408 10.8612 1.78112H14.7816C15.0593 1.78112 15.2922 1.87521 15.4804 2.06339C15.6686 2.25157 15.7623 2.48418 15.7617 2.76122C15.7617 3.03892 15.6676 3.27186 15.4794 3.46004C15.2912 3.64821 15.0586 3.74198 14.7816 3.74132V16.4826C14.7816 17.0217 14.5898 17.4833 14.2063 17.8675C13.8227 18.2517 13.3611 18.4435 12.8214 18.4428H3.02038ZM5.96068 14.5224C6.23837 14.5224 6.47131 14.4283 6.65949 14.2401C6.84767 14.052 6.94143 13.8194 6.94077 13.5423V6.68162C6.94077 6.40393 6.84668 6.17132 6.65851 5.98379C6.47033 5.79627 6.23772 5.70218 5.96068 5.70152C5.68298 5.70152 5.45037 5.79561 5.26284 5.98379C5.07532 6.17197 4.98123 6.40458 4.98058 6.68162V13.5423C4.98058 13.82 5.07467 14.0529 5.26284 14.2411C5.45102 14.4293 5.68363 14.5231 5.96068 14.5224ZM9.88107 14.5224C10.1588 14.5224 10.3917 14.4283 10.5799 14.2401C10.7681 14.052 10.8618 13.8194 10.8612 13.5423V6.68162C10.8612 6.40393 10.7671 6.17132 10.5789 5.98379C10.3907 5.79627 10.1581 5.70218 9.88107 5.70152C9.60338 5.70152 9.37077 5.79561 9.18324 5.98379C8.99572 6.17197 8.90163 6.40458 8.90097 6.68162V13.5423C8.90097 13.82 8.99506 14.0529 9.18324 14.2411C9.37142 14.4293 9.60403 14.5231 9.88107 14.5224Z" fill="black"/>
</svg>
