<svg width="22" height="25" viewBox="0 0 22 25" fill="none" xmlns="http://www.w3.org/2000/svg">
<path d="M4.33325 24.5C3.59992 24.5 2.97236 24.2391 2.45058 23.7173C1.92881 23.1956 1.66747 22.5676 1.66659 21.8333V4.5C1.28881 4.5 0.972363 4.372 0.717252 4.116C0.462141 3.86 0.334141 3.54356 0.333252 3.16667C0.333252 2.78889 0.461252 2.47244 0.717252 2.21733C0.973252 1.96222 1.2897 1.83422 1.66659 1.83333H6.99992C6.99992 1.45556 7.12792 1.13911 7.38392 0.884C7.63992 0.628889 7.95636 0.500889 8.33325 0.5H13.6666C14.0444 0.5 14.3613 0.628 14.6173 0.884C14.8733 1.14 15.0008 1.45644 14.9999 1.83333H20.3333C20.711 1.83333 21.0279 1.96133 21.2839 2.21733C21.5399 2.47333 21.6675 2.78978 21.6666 3.16667C21.6666 3.54444 21.5386 3.86133 21.2826 4.11733C21.0266 4.37333 20.7101 4.50089 20.3333 4.5V21.8333C20.3333 22.5667 20.0724 23.1947 19.5506 23.7173C19.0288 24.24 18.4008 24.5009 17.6666 24.5H4.33325ZM8.33325 19.1667C8.71103 19.1667 9.02792 19.0387 9.28392 18.7827C9.53992 18.5267 9.66747 18.2102 9.66658 17.8333V8.5C9.66658 8.12222 9.53858 7.80578 9.28258 7.55067C9.02658 7.29556 8.71014 7.16756 8.33325 7.16667C7.95547 7.16667 7.63903 7.29467 7.38392 7.55067C7.12881 7.80667 7.00081 8.12311 6.99992 8.5V17.8333C6.99992 18.2111 7.12792 18.528 7.38392 18.784C7.63992 19.04 7.95636 19.1676 8.33325 19.1667ZM13.6666 19.1667C14.0444 19.1667 14.3613 19.0387 14.6173 18.7827C14.8733 18.5267 15.0008 18.2102 14.9999 17.8333V8.5C14.9999 8.12222 14.8719 7.80578 14.6159 7.55067C14.3599 7.29556 14.0435 7.16756 13.6666 7.16667C13.2888 7.16667 12.9724 7.29467 12.7173 7.55067C12.4621 7.80667 12.3341 8.12311 12.3333 8.5V17.8333C12.3333 18.2111 12.4613 18.528 12.7173 18.784C12.9733 19.04 13.2897 19.1676 13.6666 19.1667Z" fill="#0057FF"/>
</svg>
