<svg width="64" height="64" viewBox="0 0 64 64" fill="none" xmlns="http://www.w3.org/2000/svg">
<path d="M31.9997 10C29.3475 10 26.804 11.0536 24.9286 12.9289C23.0532 14.8043 21.9997 17.3478 21.9997 20C21.9997 22.6522 23.0532 25.1957 24.9286 27.0711C26.804 28.9464 29.3475 30 31.9997 30C34.6518 30 37.1954 28.9464 39.0707 27.0711C40.9461 25.1957 41.9997 22.6522 41.9997 20C41.9997 17.3478 40.9461 14.8043 39.0707 12.9289C37.1954 11.0536 34.6518 10 31.9997 10ZM21.333 35.3333C18.6808 35.3333 16.1373 36.3869 14.2619 38.2623C12.3866 40.1376 11.333 42.6812 11.333 45.3333V48.5013C11.333 50.512 12.789 52.224 14.773 52.5467C26.181 54.4107 37.8183 54.4107 49.2263 52.5467C50.1865 52.3903 51.0598 51.8975 51.6901 51.1564C52.3203 50.4153 52.6663 49.4742 52.6663 48.5013V45.3333C52.6663 42.6812 51.6128 40.1376 49.7374 38.2623C47.862 36.3869 45.3185 35.3333 42.6663 35.3333H41.7597C41.2663 35.3333 40.7757 35.4133 40.309 35.5627L37.9997 36.3173C34.1009 37.59 29.8985 37.59 25.9997 36.3173L23.6903 35.5627C23.2227 35.4105 22.7341 35.3331 22.2423 35.3333H21.333Z" fill="#0057FF"/>
</svg>
